<svg version="1.1" id="Layer_1" xmlns="http://www.w3.org/2000/svg" xmlns:xlink="http://www.w3.org/1999/xlink" x="0px" y="0px"
	 width="100%" viewBox="0 0 1080 1080" enable-background="new 0 0 1080 1080" xml:space="preserve">
<path fill="#FEFEFF" opacity="1.000000" stroke="none" 
	d="
M577.000000,1081.000000 
	C384.688812,1081.000000 192.877609,1081.000000 1.033205,1081.000000 
	C1.033205,721.063660 1.033205,361.127350 1.033205,1.095518 
	C360.894745,1.095518 720.789551,1.095518 1080.842163,1.095518 
	C1080.842163,360.999939 1080.842163,720.999939 1080.842163,1081.000000 
	C913.126892,1081.000000 745.313416,1081.000000 577.000000,1081.000000 
M399.880127,934.388550 
	C388.641846,935.580811 377.390656,937.847473 366.168365,937.712158 
	C349.576111,937.512146 332.982758,935.847229 316.429596,934.362976 
	C296.806793,932.603455 279.030945,925.660767 263.116486,914.012695 
	C250.386887,904.695496 240.351501,893.175049 234.181046,878.518250 
	C225.856735,858.745422 217.158752,839.217712 203.993378,821.982849 
	C195.323059,810.632446 185.869675,800.453308 173.172546,793.384583 
	C164.816498,788.732605 158.029694,782.034973 153.213120,773.565308 
	C150.578461,768.932495 151.667679,764.874023 156.598129,763.142395 
	C160.003235,761.946411 163.652283,761.147278 167.248840,760.846130 
	C182.310471,759.585205 196.091766,763.766418 209.307358,770.771729 
	C228.536560,780.964722 244.342422,794.734802 255.687973,813.435364 
	C265.056885,828.877991 275.471863,843.397827 290.176331,854.405701 
	C301.952271,863.221252 314.786285,870.358521 329.347382,871.772278 
	C354.048218,874.170532 378.388794,871.654297 401.941162,862.689758 
	C408.557892,860.171326 411.644043,856.591980 412.686859,849.929749 
	C415.885986,829.491943 423.603638,811.044983 437.603180,795.502625 
	C439.569275,793.319763 441.347809,790.967957 443.797668,787.982056 
	C437.080261,786.982239 431.196869,786.268494 425.376312,785.209290 
	C409.040344,782.236816 392.612915,779.635132 376.439026,775.936279 
	C355.125244,771.061951 335.240479,762.280029 315.814423,752.275696 
	C274.076172,730.780701 243.894196,698.838074 226.289276,655.163330 
	C214.842606,626.766174 207.576248,597.414124 205.024277,566.854675 
	C203.024872,542.912109 202.084900,519.034729 205.150970,495.098572 
	C207.876266,473.822662 213.862549,453.547363 223.104950,434.252258 
	C230.975342,417.821442 241.023758,402.785217 253.210114,389.208130 
	C255.801987,386.320435 257.618896,383.866577 255.794739,379.173096 
	C249.487793,362.945892 245.915817,345.953156 246.145065,328.521240 
	C246.308411,316.101044 246.876526,303.489105 249.232803,291.344727 
	C252.161774,276.248749 257.056000,261.528137 261.302917,246.703110 
	C261.713593,245.269455 263.421082,243.365829 264.735870,243.182663 
	C269.647217,242.498474 274.803497,241.515839 279.579865,242.331619 
	C290.827606,244.252716 302.299286,246.048035 312.985504,249.848251 
	C344.677795,261.118591 375.131500,275.165131 402.878479,294.475220 
	C406.646942,297.097809 410.362335,297.716675 414.630005,296.599579 
	C418.329987,295.631134 422.071991,294.822845 425.771454,293.852509 
	C453.558289,286.564301 481.920898,282.356476 510.505615,281.263031 
	C535.738708,280.297760 561.072205,281.606262 586.349243,282.333008 
	C594.969604,282.580841 603.655457,283.568878 612.132446,285.167786 
	C630.747498,288.678986 649.252258,292.777710 667.792786,296.680450 
	C671.694824,297.501862 675.098083,297.160645 678.647217,294.809631 
	C707.848206,275.466309 738.733398,259.394958 771.979370,248.169815 
	C786.054871,243.417419 800.430176,239.781113 815.484253,242.977783 
	C817.174988,243.336792 819.410278,244.659836 819.992432,246.101395 
	C822.539246,252.408386 824.853210,258.842407 826.731201,265.379883 
	C831.233093,281.051849 834.612427,296.892639 835.578491,313.303314 
	C836.686462,332.123291 836.191956,350.984619 829.582153,368.463104 
	C825.035156,380.487091 827.309570,387.809479 835.191650,397.274261 
	C861.716858,429.125732 875.388977,466.573486 878.249268,507.790588 
	C880.121460,534.769348 878.598083,561.670349 874.419556,588.446960 
	C870.789307,611.710144 864.477356,634.145020 855.610168,655.917480 
	C840.981140,691.837402 817.479065,720.373840 784.681152,741.127258 
	C760.520752,756.415222 734.898071,768.700073 707.017517,775.305603 
	C688.463501,779.701477 669.517212,782.444946 650.741028,785.897949 
	C646.755005,786.630981 642.744995,787.233521 637.888428,788.038330 
	C639.565247,789.967957 640.571899,791.231995 641.686218,792.392639 
	C654.657654,805.903442 662.774292,821.965698 667.445129,840.028015 
	C671.822266,856.954651 672.862244,874.190063 672.947510,891.512573 
	C673.111572,924.842957 672.992493,958.174622 672.996643,991.505798 
	C672.998291,1004.671570 672.663818,1017.851624 673.201294,1030.995850 
	C673.411194,1036.129639 674.620178,1041.721924 677.074341,1046.166504 
	C683.264282,1057.376953 697.046204,1061.206543 711.380005,1056.099854 
	C740.663635,1045.667236 769.273254,1033.701294 796.643799,1018.810120 
	C840.363647,995.023987 879.578918,965.227844 914.771606,930.207886 
	C934.240479,910.834473 951.956299,889.795837 968.197693,867.618896 
	C996.394470,829.117859 1020.216309,788.121277 1036.370728,743.065369 
	C1043.643799,722.780579 1050.461548,702.252747 1055.933960,681.427429 
	C1060.311646,664.767944 1062.881348,647.567017 1065.264893,630.468506 
	C1067.696777,613.024292 1069.952515,595.439087 1070.414307,577.866394 
	C1070.990234,555.945251 1070.037231,533.956238 1069.037964,512.028748 
	C1067.946167,488.073242 1063.994507,464.471863 1059.112671,440.981415 
	C1053.008911,411.610779 1044.238770,383.074707 1032.961304,355.359802 
	C1013.811462,308.298157 988.321655,264.840576 956.899536,224.887909 
	C930.112915,190.829208 899.568298,160.448166 865.191467,134.184921 
	C825.020691,103.495224 781.550964,78.375778 734.265442,60.011135 
	C704.280762,48.365742 673.570740,39.558266 642.009277,33.431858 
	C611.349060,27.480389 580.367432,24.544781 549.236145,24.283352 
	C528.137512,24.106174 507.008331,25.868280 485.915497,27.139643 
	C459.102356,28.755795 432.841095,34.106232 406.917023,40.735729 
	C379.392212,47.774574 352.632843,57.210144 326.635315,68.848145 
	C284.841248,87.557610 246.073929,111.156120 210.208878,139.557526 
	C183.249893,160.906219 158.772247,184.814240 136.551636,211.075516 
	C107.627319,245.259476 83.492577,282.562744 63.688740,322.660187 
	C49.243401,351.908051 37.624443,382.308868 29.471395,413.896973 
	C25.156605,430.614166 21.550936,447.579437 18.823910,464.624481 
	C15.649561,484.465485 12.637583,504.456482 11.594985,524.488525 
	C9.470270,565.312073 11.483038,606.083008 19.198709,646.307373 
	C23.451797,668.480164 28.316002,690.634766 34.657803,712.283997 
	C43.583977,742.755737 56.185127,771.895508 71.147041,799.951172 
	C83.994781,824.042358 98.453537,847.155701 114.838928,868.974976 
	C137.067230,898.574768 161.647446,926.071960 189.244827,950.869019 
	C212.210327,971.504272 236.832321,989.936401 263.062103,1006.039795 
	C296.839417,1026.776855 332.814331,1043.148315 370.342773,1055.937988 
	C379.883057,1059.189331 389.805359,1059.701294 398.683380,1053.679199 
	C406.956757,1048.067261 410.044495,1039.544312 409.972229,1029.890381 
	C409.742767,999.235291 409.367310,968.581238 408.998108,937.927307 
	C408.979584,936.388367 408.489807,934.854980 408.212311,933.278503 
	C405.308838,933.671326 403.021301,933.980774 399.880127,934.388550 
z"/>
<path fill="#5D44EC" opacity="1.000000" stroke="none" 
	d="
M400.306946,934.339355 
	C403.021301,933.980774 405.308838,933.671326 408.212311,933.278503 
	C408.489807,934.854980 408.979584,936.388367 408.998108,937.927307 
	C409.367310,968.581238 409.742767,999.235291 409.972229,1029.890381 
	C410.044495,1039.544312 406.956757,1048.067261 398.683380,1053.679199 
	C389.805359,1059.701294 379.883057,1059.189331 370.342773,1055.937988 
	C332.814331,1043.148315 296.839417,1026.776855 263.062103,1006.039795 
	C236.832321,989.936401 212.210327,971.504272 189.244827,950.869019 
	C161.647446,926.071960 137.067230,898.574768 114.838928,868.974976 
	C98.453537,847.155701 83.994781,824.042358 71.147041,799.951172 
	C56.185127,771.895508 43.583977,742.755737 34.657803,712.283997 
	C28.316002,690.634766 23.451797,668.480164 19.198709,646.307373 
	C11.483038,606.083008 9.470270,565.312073 11.594985,524.488525 
	C12.637583,504.456482 15.649561,484.465485 18.823910,464.624481 
	C21.550936,447.579437 25.156605,430.614166 29.471395,413.896973 
	C37.624443,382.308868 49.243401,351.908051 63.688740,322.660187 
	C83.492577,282.562744 107.627319,245.259476 136.551636,211.075516 
	C158.772247,184.814240 183.249893,160.906219 210.208878,139.557526 
	C246.073929,111.156120 284.841248,87.557610 326.635315,68.848145 
	C352.632843,57.210144 379.392212,47.774574 406.917023,40.735729 
	C432.841095,34.106232 459.102356,28.755795 485.915497,27.139643 
	C507.008331,25.868280 528.137512,24.106174 549.236145,24.283352 
	C580.367432,24.544781 611.349060,27.480389 642.009277,33.431858 
	C673.570740,39.558266 704.280762,48.365742 734.265442,60.011135 
	C781.550964,78.375778 825.020691,103.495224 865.191467,134.184921 
	C899.568298,160.448166 930.112915,190.829208 956.899536,224.887909 
	C988.321655,264.840576 1013.811462,308.298157 1032.961304,355.359802 
	C1044.238770,383.074707 1053.008911,411.610779 1059.112671,440.981415 
	C1063.994507,464.471863 1067.946167,488.073242 1069.037964,512.028748 
	C1070.037231,533.956238 1070.990234,555.945251 1070.414307,577.866394 
	C1069.952515,595.439087 1067.696777,613.024292 1065.264893,630.468506 
	C1062.881348,647.567017 1060.311646,664.767944 1055.933960,681.427429 
	C1050.461548,702.252747 1043.643799,722.780579 1036.370728,743.065369 
	C1020.216309,788.121277 996.394470,829.117859 968.197693,867.618896 
	C951.956299,889.795837 934.240479,910.834473 914.771606,930.207886 
	C879.578918,965.227844 840.363647,995.023987 796.643799,1018.810120 
	C769.273254,1033.701294 740.663635,1045.667236 711.380005,1056.099854 
	C697.046204,1061.206543 683.264282,1057.376953 677.074341,1046.166504 
	C674.620178,1041.721924 673.411194,1036.129639 673.201294,1030.995850 
	C672.663818,1017.851624 672.998291,1004.671570 672.996643,991.505798 
	C672.992493,958.174622 673.111572,924.842957 672.947510,891.512573 
	C672.862244,874.190063 671.822266,856.954651 667.445129,840.028015 
	C662.774292,821.965698 654.657654,805.903442 641.686218,792.392639 
	C640.571899,791.231995 639.565247,789.967957 637.888428,788.038330 
	C642.744995,787.233521 646.755005,786.630981 650.741028,785.897949 
	C669.517212,782.444946 688.463501,779.701477 707.017517,775.305603 
	C734.898071,768.700073 760.520752,756.415222 784.681152,741.127258 
	C817.479065,720.373840 840.981140,691.837402 855.610168,655.917480 
	C864.477356,634.145020 870.789307,611.710144 874.419556,588.446960 
	C878.598083,561.670349 880.121460,534.769348 878.249268,507.790588 
	C875.388977,466.573486 861.716858,429.125732 835.191650,397.274261 
	C827.309570,387.809479 825.035156,380.487091 829.582153,368.463104 
	C836.191956,350.984619 836.686462,332.123291 835.578491,313.303314 
	C834.612427,296.892639 831.233093,281.051849 826.731201,265.379883 
	C824.853210,258.842407 822.539246,252.408386 819.992432,246.101395 
	C819.410278,244.659836 817.174988,243.336792 815.484253,242.977783 
	C800.430176,239.781113 786.054871,243.417419 771.979370,248.169815 
	C738.733398,259.394958 707.848206,275.466309 678.647217,294.809631 
	C675.098083,297.160645 671.694824,297.501862 667.792786,296.680450 
	C649.252258,292.777710 630.747498,288.678986 612.132446,285.167786 
	C603.655457,283.568878 594.969604,282.580841 586.349243,282.333008 
	C561.072205,281.606262 535.738708,280.297760 510.505615,281.263031 
	C481.920898,282.356476 453.558289,286.564301 425.771454,293.852509 
	C422.071991,294.822845 418.329987,295.631134 414.630005,296.599579 
	C410.362335,297.716675 406.646942,297.097809 402.878479,294.475220 
	C375.131500,275.165131 344.677795,261.118591 312.985504,249.848251 
	C302.299286,246.048035 290.827606,244.252716 279.579865,242.331619 
	C274.803497,241.515839 269.647217,242.498474 264.735870,243.182663 
	C263.421082,243.365829 261.713593,245.269455 261.302917,246.703110 
	C257.056000,261.528137 252.161774,276.248749 249.232803,291.344727 
	C246.876526,303.489105 246.308411,316.101044 246.145065,328.521240 
	C245.915817,345.953156 249.487793,362.945892 255.794739,379.173096 
	C257.618896,383.866577 255.801987,386.320435 253.210114,389.208130 
	C241.023758,402.785217 230.975342,417.821442 223.104950,434.252258 
	C213.862549,453.547363 207.876266,473.822662 205.150970,495.098572 
	C202.084900,519.034729 203.024872,542.912109 205.024277,566.854675 
	C207.576248,597.414124 214.842606,626.766174 226.289276,655.163330 
	C243.894196,698.838074 274.076172,730.780701 315.814423,752.275696 
	C335.240479,762.280029 355.125244,771.061951 376.439026,775.936279 
	C392.612915,779.635132 409.040344,782.236816 425.376312,785.209290 
	C431.196869,786.268494 437.080261,786.982239 443.797668,787.982056 
	C441.347809,790.967957 439.569275,793.319763 437.603180,795.502625 
	C423.603638,811.044983 415.885986,829.491943 412.686859,849.929749 
	C411.644043,856.591980 408.557892,860.171326 401.941162,862.689758 
	C378.388794,871.654297 354.048218,874.170532 329.347382,871.772278 
	C314.786285,870.358521 301.952271,863.221252 290.176331,854.405701 
	C275.471863,843.397827 265.056885,828.877991 255.687973,813.435364 
	C244.342422,794.734802 228.536560,780.964722 209.307358,770.771729 
	C196.091766,763.766418 182.310471,759.585205 167.248840,760.846130 
	C163.652283,761.147278 160.003235,761.946411 156.598129,763.142395 
	C151.667679,764.874023 150.578461,768.932495 153.213120,773.565308 
	C158.029694,782.034973 164.816498,788.732605 173.172546,793.384583 
	C185.869675,800.453308 195.323059,810.632446 203.993378,821.982849 
	C217.158752,839.217712 225.856735,858.745422 234.181046,878.518250 
	C240.351501,893.175049 250.386887,904.695496 263.116486,914.012695 
	C279.030945,925.660767 296.806793,932.603455 316.429596,934.362976 
	C332.982758,935.847229 349.576111,937.512146 366.168365,937.712158 
	C377.390656,937.847473 388.641846,935.580811 400.306946,934.339355 
z"/>
</svg>