<svg version="1.1" id="Layer_1" xmlns="http://www.w3.org/2000/svg" xmlns:xlink="http://www.w3.org/1999/xlink" x="0px" y="0px"
	 width="100%" viewBox="0 0 1080 1080" enable-background="new 0 0 1080 1080" xml:space="preserve">
<path fill="#FFFFFF" opacity="1.000000" stroke="none" 
	d="
M606.000000,1081.000000 
	C404.023254,1081.000000 202.546509,1081.000000 1.034878,1081.000000 
	C1.034878,721.064819 1.034878,361.129578 1.034878,1.097191 
	C360.893646,1.097191 720.787354,1.097191 1080.840576,1.097191 
	C1080.840576,360.999939 1080.840576,720.999939 1080.840576,1081.000000 
	C922.795837,1081.000000 764.647888,1081.000000 606.000000,1081.000000 
M1064.814453,470.500000 
	C1064.814331,383.002930 1064.818237,295.505859 1064.811890,208.008774 
	C1064.809692,176.691193 1058.863892,146.581528 1044.130981,118.847343 
	C1007.516235,49.920937 950.028809,10.985453 871.900879,10.491926 
	C651.915344,9.102298 431.915283,9.953705 211.921051,10.066930 
	C180.545013,10.083078 150.575485,17.348967 123.304016,32.778286 
	C55.468040,71.157692 19.367249,129.491821 19.178179,207.761841 
	C18.654409,424.588287 18.996302,641.416870 19.000530,858.244568 
	C19.000595,861.577515 18.969091,864.914124 19.102781,868.242920 
	C20.152136,894.371399 25.610256,919.617310 37.467579,942.889954 
	C74.905312,1016.369751 135.083481,1055.350830 217.691772,1055.617554 
	C433.683929,1056.314819 649.679810,1055.830933 865.674255,1055.879761 
	C892.821960,1055.885986 919.074219,1051.396484 944.079590,1040.726562 
	C988.546814,1021.752075 1021.882751,990.709351 1043.887939,947.613159 
	C1058.576904,918.845398 1064.861084,888.172668 1064.843384,855.990051 
	C1064.773071,727.826721 1064.814453,599.663330 1064.814453,470.500000 
z"/>
<path fill="#5D44EC" opacity="1.000000" stroke="none" 
	d="
M1064.814453,471.000000 
	C1064.814453,599.663330 1064.773071,727.826721 1064.843384,855.990051 
	C1064.861084,888.172668 1058.576904,918.845398 1043.887939,947.613159 
	C1021.882751,990.709351 988.546814,1021.752075 944.079590,1040.726562 
	C919.074219,1051.396484 892.821960,1055.885986 865.674255,1055.879761 
	C649.679810,1055.830933 433.683929,1056.314819 217.691772,1055.617554 
	C135.083481,1055.350830 74.905312,1016.369751 37.467579,942.889954 
	C25.610256,919.617310 20.152136,894.371399 19.102781,868.242920 
	C18.969091,864.914124 19.000595,861.577515 19.000530,858.244568 
	C18.996302,641.416870 18.654409,424.588287 19.178179,207.761841 
	C19.367249,129.491821 55.468040,71.157692 123.304016,32.778286 
	C150.575485,17.348967 180.545013,10.083078 211.921051,10.066930 
	C431.915283,9.953705 651.915344,9.102298 871.900879,10.491926 
	C950.028809,10.985453 1007.516235,49.920937 1044.130981,118.847343 
	C1058.863892,146.581528 1064.809692,176.691193 1064.811890,208.008774 
	C1064.818237,295.505859 1064.814331,383.002930 1064.814453,471.000000 
M905.595703,714.500061 
	C905.102051,671.192993 905.472168,627.853271 903.838318,584.589233 
	C902.557068,550.663269 894.019226,518.088074 877.819641,487.943268 
	C859.667175,454.164612 833.188416,429.431793 797.422852,414.907715 
	C775.688599,406.081665 753.039612,402.037323 729.719238,401.420013 
	C676.704346,400.016602 631.409485,416.263672 598.081482,459.498535 
	C593.373901,465.605469 588.950562,471.931488 583.936584,478.783417 
	C583.821777,476.468689 583.705383,474.987549 583.681213,473.504883 
	C583.375000,454.680206 582.955017,435.855804 582.880066,417.030090 
	C582.862671,412.658722 581.942688,411.066559 577.133545,411.084076 
	C525.808899,411.271057 474.483398,411.198273 423.158112,411.209229 
	C421.555054,411.209564 419.952026,411.343262 418.942352,411.388306 
	C418.942352,573.819519 418.942352,735.676697 418.942352,897.454712 
	C474.410004,897.454712 528.964172,897.454712 583.862671,897.454712 
	C583.862671,895.067871 583.862732,893.088562 583.862732,891.109253 
	C583.862732,800.790100 583.859680,710.470886 583.872620,620.151733 
	C583.873169,616.153992 583.962708,612.154236 584.104736,608.158752 
	C585.342957,573.343323 614.101379,530.200073 657.778870,526.503296 
	C675.228210,525.026489 692.157837,526.527893 707.309692,536.254944 
	C724.781860,547.471497 733.222473,564.825073 736.730591,584.306152 
	C739.578308,600.119690 741.442932,616.335083 741.527283,632.383850 
	C741.981201,718.701294 741.740417,805.022400 741.754944,891.342224 
	C741.755249,893.417297 741.937744,895.492371 742.036316,897.588745 
	C796.742126,897.588745 850.829590,897.588745 905.595215,897.588745 
	C905.595215,836.710449 905.595215,776.105286 905.595703,714.500061 
M294.500000,897.865173 
	C310.261810,897.865173 326.023651,897.865173 342.121582,897.865173 
	C342.121582,895.287048 342.123108,893.470642 342.121338,891.654175 
	C342.075073,843.826355 342.033875,795.998596 341.980865,748.170776 
	C341.858551,637.849243 341.700043,527.527710 341.708160,417.206177 
	C341.708527,412.444855 340.515717,411.072937 335.662994,411.090057 
	C285.335541,411.267792 235.007217,411.199310 184.679123,411.199249 
	C182.902283,411.199249 181.125427,411.199280 179.758575,411.199280 
	C179.758575,573.704224 179.758575,735.568848 179.758575,897.865051 
	C218.239670,897.865051 255.869827,897.865051 294.500000,897.865173 
M265.804657,183.740555 
	C259.489380,183.789124 253.111984,183.281708 246.869171,183.979095 
	C213.556946,187.700455 187.391220,202.395157 174.400162,234.703445 
	C160.837219,268.433960 170.047180,312.660797 206.495117,334.454681 
	C231.172546,349.210449 257.805664,350.931274 285.145081,343.925323 
	C335.057037,331.135040 358.386749,280.986237 340.283600,234.876953 
	C327.319519,201.857010 300.985199,186.789429 265.804657,183.740555 
z"/>
<path fill="#FFFEFF" opacity="1.000000" stroke="none" 
	d="
M905.595459,715.000122 
	C905.595215,776.105286 905.595215,836.710449 905.595215,897.588745 
	C850.829590,897.588745 796.742126,897.588745 742.036316,897.588745 
	C741.937744,895.492371 741.755249,893.417297 741.754944,891.342224 
	C741.740417,805.022400 741.981201,718.701294 741.527283,632.383850 
	C741.442932,616.335083 739.578308,600.119690 736.730591,584.306152 
	C733.222473,564.825073 724.781860,547.471497 707.309692,536.254944 
	C692.157837,526.527893 675.228210,525.026489 657.778870,526.503296 
	C614.101379,530.200073 585.342957,573.343323 584.104736,608.158752 
	C583.962708,612.154236 583.873169,616.153992 583.872620,620.151733 
	C583.859680,710.470886 583.862732,800.790100 583.862732,891.109253 
	C583.862732,893.088562 583.862671,895.067871 583.862671,897.454712 
	C528.964172,897.454712 474.410004,897.454712 418.942352,897.454712 
	C418.942352,735.676697 418.942352,573.819519 418.942352,411.388306 
	C419.952026,411.343262 421.555054,411.209564 423.158112,411.209229 
	C474.483398,411.198273 525.808899,411.271057 577.133545,411.084076 
	C581.942688,411.066559 582.862671,412.658722 582.880066,417.030090 
	C582.955017,435.855804 583.375000,454.680206 583.681213,473.504883 
	C583.705383,474.987549 583.821777,476.468689 583.936584,478.783417 
	C588.950562,471.931488 593.373901,465.605469 598.081482,459.498535 
	C631.409485,416.263672 676.704346,400.016602 729.719238,401.420013 
	C753.039612,402.037323 775.688599,406.081665 797.422852,414.907715 
	C833.188416,429.431793 859.667175,454.164612 877.819641,487.943268 
	C894.019226,518.088074 902.557068,550.663269 903.838318,584.589233 
	C905.472168,627.853271 905.102051,671.192993 905.595459,715.000122 
z"/>
<path fill="#FEFEFF" opacity="1.000000" stroke="none" 
	d="
M294.000000,897.865112 
	C255.869827,897.865051 218.239670,897.865051 179.758575,897.865051 
	C179.758575,735.568848 179.758575,573.704224 179.758575,411.199280 
	C181.125427,411.199280 182.902283,411.199249 184.679123,411.199249 
	C235.007217,411.199310 285.335541,411.267792 335.662994,411.090057 
	C340.515717,411.072937 341.708527,412.444855 341.708160,417.206177 
	C341.700043,527.527710 341.858551,637.849243 341.980865,748.170776 
	C342.033875,795.998596 342.075073,843.826355 342.121338,891.654175 
	C342.123108,893.470642 342.121582,895.287048 342.121582,897.865173 
	C326.023651,897.865173 310.261810,897.865173 294.000000,897.865112 
z"/>
<path fill="#FEFEFF" opacity="1.000000" stroke="none" 
	d="
M266.261780,183.759705 
	C300.985199,186.789429 327.319519,201.857010 340.283600,234.876953 
	C358.386749,280.986237 335.057037,331.135040 285.145081,343.925323 
	C257.805664,350.931274 231.172546,349.210449 206.495117,334.454681 
	C170.047180,312.660797 160.837219,268.433960 174.400162,234.703445 
	C187.391220,202.395157 213.556946,187.700455 246.869171,183.979095 
	C253.111984,183.281708 259.489380,183.789124 266.261780,183.759705 
z"/>
</svg>