<svg xmlns="http://www.w3.org/2000/svg" version="1.1" xmlns:xlink="http://www.w3.org/1999/xlink" xmlns:svgjs="http://svgjs.dev/svgjs" width="2000" height="1247" viewBox="0 0 2000 1247"><g transform="matrix(1,0,0,1,-1.2121212121212466,225.35036150983524)"><svg viewBox="0 0 396 247" data-background-color="#ffffff" preserveAspectRatio="xMidYMid meet" height="1247" width="2000" xmlns="http://www.w3.org/2000/svg" xmlns:xlink="http://www.w3.org/1999/xlink"><g id="tight-bounds" transform="matrix(1,0,0,1,0.2400000000000091,-0.09999999999999432)"><svg viewBox="0 0 395.52 247.2" height="247.2" width="395.52"><g><svg></svg></g><g><svg viewBox="0 0 395.52 247.2" height="247.2" width="395.52"><g transform="matrix(1,0,0,1,75.54432,52.86693479806139)"><svg viewBox="0 0 244.43135999999998 141.4661304038772" height="141.4661304038772" width="244.43135999999998"><g><svg viewBox="0 0 244.43135999999998 141.4661304038772" height="141.4661304038772" width="244.43135999999998"><g><svg viewBox="0 0 244.43135999999998 141.4661304038772" height="141.4661304038772" width="244.43135999999998"><g><svg viewBox="0 0 244.43135999999998 141.4661304038772" height="141.4661304038772" width="244.43135999999998"><g id="textblocktransform"><svg viewBox="0 0 244.43135999999998 141.4661304038772" height="141.4661304038772" width="244.43135999999998" id="textblock"><g><svg viewBox="0 0 244.43135999999998 141.4661304038772" height="141.4661304038772" width="244.43135999999998"><g transform="matrix(1,0,0,1,0,0)"><svg width="244.43135999999998" viewBox="3.1 -35.83 61.9 35.83" height="141.4661304038772" data-palette-color="#4844ff"><path d="M12.13 0L3.1-35.83 6.83-35.83Q7.45-35.83 7.8-35.5 8.15-35.18 8.28-34.7L8.28-34.7 14.25-9.1Q14.45-8.3 14.64-7.34 14.83-6.38 14.95-5.33L14.95-5.33Q15.3-6.38 15.69-7.33 16.07-8.28 16.48-9.1L16.48-9.1 28.7-34.7Q28.9-35.1 29.36-35.46 29.83-35.83 30.43-35.83L30.43-35.83 34.18-35.83 16.35 0 12.13 0ZM65-20.43L65-20.43Q65-15.85 63.59-12.09 62.17-8.33 59.69-5.64 57.2-2.95 53.76-1.48 50.32 0 46.27 0L46.27 0 33.9 0 38.32-35.83 50.67-35.83Q53.97-35.83 56.64-34.7 59.3-33.58 61.15-31.54 63-29.5 64-26.66 65-23.83 65-20.43ZM60.2-20.33L60.2-20.33Q60.2-23.03 59.51-25.2 58.82-27.38 57.53-28.89 56.25-30.4 54.4-31.21 52.55-32.02 50.22-32.02L50.22-32.02 42.57-32.02 39.07-3.78 46.72-3.78Q49.72-3.78 52.2-4.91 54.67-6.05 56.45-8.19 58.22-10.33 59.21-13.39 60.2-16.45 60.2-20.33Z" opacity="1" transform="matrix(1,0,0,1,0,0)" fill="#4844ff" class="wordmark-text-0" data-fill-palette-color="primary" id="text-0"></path></svg></g></svg></g></svg></g></svg></g><g></g></svg></g></svg></g></svg></g><g><path d="M133.778 19.47A122.216 122.216 0 0 1 261.742 19.47L248.984 19.47A109.458 109.458 0 0 0 146.536 19.47L133.778 19.47M133.778 227.73A122.216 122.216 0 0 0 261.742 227.73L248.984 227.73A109.458 109.458 0 0 1 146.536 227.73L133.778 227.73" fill="#4844ff" stroke="transparent" data-fill-palette-color="tertiary"></path></g></svg></g><defs></defs></svg><rect width="395.52" height="247.2" fill="none" stroke="none" visibility="hidden"></rect></g></svg></g></svg>