<svg version="1.1" id="Layer_1" xmlns="http://www.w3.org/2000/svg" xmlns:xlink="http://www.w3.org/1999/xlink" x="0px" y="0px"
	 width="100%" viewBox="0 0 1080 1080" enable-background="new 0 0 1080 1080" xml:space="preserve">
<path fill="#FFFFFF" opacity="1.000000" stroke="none" 
	d="
M707.000000,1081.000000 
	C471.360474,1081.000000 236.220947,1081.000000 1.040705,1081.000000 
	C1.040705,721.068665 1.040705,361.137360 1.040705,1.103019 
	C360.889740,1.103019 720.779541,1.103019 1080.834717,1.103019 
	C1080.834717,360.999939 1080.834717,720.999939 1080.834717,1081.000000 
	C956.470215,1081.000000 831.985107,1081.000000 707.000000,1081.000000 
M1013.543701,965.979492 
	C1006.100586,950.971863 998.690796,935.947571 991.208069,920.959778 
	C969.879272,878.238586 948.475342,835.554871 927.184692,792.814697 
	C896.517822,731.252197 865.940735,669.644958 835.294983,608.071838 
	C812.922729,563.122009 790.516846,518.188904 768.098145,473.262207 
	C742.321838,421.606903 716.495728,369.976410 690.727600,318.317017 
	C670.445007,277.655060 650.215393,236.966705 629.966614,196.287903 
	C619.087952,174.433334 608.244446,152.561249 597.337341,130.720917 
	C587.154480,110.330872 576.965149,89.943558 566.652649,69.619003 
	C563.862122,64.119209 559.504944,60.031162 553.652893,57.821201 
	C540.905884,53.007404 528.287842,57.366417 520.028198,69.927711 
	C503.590027,94.926727 489.339325,121.168022 476.303864,148.086136 
	C462.823914,175.922104 451.342377,204.574448 442.263855,234.112396 
	C433.424225,262.873169 426.101166,292.051544 422.703827,322.044373 
	C420.646149,340.210022 418.166290,358.376190 417.246918,376.611237 
	C415.812286,405.066498 416.485565,433.571472 420.152618,461.872559 
	C422.883331,482.946808 425.532501,504.095581 429.784149,524.890991 
	C434.133911,546.166382 439.786591,567.231567 445.978333,588.059021 
	C452.687347,610.626343 460.015472,633.061401 468.289246,655.097656 
	C477.097809,678.558350 486.762878,701.740967 497.086670,724.578125 
	C509.591705,752.240417 522.661255,779.676636 536.417664,806.737366 
	C557.937073,849.068909 580.257202,890.993103 602.200867,933.109314 
	C615.475220,958.586731 628.693481,984.093445 641.908447,1009.601807 
	C647.448547,1020.295532 656.051575,1026.085938 668.225281,1026.087891 
	C777.881592,1026.105103 887.537964,1026.133545 997.194275,1026.071167 
	C1018.923035,1026.058716 1032.360474,1004.508118 1022.994446,984.976196 
	C1020.044434,978.824158 1016.898987,972.765808 1013.543701,965.979492 
M297.438538,508.967346 
	C275.861542,551.961853 254.275909,594.952026 232.709579,637.951843 
	C199.161346,704.841614 165.617096,771.733459 132.088516,838.633118 
	C107.714165,887.267212 83.339203,935.901062 59.032516,984.569031 
	C53.995190,994.654907 54.675404,1004.524353 61.210030,1013.789734 
	C67.482185,1022.683044 76.290375,1026.119263 87.015953,1026.109131 
	C177.334351,1026.023804 267.652832,1026.064453 357.971313,1026.063354 
	C377.301422,1026.063110 396.632843,1026.178101 415.961121,1025.986328 
	C426.547394,1025.881348 434.958466,1021.379517 440.095551,1011.875305 
	C450.175598,993.226135 456.982544,973.244934 462.557434,952.921936 
	C469.257355,928.497742 473.235504,903.499268 474.897797,878.219788 
	C477.830780,833.616760 474.576965,789.439758 465.447479,745.645142 
	C459.708832,718.116638 452.009460,691.219482 442.200836,664.872803 
	C424.979980,618.616333 401.850830,575.601013 371.733032,536.483154 
	C362.614746,524.640076 352.947845,513.110352 342.554657,502.384308 
	C328.092926,487.459473 306.992645,490.656342 297.438538,508.967346 
z"/>
<path fill="#725AFF" opacity="1.000000" stroke="none" 
	d="
M1013.693359,966.322021 
	C1016.898987,972.765808 1020.044434,978.824158 1022.994446,984.976196 
	C1032.360474,1004.508118 1018.923035,1026.058716 997.194275,1026.071167 
	C887.537964,1026.133545 777.881592,1026.105103 668.225281,1026.087891 
	C656.051575,1026.085938 647.448547,1020.295532 641.908447,1009.601807 
	C628.693481,984.093445 615.475220,958.586731 602.200867,933.109314 
	C580.257202,890.993103 557.937073,849.068909 536.417664,806.737366 
	C522.661255,779.676636 509.591705,752.240417 497.086670,724.578125 
	C486.762878,701.740967 477.097809,678.558350 468.289246,655.097656 
	C460.015472,633.061401 452.687347,610.626343 445.978333,588.059021 
	C439.786591,567.231567 434.133911,546.166382 429.784149,524.890991 
	C425.532501,504.095581 422.883331,482.946808 420.152618,461.872559 
	C416.485565,433.571472 415.812286,405.066498 417.246918,376.611237 
	C418.166290,358.376190 420.646149,340.210022 422.703827,322.044373 
	C426.101166,292.051544 433.424225,262.873169 442.263855,234.112396 
	C451.342377,204.574448 462.823914,175.922104 476.303864,148.086136 
	C489.339325,121.168022 503.590027,94.926727 520.028198,69.927711 
	C528.287842,57.366417 540.905884,53.007404 553.652893,57.821201 
	C559.504944,60.031162 563.862122,64.119209 566.652649,69.619003 
	C576.965149,89.943558 587.154480,110.330872 597.337341,130.720917 
	C608.244446,152.561249 619.087952,174.433334 629.966614,196.287903 
	C650.215393,236.966705 670.445007,277.655060 690.727600,318.317017 
	C716.495728,369.976410 742.321838,421.606903 768.098145,473.262207 
	C790.516846,518.188904 812.922729,563.122009 835.294983,608.071838 
	C865.940735,669.644958 896.517822,731.252197 927.184692,792.814697 
	C948.475342,835.554871 969.879272,878.238586 991.208069,920.959778 
	C998.690796,935.947571 1006.100586,950.971863 1013.693359,966.322021 
z"/>
<path fill="#6043FF" opacity="1.000000" stroke="none" 
	d="
M297.640320,508.660187 
	C306.992645,490.656342 328.092926,487.459473 342.554657,502.384308 
	C352.947845,513.110352 362.614746,524.640076 371.733032,536.483154 
	C401.850830,575.601013 424.979980,618.616333 442.200836,664.872803 
	C452.009460,691.219482 459.708832,718.116638 465.447479,745.645142 
	C474.576965,789.439758 477.830780,833.616760 474.897797,878.219788 
	C473.235504,903.499268 469.257355,928.497742 462.557434,952.921936 
	C456.982544,973.244934 450.175598,993.226135 440.095551,1011.875305 
	C434.958466,1021.379517 426.547394,1025.881348 415.961121,1025.986328 
	C396.632843,1026.178101 377.301422,1026.063110 357.971313,1026.063354 
	C267.652832,1026.064453 177.334351,1026.023804 87.015953,1026.109131 
	C76.290375,1026.119263 67.482185,1022.683044 61.210030,1013.789734 
	C54.675404,1004.524353 53.995190,994.654907 59.032516,984.569031 
	C83.339203,935.901062 107.714165,887.267212 132.088516,838.633118 
	C165.617096,771.733459 199.161346,704.841614 232.709579,637.951843 
	C254.275909,594.952026 275.861542,551.961853 297.640320,508.660187 
z"/>
</svg>