<svg version="1.1" id="Layer_1" xmlns="http://www.w3.org/2000/svg" xmlns:xlink="http://www.w3.org/1999/xlink" x="0px" y="0px"
	 width="100%" viewBox="0 0 1080 1080" enable-background="new 0 0 1080 1080" xml:space="preserve">
<path fill="#FFFFFF" opacity="1.000000" stroke="none" 
	d="
M569.000000,1081.000000 
	C379.355164,1081.000000 190.210327,1081.000000 1.032743,1081.000000 
	C1.032743,721.063354 1.032743,361.126740 1.032743,1.095056 
	C360.895081,1.095056 720.790161,1.095056 1080.842651,1.095056 
	C1080.842651,360.999939 1080.842651,720.999939 1080.842651,1081.000000 
	C910.459656,1081.000000 739.979797,1081.000000 569.000000,1081.000000 
M961.574402,777.621338 
	C966.948242,769.196777 968.805542,759.818115 968.810913,750.017273 
	C968.835022,706.223877 968.776245,662.430542 968.770569,618.637146 
	C968.758362,523.557190 968.789062,428.477142 968.723083,333.397217 
	C968.714050,320.378326 966.501526,307.944183 956.698669,297.414307 
	C951.780457,293.237396 947.356995,288.203003 941.859131,285.030731 
	C916.916260,270.638885 891.678040,256.758667 866.531921,242.719711 
	C831.936768,223.405365 797.319641,204.130188 762.728882,184.807983 
	C729.448303,166.217682 696.192688,147.582626 662.919678,128.978851 
	C632.116211,111.755844 601.212097,94.710037 570.529602,77.274193 
	C551.504211,66.462738 532.295898,65.141136 513.092285,75.751625 
	C472.877686,97.971214 432.921844,120.658852 392.835114,143.110229 
	C352.746033,165.562912 312.617554,187.945190 272.523560,210.389069 
	C231.415634,233.400543 190.300537,256.399628 149.259964,279.530762 
	C142.467819,283.358948 135.555374,287.240173 129.548904,292.139465 
	C117.686188,301.815399 113.171051,315.176392 113.130661,330.128021 
	C113.039291,363.955994 113.100113,397.784332 113.100052,431.612549 
	C113.099854,537.263245 113.085533,642.913879 113.126839,748.564575 
	C113.130287,757.400696 113.866745,766.160828 118.857849,774.702698 
	C123.019592,782.954651 129.039917,789.493713 137.082336,794.052979 
	C153.012650,803.083923 168.991684,812.028931 184.956573,820.998840 
	C244.031723,854.189880 303.105133,887.384094 362.187164,920.562866 
	C413.284790,949.257996 464.372528,977.970764 515.510315,1006.594116 
	C529.707031,1014.540466 544.551575,1016.988647 559.772583,1009.745972 
	C568.325867,1005.676086 576.575500,1000.945923 584.844910,996.304688 
	C650.758057,959.310425 716.628540,922.239868 782.541687,885.245667 
	C835.678650,855.422241 888.866943,825.690308 942.005859,795.870239 
	C949.781128,791.507019 956.767822,786.198792 961.574402,777.621338 
z"/>
<path fill="#A294F4" opacity="1.000000" stroke="none" 
	d="
M118.515991,774.052490 
	C113.866745,766.160828 113.130287,757.400696 113.126839,748.564575 
	C113.085533,642.913879 113.099854,537.263245 113.100052,431.612549 
	C113.100113,397.784332 113.039291,363.955994 113.130661,330.128021 
	C113.171051,315.176392 117.686188,301.815399 129.548904,292.139465 
	C135.555374,287.240173 142.467819,283.358948 149.259964,279.530762 
	C190.300537,256.399628 231.415634,233.400543 272.523560,210.389069 
	C312.617554,187.945190 352.746033,165.562912 392.835114,143.110229 
	C432.921844,120.658852 472.877686,97.971214 513.092285,75.751625 
	C532.295898,65.141136 551.504211,66.462738 570.529602,77.274193 
	C601.212097,94.710037 632.116211,111.755844 662.919678,128.978851 
	C696.192688,147.582626 729.448303,166.217682 762.728882,184.807983 
	C797.319641,204.130188 831.936768,223.405365 866.531921,242.719711 
	C891.678040,256.758667 916.916260,270.638885 941.859131,285.030731 
	C947.356995,288.203003 951.780457,293.237396 956.509155,297.859802 
	C940.403198,307.270813 924.462524,316.193665 908.576721,325.213135 
	C890.383484,335.542633 872.258240,345.991791 854.067139,356.325104 
	C840.085510,364.267303 826.047668,372.110535 811.765625,379.792053 
	C794.833313,352.060303 774.713074,327.439240 750.640442,305.994019 
	C723.262085,281.603729 692.641663,262.533112 658.696289,248.792191 
	C640.975525,241.618927 622.867126,235.673965 603.864807,232.853806 
	C590.589661,230.883652 577.374695,228.010208 564.028870,227.145554 
	C548.638367,226.148376 533.036926,225.832916 517.703186,227.198410 
	C499.454285,228.823502 481.117920,231.395172 463.312134,235.628769 
	C434.535553,242.470840 407.416656,254.048370 381.871155,269.089508 
	C351.479095,286.984344 324.705719,309.263367 301.761047,336.040588 
	C280.376312,360.997375 263.345490,388.700165 250.553818,418.987793 
	C235.803528,453.913025 227.480774,490.329559 226.192688,528.205078 
	C225.244080,556.098206 226.441605,583.934265 234.044296,611.011108 
	C238.622467,627.316223 243.557281,643.566956 249.359253,659.467224 
	C253.508835,670.839111 259.363831,681.588806 264.130859,692.809570 
	C240.633850,706.291016 217.467636,719.585510 194.292725,732.864990 
	C171.836838,745.732483 149.401169,758.635986 126.869850,771.370178 
	C124.376358,772.779419 121.314346,773.182678 118.515991,774.052490 
z"/>
<path fill="#8D7CF2" opacity="1.000000" stroke="none" 
	d="
M812.034851,379.997742 
	C826.047668,372.110535 840.085510,364.267303 854.067139,356.325104 
	C872.258240,345.991791 890.383484,335.542633 908.576721,325.213135 
	C924.462524,316.193665 940.403198,307.270813 956.634277,298.167908 
	C966.501526,307.944183 968.714050,320.378326 968.723083,333.397217 
	C968.789062,428.477142 968.758362,523.557190 968.770569,618.637146 
	C968.776245,662.430542 968.835022,706.223877 968.810913,750.017273 
	C968.805542,759.818115 966.948242,769.196777 961.136047,777.516357 
	C952.618896,772.839966 944.572998,768.209167 936.454895,763.708618 
	C914.376099,751.468079 892.266113,739.283813 870.169861,727.074768 
	C854.615845,718.480713 839.102112,709.811951 823.476318,701.350464 
	C820.636902,699.812927 817.342834,699.115234 814.196045,697.668335 
	C813.192566,696.453003 812.375549,695.374939 811.293213,694.777649 
	C768.971069,671.419678 726.631714,648.092957 684.264709,624.816589 
	C681.699158,623.407104 678.888550,622.443726 676.018677,620.944824 
	C675.076843,620.008789 674.377075,619.275269 673.529663,618.811279 
	C658.550232,610.608337 643.536316,602.468384 628.562866,594.254700 
	C598.200684,577.599548 567.846008,560.930542 537.539490,544.174622 
	C535.792053,543.208435 534.502625,541.413879 533.193359,539.726685 
	C550.650574,529.597229 567.914368,519.746033 585.178223,509.894928 
	C613.519653,493.722839 641.870300,477.567078 670.176453,461.333466 
	C671.677368,460.472717 672.800964,458.953979 674.473633,457.861633 
	C676.833374,457.306061 678.990295,456.930176 680.780884,455.910706 
	C718.387939,434.498474 755.972717,413.046997 793.508484,391.510132 
	C799.810913,387.894012 805.865662,383.846161 812.034851,379.997742 
z"/>
<path fill="#806DF0" opacity="1.000000" stroke="none" 
	d="
M814.258667,698.029846 
	C817.342834,699.115234 820.636902,699.812927 823.476318,701.350464 
	C839.102112,709.811951 854.615845,718.480713 870.169861,727.074768 
	C892.266113,739.283813 914.376099,751.468079 936.454895,763.708618 
	C944.572998,768.209167 952.618896,772.839966 960.856018,777.718628 
	C956.767822,786.198792 949.781128,791.507019 942.005859,795.870239 
	C888.866943,825.690308 835.678650,855.422241 782.541687,885.245667 
	C716.628540,922.239868 650.758057,959.310425 584.844910,996.304688 
	C576.575500,1000.945923 568.325867,1005.676086 559.772583,1009.745972 
	C544.551575,1016.988647 529.707031,1014.540466 515.510315,1006.594116 
	C464.372528,977.970764 413.284790,949.257996 362.187164,920.562866 
	C303.105133,887.384094 244.031723,854.189880 184.956573,820.998840 
	C168.991684,812.028931 153.012650,803.083923 137.082336,794.052979 
	C129.039917,789.493713 123.019592,782.954651 118.686920,774.377625 
	C121.314346,773.182678 124.376358,772.779419 126.869850,771.370178 
	C149.401169,758.635986 171.836838,745.732483 194.292725,732.864990 
	C217.467636,719.585510 240.633850,706.291016 264.362091,693.053345 
	C265.402618,693.781250 265.951111,694.421509 266.357697,695.141907 
	C285.305725,728.711304 309.496399,757.929565 339.106354,782.619629 
	C370.526855,808.819275 405.533508,828.724915 444.674255,840.723511 
	C460.641846,845.618347 477.157776,848.808533 493.534119,852.251587 
	C502.209564,854.075500 511.103271,855.622742 519.928955,855.802917 
	C535.686218,856.124573 551.571716,856.331299 567.209290,854.710876 
	C584.899902,852.877563 602.663147,850.116516 619.893250,845.770325 
	C674.685242,831.949036 722.017700,804.469360 762.365417,764.968811 
	C782.718567,745.043030 799.627686,722.410339 814.258667,698.029846 
z"/>
<path fill="#FFFFFF" opacity="1.000000" stroke="none" 
	d="
M814.196045,697.668335 
	C799.627686,722.410339 782.718567,745.043030 762.365417,764.968811 
	C722.017700,804.469360 674.685242,831.949036 619.893250,845.770325 
	C602.663147,850.116516 584.899902,852.877563 567.209290,854.710876 
	C551.571716,856.331299 535.686218,856.124573 519.928955,855.802917 
	C511.103271,855.622742 502.209564,854.075500 493.534119,852.251587 
	C477.157776,848.808533 460.641846,845.618347 444.674255,840.723511 
	C405.533508,828.724915 370.526855,808.819275 339.106354,782.619629 
	C309.496399,757.929565 285.305725,728.711304 266.357697,695.141907 
	C265.951111,694.421509 265.402618,693.781250 264.689087,692.859863 
	C259.363831,681.588806 253.508835,670.839111 249.359253,659.467224 
	C243.557281,643.566956 238.622467,627.316223 234.044296,611.011108 
	C226.441605,583.934265 225.244080,556.098206 226.192688,528.205078 
	C227.480774,490.329559 235.803528,453.913025 250.553818,418.987793 
	C263.345490,388.700165 280.376312,360.997375 301.761047,336.040588 
	C324.705719,309.263367 351.479095,286.984344 381.871155,269.089508 
	C407.416656,254.048370 434.535553,242.470840 463.312134,235.628769 
	C481.117920,231.395172 499.454285,228.823502 517.703186,227.198410 
	C533.036926,225.832916 548.638367,226.148376 564.028870,227.145554 
	C577.374695,228.010208 590.589661,230.883652 603.864807,232.853806 
	C622.867126,235.673965 640.975525,241.618927 658.696289,248.792191 
	C692.641663,262.533112 723.262085,281.603729 750.640442,305.994019 
	C774.713074,327.439240 794.833313,352.060303 811.765625,379.792053 
	C805.865662,383.846161 799.810913,387.894012 793.508484,391.510132 
	C755.972717,413.046997 718.387939,434.498474 680.780884,455.910706 
	C678.990295,456.930176 676.833374,457.306061 674.426636,457.528992 
	C672.983032,455.365662 672.065002,453.580994 670.920776,451.955505 
	C649.578613,421.635895 621.432434,400.518799 585.747437,390.090942 
	C552.332764,380.326538 519.003540,381.257996 486.305573,393.341644 
	C450.930450,406.414642 423.804169,429.668640 404.695557,462.083252 
	C390.647797,485.913086 383.828278,512.017212 383.180664,539.531616 
	C382.948853,549.379944 384.533966,559.367249 386.178284,569.141602 
	C388.837311,584.947754 393.686432,600.114136 402.008240,614.362549 
	C409.656006,625.582886 416.264130,637.343811 425.062469,647.136902 
	C448.866425,673.632324 478.754883,689.681763 513.917053,696.276672 
	C529.195190,699.142273 544.403564,699.922913 559.643738,697.812317 
	C575.380676,695.632996 590.701660,691.425171 605.214600,684.764343 
	C635.394836,670.912903 659.378540,650.089355 676.192017,621.272827 
	C678.888550,622.443726 681.699158,623.407104 684.264709,624.816589 
	C726.631714,648.092957 768.971069,671.419678 811.293213,694.777649 
	C812.375549,695.374939 813.192566,696.453003 814.196045,697.668335 
z"/>
<path fill="#A294F4" opacity="1.000000" stroke="none" 
	d="
M401.967560,614.005615 
	C393.686432,600.114136 388.837311,584.947754 386.178284,569.141602 
	C384.533966,559.367249 382.948853,549.379944 383.180664,539.531616 
	C383.828278,512.017212 390.647797,485.913086 404.695557,462.083252 
	C423.804169,429.668640 450.930450,406.414642 486.305573,393.341644 
	C519.003540,381.257996 552.332764,380.326538 585.747437,390.090942 
	C621.432434,400.518799 649.578613,421.635895 670.920776,451.955505 
	C672.065002,453.580994 672.983032,455.365662 674.053223,457.408905 
	C672.800964,458.953979 671.677368,460.472717 670.176453,461.333466 
	C641.870300,477.567078 613.519653,493.722839 585.178223,509.894928 
	C567.914368,519.746033 550.650574,529.597229 532.841064,539.768066 
	C521.185669,546.399231 510.064667,552.691223 498.968536,559.026611 
	C479.070465,570.387512 459.212402,581.818787 439.288635,593.134460 
	C426.894836,600.173462 414.410980,607.053955 401.967560,614.005615 
z"/>
<path fill="#806DF0" opacity="1.000000" stroke="none" 
	d="
M402.008240,614.362549 
	C414.410980,607.053955 426.894836,600.173462 439.288635,593.134460 
	C459.212402,581.818787 479.070465,570.387512 498.968536,559.026611 
	C510.064667,552.691223 521.185669,546.399231 532.647705,540.046326 
	C534.502625,541.413879 535.792053,543.208435 537.539490,544.174622 
	C567.846008,560.930542 598.200684,577.599548 628.562866,594.254700 
	C643.536316,602.468384 658.550232,610.608337 673.529663,618.811279 
	C674.377075,619.275269 675.076843,620.008789 676.018677,620.944824 
	C659.378540,650.089355 635.394836,670.912903 605.214600,684.764343 
	C590.701660,691.425171 575.380676,695.632996 559.643738,697.812317 
	C544.403564,699.922913 529.195190,699.142273 513.917053,696.276672 
	C478.754883,689.681763 448.866425,673.632324 425.062469,647.136902 
	C416.264130,637.343811 409.656006,625.582886 402.008240,614.362549 
z"/>
</svg>