<svg version="1.1" id="Layer_1" xmlns="http://www.w3.org/2000/svg" xmlns:xlink="http://www.w3.org/1999/xlink" x="0px" y="0px"
	 width="100%" viewBox="0 0 1080 1080" enable-background="new 0 0 1080 1080" xml:space="preserve">
<path fill="#FFFFFF" opacity="1.000000" stroke="none" 
	d="
M683.000000,1081.000000 
	C455.359558,1081.000000 228.219101,1081.000000 1.039321,1081.000000 
	C1.039321,721.067749 1.039321,361.135529 1.039321,1.101634 
	C360.890686,1.101634 720.781372,1.101634 1080.836060,1.101634 
	C1080.836060,360.999939 1080.836060,720.999939 1080.836060,1081.000000 
	C948.468445,1081.000000 815.984192,1081.000000 683.000000,1081.000000 
M434.500000,530.811584 
	C299.854034,530.811584 165.208099,530.811646 30.562145,530.811646 
	C29.395657,530.811646 28.212446,530.938660 27.065973,530.787292 
	C24.185228,530.406921 22.681396,531.643677 22.298067,534.464417 
	C21.267834,542.045471 19.652262,549.594299 19.258301,557.207031 
	C16.134424,617.571533 25.688791,675.822876 49.987923,731.289551 
	C78.134811,795.539307 122.143974,845.586182 184.794022,878.204163 
	C234.221191,903.937805 287.504486,914.654968 342.708466,916.707458 
	C384.733856,918.270020 426.636749,916.072266 468.280518,909.971008 
	C540.850098,899.338562 609.722168,877.713257 673.455383,840.813354 
	C737.460144,803.756287 790.557800,754.793274 833.341553,694.560791 
	C859.604919,657.586365 881.049561,617.960999 898.002930,575.917603 
	C899.620056,571.907166 901.601440,570.788391 905.992981,570.643921 
	C919.945190,570.184814 933.998901,569.768311 947.778137,567.738403 
	C975.082886,563.715820 999.326538,552.679138 1019.993958,533.914551 
	C1040.272705,515.502869 1050.916870,491.263885 1061.679932,467.036072 
	C1062.116089,466.054352 1061.284912,463.609741 1060.334961,463.049652 
	C1049.162720,456.462097 1038.388062,448.786774 1026.470337,443.963409 
	C1002.320007,434.189240 976.659851,432.416382 950.825134,433.744629 
	C941.261108,434.236359 931.735107,435.468262 921.992737,436.381287 
	C913.503418,379.777344 877.919495,343.033844 832.328430,312.597931 
	C787.965515,375.618652 774.753296,441.272369 809.874084,512.991333 
	C808.354675,513.832153 806.402771,515.076050 804.320984,516.039185 
	C782.004150,526.364868 758.333252,530.695862 733.954163,530.738586 
	C634.469727,530.912964 534.984741,530.811279 434.500000,530.811584 
M370.505829,510.519470 
	C399.322601,510.519470 428.139832,510.442749 456.955688,510.604309 
	C461.147247,510.627838 462.289734,509.320007 462.268860,505.206299 
	C462.113251,474.558075 462.187927,443.908661 462.172272,413.259644 
	C462.171539,411.807281 461.998749,410.355011 461.883636,408.551331 
	C459.945343,408.461121 458.320496,408.320221 456.695557,408.319550 
	C424.380829,408.306641 392.065582,408.396667 359.751923,408.209229 
	C355.306030,408.183441 354.149567,409.444153 354.181396,413.828522 
	C354.378571,440.978119 354.257996,468.129913 354.301453,495.280884 
	C354.309143,500.082458 352.756348,506.903595 355.231354,509.152740 
	C358.064667,511.727417 364.588593,510.240814 370.505829,510.519470 
M562.499939,510.520691 
	C569.826904,510.520508 577.161316,510.321442 584.477783,510.598541 
	C588.535767,510.752258 589.931824,509.583801 589.908020,505.322388 
	C589.738159,474.849976 589.735718,444.375702 589.909912,413.903320 
	C589.934570,409.586151 588.855652,408.184967 584.362732,408.210541 
	C552.058655,408.394592 519.752625,408.387878 487.448486,408.214172 
	C483.150299,408.191040 481.755341,409.186707 481.785767,413.711517 
	C481.989380,444.016998 482.011444,474.325470 481.773315,504.630463 
	C481.733673,509.676758 483.460236,510.653687 488.064850,510.615692 
	C512.541809,510.413727 537.021240,510.520264 562.499939,510.520691 
M609.178406,440.500000 
	C609.178406,461.982910 609.293152,483.466919 609.082336,504.947754 
	C609.039795,509.280426 610.144958,510.645569 614.629150,510.619751 
	C646.935791,510.433716 679.244324,510.442902 711.551086,510.612030 
	C715.910156,510.634857 717.220520,509.460632 717.192810,505.012329 
	C717.003052,474.537720 717.097656,444.061401 717.079834,413.585632 
	C717.078918,411.989166 716.888855,410.392792 716.793091,408.893890 
	C715.854675,408.622162 715.385986,408.367981 714.917114,408.367554 
	C680.944397,408.336761 646.971558,408.354980 612.999023,408.266968 
	C609.783325,408.258636 609.101440,409.681335 609.137634,412.522003 
	C609.251953,421.513397 609.179016,430.507141 609.178406,440.500000 
M306.499939,510.519745 
	C314.326019,510.519714 322.155762,510.379791 329.976562,510.583069 
	C333.494568,510.674530 334.986511,509.867340 334.967529,505.921509 
	C334.818481,474.950958 334.823853,443.979126 334.963348,413.008514 
	C334.980530,409.191193 333.707794,408.229462 330.072754,408.242371 
	C297.436798,408.358154 264.799927,408.380524 232.164291,408.224304 
	C227.925537,408.204041 226.854691,409.597565 226.874451,413.663849 
	C227.022430,444.134827 227.049316,474.607483 226.852341,505.077911 
	C226.823013,509.616425 228.300949,510.639709 232.568222,510.607819 
	C256.877625,510.425812 281.189117,510.519226 306.499939,510.519745 
M270.500000,387.990417 
	C291.757935,387.990417 313.015839,387.990417 334.460999,387.990417 
	C334.460999,353.709290 334.460999,320.049561 334.460999,286.440308 
	C298.498199,286.440308 262.959808,286.440308 227.352081,286.440308 
	C227.184662,287.448578 226.985718,288.088806 226.985321,288.729187 
	C226.965469,320.530457 226.998764,352.331848 226.902008,384.132812 
	C226.892334,387.311066 228.127914,388.062500 231.039124,388.037262 
	C243.858597,387.926025 256.679565,387.989960 270.500000,387.990417 
M385.500000,387.990204 
	C410.906494,387.990204 436.312988,387.990204 461.845459,387.990204 
	C461.845459,353.681610 461.845459,320.142548 461.845459,286.327759 
	C425.969421,286.327759 390.431000,286.327759 354.679749,286.327759 
	C354.679749,320.279022 354.679749,353.954712 354.679749,387.990204 
	C364.882050,387.990204 374.691040,387.990204 385.500000,387.990204 
M589.765259,287.955688 
	C587.949341,287.320465 586.135315,286.137726 584.317200,286.131378 
	C552.016724,286.019196 519.715698,286.046509 487.414795,286.059998 
	C485.793152,286.060669 484.171570,286.208038 482.305756,286.298981 
	C482.145325,287.543823 481.916504,288.493958 481.915863,289.444244 
	C481.895050,320.912659 481.957123,352.381317 481.816284,383.849121 
	C481.798767,387.767212 483.634949,388.037781 486.695923,388.031647 
	C519.496155,387.965942 552.296631,387.995270 585.097046,387.974365 
	C586.527039,387.973450 587.956909,387.738586 589.805786,387.575806 
	C589.805786,354.406921 589.805786,321.640472 589.765259,287.955688 
M541.500000,163.964401 
	C521.743896,163.964401 501.987732,163.964401 482.327972,163.964401 
	C482.327972,198.279587 482.327972,231.825684 482.327972,265.450897 
	C483.385376,265.601379 484.028625,265.772736 484.671936,265.773041 
	C518.331665,265.789673 551.991638,265.724548 585.650696,265.876282 
	C590.113037,265.896393 589.838562,263.433197 589.835266,260.446686 
	C589.801514,229.953003 589.814697,199.459244 589.814819,168.965515 
	C589.814819,167.392426 589.814880,165.819351 589.814880,163.964386 
	C573.473572,163.964386 557.986816,163.964386 541.500000,163.964401 
M207.261063,507.361816 
	C207.261063,474.484283 207.261063,441.606750 207.261063,408.675262 
	C171.014359,408.675262 135.633011,408.675262 100.174088,408.675262 
	C100.174088,442.595734 100.174088,476.154419 100.174088,509.706116 
	C100.943459,509.928345 101.404663,510.177826 101.866119,510.178284 
	C135.837601,510.212494 169.809158,510.245697 203.780426,510.162842 
	C204.926163,510.160034 206.069016,508.971588 207.261063,507.361816 
z"/>
<path fill="#5C43EC" opacity="1.000000" stroke="none" 
	d="
M435.000000,530.811462 
	C534.984741,530.811279 634.469727,530.912964 733.954163,530.738586 
	C758.333252,530.695862 782.004150,526.364868 804.320984,516.039185 
	C806.402771,515.076050 808.354675,513.832153 809.874084,512.991333 
	C774.753296,441.272369 787.965515,375.618652 832.328430,312.597931 
	C877.919495,343.033844 913.503418,379.777344 921.992737,436.381287 
	C931.735107,435.468262 941.261108,434.236359 950.825134,433.744629 
	C976.659851,432.416382 1002.320007,434.189240 1026.470337,443.963409 
	C1038.388062,448.786774 1049.162720,456.462097 1060.334961,463.049652 
	C1061.284912,463.609741 1062.116089,466.054352 1061.679932,467.036072 
	C1050.916870,491.263885 1040.272705,515.502869 1019.993958,533.914551 
	C999.326538,552.679138 975.082886,563.715820 947.778137,567.738403 
	C933.998901,569.768311 919.945190,570.184814 905.992981,570.643921 
	C901.601440,570.788391 899.620056,571.907166 898.002930,575.917603 
	C881.049561,617.960999 859.604919,657.586365 833.341553,694.560791 
	C790.557800,754.793274 737.460144,803.756287 673.455383,840.813354 
	C609.722168,877.713257 540.850098,899.338562 468.280518,909.971008 
	C426.636749,916.072266 384.733856,918.270020 342.708466,916.707458 
	C287.504486,914.654968 234.221191,903.937805 184.794022,878.204163 
	C122.143974,845.586182 78.134811,795.539307 49.987923,731.289551 
	C25.688791,675.822876 16.134424,617.571533 19.258301,557.207031 
	C19.652262,549.594299 21.267834,542.045471 22.298067,534.464417 
	C22.681396,531.643677 24.185228,530.406921 27.065973,530.787292 
	C28.212446,530.938660 29.395657,530.811646 30.562145,530.811646 
	C165.208099,530.811646 299.854034,530.811584 435.000000,530.811462 
z"/>
<path fill="#5E45EC" opacity="1.000000" stroke="none" 
	d="
M370.007446,510.519104 
	C364.588593,510.240814 358.064667,511.727417 355.231354,509.152740 
	C352.756348,506.903595 354.309143,500.082458 354.301453,495.280884 
	C354.257996,468.129913 354.378571,440.978119 354.181396,413.828522 
	C354.149567,409.444153 355.306030,408.183441 359.751923,408.209229 
	C392.065582,408.396667 424.380829,408.306641 456.695557,408.319550 
	C458.320496,408.320221 459.945343,408.461121 461.883636,408.551331 
	C461.998749,410.355011 462.171539,411.807281 462.172272,413.259644 
	C462.187927,443.908661 462.113251,474.558075 462.268860,505.206299 
	C462.289734,509.320007 461.147247,510.627838 456.955688,510.604309 
	C428.139832,510.442749 399.322601,510.519470 370.007446,510.519104 
z"/>
<path fill="#5E45EC" opacity="1.000000" stroke="none" 
	d="
M561.999878,510.520325 
	C537.021240,510.520264 512.541809,510.413727 488.064850,510.615692 
	C483.460236,510.653687 481.733673,509.676758 481.773315,504.630463 
	C482.011444,474.325470 481.989380,444.016998 481.785767,413.711517 
	C481.755341,409.186707 483.150299,408.191040 487.448486,408.214172 
	C519.752625,408.387878 552.058655,408.394592 584.362732,408.210541 
	C588.855652,408.184967 589.934570,409.586151 589.909912,413.903320 
	C589.735718,444.375702 589.738159,474.849976 589.908020,505.322388 
	C589.931824,509.583801 588.535767,510.752258 584.477783,510.598541 
	C577.161316,510.321442 569.826904,510.520508 561.999878,510.520325 
z"/>
<path fill="#5E45EC" opacity="1.000000" stroke="none" 
	d="
M609.178467,440.000000 
	C609.179016,430.507141 609.251953,421.513397 609.137634,412.522003 
	C609.101440,409.681335 609.783325,408.258636 612.999023,408.266968 
	C646.971558,408.354980 680.944397,408.336761 714.917114,408.367554 
	C715.385986,408.367981 715.854675,408.622162 716.793091,408.893890 
	C716.888855,410.392792 717.078918,411.989166 717.079834,413.585632 
	C717.097656,444.061401 717.003052,474.537720 717.192810,505.012329 
	C717.220520,509.460632 715.910156,510.634857 711.551086,510.612030 
	C679.244324,510.442902 646.935791,510.433716 614.629150,510.619751 
	C610.144958,510.645569 609.039795,509.280426 609.082336,504.947754 
	C609.293152,483.466919 609.178406,461.982910 609.178467,440.000000 
z"/>
<path fill="#5E45EC" opacity="1.000000" stroke="none" 
	d="
M305.999908,510.519409 
	C281.189117,510.519226 256.877625,510.425812 232.568222,510.607819 
	C228.300949,510.639709 226.823013,509.616425 226.852341,505.077911 
	C227.049316,474.607483 227.022430,444.134827 226.874451,413.663849 
	C226.854691,409.597565 227.925537,408.204041 232.164291,408.224304 
	C264.799927,408.380524 297.436798,408.358154 330.072754,408.242371 
	C333.707794,408.229462 334.980530,409.191193 334.963348,413.008514 
	C334.823853,443.979126 334.818481,474.950958 334.967529,505.921509 
	C334.986511,509.867340 333.494568,510.674530 329.976562,510.583069 
	C322.155762,510.379791 314.326019,510.519714 305.999908,510.519409 
z"/>
<path fill="#5E45EC" opacity="1.000000" stroke="none" 
	d="
M270.000000,387.990417 
	C256.679565,387.989960 243.858597,387.926025 231.039124,388.037262 
	C228.127914,388.062500 226.892334,387.311066 226.902008,384.132812 
	C226.998764,352.331848 226.965469,320.530457 226.985321,288.729187 
	C226.985718,288.088806 227.184662,287.448578 227.352081,286.440308 
	C262.959808,286.440308 298.498199,286.440308 334.460999,286.440308 
	C334.460999,320.049561 334.460999,353.709290 334.460999,387.990417 
	C313.015839,387.990417 291.757935,387.990417 270.000000,387.990417 
z"/>
<path fill="#5E45EC" opacity="1.000000" stroke="none" 
	d="
M385.000000,387.990204 
	C374.691040,387.990204 364.882050,387.990204 354.679749,387.990204 
	C354.679749,353.954712 354.679749,320.279022 354.679749,286.327759 
	C390.431000,286.327759 425.969421,286.327759 461.845459,286.327759 
	C461.845459,320.142548 461.845459,353.681610 461.845459,387.990204 
	C436.312988,387.990204 410.906494,387.990204 385.000000,387.990204 
z"/>
<path fill="#5E45EC" opacity="1.000000" stroke="none" 
	d="
M589.785522,288.414856 
	C589.805786,321.640472 589.805786,354.406921 589.805786,387.575806 
	C587.956909,387.738586 586.527039,387.973450 585.097046,387.974365 
	C552.296631,387.995270 519.496155,387.965942 486.695923,388.031647 
	C483.634949,388.037781 481.798767,387.767212 481.816284,383.849121 
	C481.957123,352.381317 481.895050,320.912659 481.915863,289.444244 
	C481.916504,288.493958 482.145325,287.543823 482.305756,286.298981 
	C484.171570,286.208038 485.793152,286.060669 487.414795,286.059998 
	C519.715698,286.046509 552.016724,286.019196 584.317200,286.131378 
	C586.135315,286.137726 587.949341,287.320465 589.785522,288.414856 
z"/>
<path fill="#5E45EC" opacity="1.000000" stroke="none" 
	d="
M542.000000,163.964386 
	C557.986816,163.964386 573.473572,163.964386 589.814880,163.964386 
	C589.814880,165.819351 589.814819,167.392426 589.814819,168.965515 
	C589.814697,199.459244 589.801514,229.953003 589.835266,260.446686 
	C589.838562,263.433197 590.113037,265.896393 585.650696,265.876282 
	C551.991638,265.724548 518.331665,265.789673 484.671936,265.773041 
	C484.028625,265.772736 483.385376,265.601379 482.327972,265.450897 
	C482.327972,231.825684 482.327972,198.279587 482.327972,163.964401 
	C501.987732,163.964401 521.743896,163.964401 542.000000,163.964386 
z"/>
<path fill="#5D44EC" opacity="1.000000" stroke="none" 
	d="
M207.237137,507.848816 
	C206.069016,508.971588 204.926163,510.160034 203.780426,510.162842 
	C169.809158,510.245697 135.837601,510.212494 101.866119,510.178284 
	C101.404663,510.177826 100.943459,509.928345 100.174088,509.706116 
	C100.174088,476.154419 100.174088,442.595734 100.174088,408.675262 
	C135.633011,408.675262 171.014359,408.675262 207.261063,408.675262 
	C207.261063,441.606750 207.261063,474.484283 207.237137,507.848816 
z"/>
</svg>