<svg version="1.1" id="Layer_1" xmlns="http://www.w3.org/2000/svg" xmlns:xlink="http://www.w3.org/1999/xlink" x="0px" y="0px"
	 width="100%" viewBox="0 0 1080 1080" enable-background="new 0 0 1080 1080" xml:space="preserve">
<path fill="#FFFFFF" opacity="1.000000" stroke="none" 
	d="
M1081.000000,413.000000 
	C1081.000000,635.974304 1081.000000,858.448547 1081.000000,1080.961426 
	C721.067383,1080.961426 361.134705,1080.961426 1.101034,1080.961426 
	C1.101034,721.109009 1.101034,361.217987 1.101034,1.163476 
	C360.999939,1.163476 720.999939,1.163476 1081.000000,1.163476 
	C1081.000000,138.198730 1081.000000,275.349365 1081.000000,413.000000 
M1044.055420,565.895935 
	C1044.054565,549.318420 1044.053711,532.740906 1044.598633,515.607361 
	C1044.380615,511.798950 1044.335449,507.971222 1043.913086,504.185608 
	C1042.476440,491.310089 1040.993774,478.437653 1039.265259,465.599518 
	C1039.071533,464.160370 1037.195557,462.947784 1036.025146,460.869873 
	C1034.788208,455.097351 1033.689575,449.290894 1032.284668,443.559570 
	C1029.626709,432.716461 1026.792725,421.916473 1024.796021,411.013214 
	C1029.469116,410.045319 1026.064209,407.089661 1025.645264,405.726746 
	C1017.063232,377.814606 1005.864319,350.984680 991.655823,325.446411 
	C961.299866,270.884705 921.074707,224.667099 872.679810,185.472778 
	C801.670959,127.963615 720.212097,96.821838 629.308472,90.116570 
	C595.174683,87.598770 561.071472,88.482903 527.102295,93.092278 
	C492.498871,97.787704 458.871857,106.235336 426.342102,118.975464 
	C378.082489,137.876114 334.800629,164.911224 296.000305,199.151398 
	C230.593292,256.871216 183.187698,326.364532 158.132965,411.366333 
	C154.412338,428.225464 150.691727,445.084595 146.693893,462.698669 
	C144.830322,480.409119 142.966766,498.119568 141.037064,516.767151 
	C141.049438,533.552673 141.061813,550.338257 141.056213,568.012390 
	C143.033859,585.681946 145.011520,603.351562 146.981155,621.858276 
	C147.326187,623.973083 147.535507,626.120667 148.038025,628.197388 
	C151.565079,642.773376 155.152573,657.334778 158.606781,672.726685 
	C164.756134,694.737000 173.053299,715.938232 182.983643,736.491333 
	C213.813324,800.300598 258.278076,853.181274 313.141968,897.512573 
	C384.154816,954.892578 465.497711,986.282959 556.456665,992.871033 
	C589.602600,995.271790 622.662354,994.312317 655.661438,990.057434 
	C698.715088,984.506226 740.295288,973.557922 779.480774,954.912476 
	C876.255676,908.864807 949.004944,837.577820 999.016418,743.010071 
	C1010.931335,720.479980 1020.324463,696.825378 1026.979614,671.329407 
	C1028.717896,664.802246 1030.710571,658.330078 1032.135010,651.735107 
	C1034.320679,641.616089 1036.115234,631.412537 1038.646118,620.687927 
	C1040.098267,610.204956 1041.799194,599.748535 1042.918335,589.230103 
	C1043.710327,581.787170 1043.715088,574.260376 1044.055420,565.895935 
M187.154709,289.702728 
	C187.726486,288.884033 188.273178,288.046417 188.873688,287.249390 
	C203.744705,267.511597 217.969940,247.238068 233.723999,228.231827 
	C244.393356,215.359940 256.859863,203.888443 269.176208,192.497314 
	C280.367401,182.146790 292.121277,172.336121 304.191315,163.018372 
	C331.376740,142.031921 360.756042,124.567520 391.884125,110.037338 
	C418.749451,97.496964 446.432892,87.198586 475.208099,80.037567 
	C491.032257,76.099556 507.026978,72.847046 522.944702,69.285095 
	C367.579346,63.101440 181.336624,141.589096 85.425110,329.551025 
	C12.296079,472.865143 12.062307,663.351196 124.428253,816.855896 
	C222.492111,950.822327 357.385406,1013.999084 522.517151,1013.926270 
	C517.823608,1012.292542 512.813660,1011.377869 507.811401,1010.422729 
	C481.356903,1005.371155 455.476288,998.247620 430.200562,988.934021 
	C403.464050,979.082031 377.752808,967.019836 353.151093,952.670227 
	C326.119385,936.903198 300.931580,918.605896 277.255005,898.064758 
	C256.703339,880.234802 237.726364,860.909851 220.783112,839.773071 
	C207.935852,823.746216 196.278992,806.676758 185.110245,789.412720 
	C166.618011,760.828491 152.165512,730.153503 140.904541,698.016052 
	C131.342148,670.726196 123.646767,642.920959 119.942924,614.192810 
	C117.531776,595.491211 115.349777,576.716675 114.239891,557.905518 
	C113.459290,544.675354 114.685799,531.329224 114.961975,518.033813 
	C115.466080,493.765198 119.016815,469.900909 123.896202,446.157928 
	C131.354538,409.865936 142.669769,374.846771 158.904037,341.579590 
	C167.424606,324.119293 177.478836,307.407379 187.154709,289.702728 
z"/>
<path fill="#5C43EC" opacity="1.000000" stroke="none" 
	d="
M158.328766,410.518768 
	C183.187698,326.364532 230.593292,256.871216 296.000305,199.151398 
	C334.800629,164.911224 378.082489,137.876114 426.342102,118.975464 
	C458.871857,106.235336 492.498871,97.787704 527.102295,93.092278 
	C561.071472,88.482903 595.174683,87.598770 629.308472,90.116570 
	C720.212097,96.821838 801.670959,127.963615 872.679810,185.472778 
	C921.074707,224.667099 961.299866,270.884705 991.655823,325.446411 
	C1005.864319,350.984680 1017.063232,377.814606 1025.645264,405.726746 
	C1026.064209,407.089661 1029.469116,410.045319 1023.954285,410.942841 
	C1020.447021,410.849304 1017.781433,410.805908 1015.115906,410.805878 
	C731.846069,410.802795 448.576233,410.803711 165.306396,410.791290 
	C162.980515,410.791168 160.654648,410.613525 158.328766,410.518768 
z"/>
<path fill="#5C43EC" opacity="1.000000" stroke="none" 
	d="
M1026.918945,672.134888 
	C1020.324463,696.825378 1010.931335,720.479980 999.016418,743.010071 
	C949.004944,837.577820 876.255676,908.864807 779.480774,954.912476 
	C740.295288,973.557922 698.715088,984.506226 655.661438,990.057434 
	C622.662354,994.312317 589.602600,995.271790 556.456665,992.871033 
	C465.497711,986.282959 384.154816,954.892578 313.141968,897.512573 
	C258.278076,853.181274 213.813324,800.300598 182.983643,736.491333 
	C173.053299,715.938232 164.756134,694.737000 159.152069,672.356812 
	C162.029816,671.997742 164.362289,672.017944 166.694763,672.017944 
	C399.954315,672.017029 633.213867,672.007202 866.473389,672.018005 
	C919.955261,672.020508 973.437073,672.094055 1026.918945,672.134888 
M520.280823,839.996399 
	C519.538452,840.043274 518.796082,840.090149 518.053711,840.137024 
	C567.985718,853.093628 617.891418,853.142151 668.787476,840.659485 
	C667.531006,840.223877 667.264954,840.050964 666.998840,840.050842 
	C618.371155,840.027710 569.743469,840.016785 520.280823,839.996399 
z"/>
<path fill="#DAD3FF" opacity="1.000000" stroke="none" 
	d="
M186.997589,290.030090 
	C177.478836,307.407379 167.424606,324.119293 158.904037,341.579590 
	C142.669769,374.846771 131.354538,409.865936 123.896202,446.157928 
	C119.016815,469.900909 115.466080,493.765198 114.961975,518.033813 
	C114.685799,531.329224 113.459290,544.675354 114.239891,557.905518 
	C115.349777,576.716675 117.531776,595.491211 119.942924,614.192810 
	C123.646767,642.920959 131.342148,670.726196 140.904541,698.016052 
	C152.165512,730.153503 166.618011,760.828491 185.110245,789.412720 
	C196.278992,806.676758 207.935852,823.746216 220.783112,839.773071 
	C237.726364,860.909851 256.703339,880.234802 277.255005,898.064758 
	C300.931580,918.605896 326.119385,936.903198 353.151093,952.670227 
	C377.752808,967.019836 403.464050,979.082031 430.200562,988.934021 
	C455.476288,998.247620 481.356903,1005.371155 507.811401,1010.422729 
	C512.813660,1011.377869 517.823608,1012.292542 522.517151,1013.926270 
	C357.385406,1013.999084 222.492111,950.822327 124.428253,816.855896 
	C12.062307,663.351196 12.296079,472.865143 85.425110,329.551025 
	C181.336624,141.589096 367.579346,63.101440 522.944702,69.285278 
	C507.026978,72.847046 491.032257,76.099556 475.208099,80.037567 
	C446.432892,87.198586 418.749451,97.496964 391.884125,110.037338 
	C360.756042,124.567520 331.376740,142.031921 304.191315,163.018372 
	C292.121277,172.336121 280.367401,182.146790 269.176208,192.497314 
	C256.859863,203.888443 244.393356,215.359940 233.723999,228.231827 
	C217.969940,247.238068 203.744705,267.511597 188.873688,287.249390 
	C188.273178,288.046417 187.726486,288.884033 186.997589,290.030090 
z"/>
<path fill="#5C43EC" opacity="1.000000" stroke="none" 
	d="
M1036.099609,461.630127 
	C1037.195557,462.947784 1039.071533,464.160370 1039.265259,465.599518 
	C1040.993774,478.437653 1042.476440,491.310089 1043.913086,504.185608 
	C1044.335449,507.971222 1044.380615,511.798950 1043.857910,515.813171 
	C1040.951782,516.005615 1038.786377,515.980591 1036.621094,515.980591 
	C740.778564,515.978821 444.936005,515.979309 149.093460,515.972839 
	C146.430038,515.972778 143.766617,515.879700 141.103210,515.830078 
	C142.966766,498.119568 144.830322,480.409119 147.303192,462.315857 
	C442.319519,461.935608 736.726501,461.938599 1031.133545,461.927826 
	C1032.788940,461.927765 1034.444214,461.733643 1036.099609,461.630127 
z"/>
<path fill="#5C43EC" opacity="1.000000" stroke="none" 
	d="
M146.989166,621.021118 
	C145.011520,603.351562 143.033859,585.681946 141.525833,567.513550 
	C144.493820,566.992554 146.992203,566.951050 149.490570,566.951050 
	C445.355255,566.948120 741.219910,566.948730 1037.084595,566.940918 
	C1039.413452,566.940857 1041.742310,566.830078 1044.071167,566.770996 
	C1043.715088,574.260376 1043.710327,581.787170 1042.918335,589.230103 
	C1041.799194,599.748535 1040.098267,610.204956 1037.893921,620.876709 
	C1036.142456,621.047302 1035.143188,621.013245 1034.143921,621.013245 
	C738.425659,621.014343 442.707428,621.017761 146.989166,621.021118 
z"/>
<path fill="#DAD3FF" opacity="1.000000" stroke="none" 
	d="
M1044.063232,566.333496 
	C1041.742310,566.830078 1039.413452,566.940857 1037.084595,566.940918 
	C741.219910,566.948730 445.355255,566.948120 149.490570,566.951050 
	C146.992203,566.951050 144.493820,566.992554 141.534821,567.069214 
	C141.061813,550.338257 141.049438,533.552673 141.070129,516.298584 
	C143.766617,515.879700 146.430038,515.972778 149.093460,515.972839 
	C444.936005,515.979309 740.778564,515.978821 1036.621094,515.980591 
	C1038.786377,515.980591 1040.951782,516.005615 1043.584961,516.091187 
	C1044.053711,532.740906 1044.054565,549.318420 1044.063232,566.333496 
z"/>
<path fill="#DAD3FF" opacity="1.000000" stroke="none" 
	d="
M146.985168,621.439697 
	C442.707428,621.017761 738.425659,621.014343 1034.143921,621.013245 
	C1035.143188,621.013245 1036.142456,621.047302 1037.608765,621.155151 
	C1036.115234,631.412537 1034.320679,641.616089 1032.135010,651.735107 
	C1030.710571,658.330078 1028.717896,664.802246 1026.949219,671.732178 
	C973.437073,672.094055 919.955261,672.020508 866.473389,672.018005 
	C633.213867,672.007202 399.954315,672.017029 166.694763,672.017944 
	C164.362289,672.017944 162.029816,671.997742 159.209045,671.943909 
	C155.152573,657.334778 151.565079,642.773376 148.038025,628.197388 
	C147.535507,626.120667 147.326187,623.973083 146.985168,621.439697 
z"/>
<path fill="#DAD3FF" opacity="1.000000" stroke="none" 
	d="
M1036.062378,461.250000 
	C1034.444214,461.733643 1032.788940,461.927765 1031.133545,461.927826 
	C736.726501,461.938599 442.319519,461.935608 147.441803,461.938385 
	C150.691727,445.084595 154.412338,428.225464 158.230865,410.942566 
	C160.654648,410.613525 162.980515,410.791168 165.306396,410.791290 
	C448.576233,410.803711 731.846069,410.802795 1015.115906,410.805878 
	C1017.781433,410.805908 1020.447021,410.849304 1023.572205,410.985535 
	C1026.792725,421.916473 1029.626709,432.716461 1032.284668,443.559570 
	C1033.689575,449.290894 1034.788208,455.097351 1036.062378,461.250000 
z"/>
<path fill="#D6CEFE" opacity="1.000000" stroke="none" 
	d="
M520.698303,840.000977 
	C569.743469,840.016785 618.371155,840.027710 666.998840,840.050842 
	C667.264954,840.050964 667.531006,840.223877 668.787476,840.659485 
	C617.891418,853.142151 567.985718,853.093628 518.053711,840.137024 
	C518.796082,840.090149 519.538452,840.043274 520.698303,840.000977 
z"/>
</svg>