<svg version="1.1" id="Layer_1" xmlns="http://www.w3.org/2000/svg" xmlns:xlink="http://www.w3.org/1999/xlink" x="0px" y="0px"
	 width="100%" viewBox="0 0 1080 1080" enable-background="new 0 0 1080 1080" xml:space="preserve">
<path fill="#FFFFFF" opacity="1.000000" stroke="none" 
	d="
M1.000000,400.000000 
	C1.000000,266.682007 1.000000,133.863983 1.000000,1.022992 
	C360.943115,1.022992 720.886230,1.022992 1080.914673,1.022992 
	C1080.914673,360.901550 1080.914673,720.803162 1080.914673,1080.852295 
	C721.000061,1080.852295 361.000031,1080.852295 1.000000,1080.852295 
	C1.000000,854.113281 1.000000,627.306641 1.000000,400.000000 
M511.900970,1014.403381 
	C539.305298,988.079773 557.727051,956.388306 567.410828,919.769043 
	C571.927185,902.690308 573.767761,885.117432 573.759033,867.393311 
	C573.731018,810.232178 573.746338,753.070984 573.762756,695.909851 
	C573.763306,694.013794 573.956238,692.117737 574.118103,689.144897 
	C576.552673,690.957153 578.130188,692.028503 579.594666,693.236694 
	C610.406372,718.655090 645.457153,733.762512 685.332031,738.177795 
	C712.190735,741.151855 738.379395,739.027283 764.359070,731.962402 
	C794.639954,723.727783 821.346985,708.917664 844.289368,687.738770 
	C879.778076,654.977905 900.947876,614.611938 907.338745,566.486572 
	C911.429504,535.681763 908.368896,505.641510 898.231873,476.514801 
	C884.221313,436.257782 859.681702,403.592255 824.691650,378.968475 
	C823.279053,377.974365 822.106750,376.638824 820.506775,375.173187 
	C821.819336,374.201721 822.571350,373.615936 823.352173,373.071503 
	C840.821167,360.891357 856.055664,346.407349 868.926147,329.401428 
	C888.564575,303.452881 901.067078,274.360382 906.437866,242.391251 
	C909.643921,223.306763 910.035950,204.049866 907.426086,184.680603 
	C905.032837,166.919373 900.681519,149.768555 893.772278,133.349838 
	C880.419250,101.618599 860.219666,74.901375 832.981323,53.761150 
	C798.987366,27.377678 760.566040,12.268323 717.342041,12.123416 
	C599.854736,11.729543 482.365265,11.966002 364.876678,12.004571 
	C340.075714,12.012712 316.442963,17.783104 293.710144,27.357706 
	C260.935272,41.161804 233.964920,62.572876 212.548920,90.846451 
	C189.597000,121.147797 176.672241,155.558838 173.485565,193.305008 
	C171.037903,222.297485 174.860291,250.684998 185.073929,278.144257 
	C196.425812,308.663666 213.949310,334.949615 238.135635,356.697693 
	C245.373337,363.205780 253.252304,369.000702 260.869354,375.148102 
	C260.659943,375.672333 260.603027,376.268219 260.275543,376.554108 
	C259.027863,377.643158 257.739655,378.699036 256.383423,379.648438 
	C238.637161,392.071289 223.224960,406.997650 210.731491,424.611267 
	C181.272095,466.143921 168.734436,512.332458 174.197739,563.158386 
	C177.318939,592.195251 186.559769,619.158386 201.727905,644.116760 
	C215.922287,667.472778 234.262009,686.944824 256.442169,702.846130 
	C261.867157,706.735413 261.805267,706.998840 256.279083,711.069336 
	C251.194885,714.814331 246.054077,718.536072 241.338058,722.718811 
	C201.373047,758.164734 178.427872,802.555420 173.537445,855.690979 
	C170.241714,891.499695 176.339417,926.159729 192.630005,958.350403 
	C220.776794,1013.969238 265.017609,1049.922119 325.854767,1065.096436 
	C355.681427,1072.535767 385.590546,1072.609619 415.383026,1066.096313 
	C452.067993,1058.076050 484.163300,1040.916382 511.900970,1014.403381 
z"/>
<path fill="#5E45EC" opacity="1.000000" stroke="none" 
	d="
M511.643463,1014.645996 
	C484.163300,1040.916382 452.067993,1058.076050 415.383026,1066.096313 
	C385.590546,1072.609619 355.681427,1072.535767 325.854767,1065.096436 
	C265.017609,1049.922119 220.776794,1013.969238 192.630005,958.350403 
	C176.339417,926.159729 170.241714,891.499695 173.537445,855.690979 
	C178.427872,802.555420 201.373047,758.164734 241.338058,722.718811 
	C246.054077,718.536072 251.194885,714.814331 256.279083,711.069336 
	C261.805267,706.998840 261.867157,706.735413 256.442169,702.846130 
	C234.262009,686.944824 215.922287,667.472778 201.727905,644.116760 
	C186.559769,619.158386 177.318939,592.195251 174.197739,563.158386 
	C168.734436,512.332458 181.272095,466.143921 210.731491,424.611267 
	C223.224960,406.997650 238.637161,392.071289 256.383423,379.648438 
	C257.739655,378.699036 259.027863,377.643158 260.275543,376.554108 
	C260.603027,376.268219 260.659943,375.672333 260.869354,375.148102 
	C253.252304,369.000702 245.373337,363.205780 238.135635,356.697693 
	C213.949310,334.949615 196.425812,308.663666 185.073929,278.144257 
	C174.860291,250.684998 171.037903,222.297485 173.485565,193.305008 
	C176.672241,155.558838 189.597000,121.147797 212.548920,90.846451 
	C233.964920,62.572876 260.935272,41.161804 293.710144,27.357706 
	C316.442963,17.783104 340.075714,12.012712 364.876678,12.004571 
	C482.365265,11.966002 599.854736,11.729543 717.342041,12.123416 
	C760.566040,12.268323 798.987366,27.377678 832.981323,53.761150 
	C860.219666,74.901375 880.419250,101.618599 893.772278,133.349838 
	C900.681519,149.768555 905.032837,166.919373 907.426086,184.680603 
	C910.035950,204.049866 909.643921,223.306763 906.437866,242.391251 
	C901.067078,274.360382 888.564575,303.452881 868.926147,329.401428 
	C856.055664,346.407349 840.821167,360.891357 823.352173,373.071503 
	C822.571350,373.615936 821.819336,374.201721 820.506775,375.173187 
	C822.106750,376.638824 823.279053,377.974365 824.691650,378.968475 
	C859.681702,403.592255 884.221313,436.257782 898.231873,476.514801 
	C908.368896,505.641510 911.429504,535.681763 907.338745,566.486572 
	C900.947876,614.611938 879.778076,654.977905 844.289368,687.738770 
	C821.346985,708.917664 794.639954,723.727783 764.359070,731.962402 
	C738.379395,739.027283 712.190735,741.151855 685.332031,738.177795 
	C645.457153,733.762512 610.406372,718.655090 579.594666,693.236694 
	C578.130188,692.028503 576.552673,690.957153 574.118103,689.144897 
	C573.956238,692.117737 573.763306,694.013794 573.762756,695.909851 
	C573.746338,753.070984 573.731018,810.232178 573.759033,867.393311 
	C573.767761,885.117432 571.927185,902.690308 567.410828,919.769043 
	C557.727051,956.388306 539.305298,988.079773 511.643463,1014.645996 
M409.500000,342.927765 
	C440.496399,342.927704 471.493103,342.862946 502.488831,343.004517 
	C506.653198,343.023529 508.340088,342.137482 508.333038,337.511017 
	C508.203552,252.521133 508.204529,167.530960 508.329346,82.541061 
	C508.336182,77.886337 506.923798,76.648788 502.348328,76.665665 
	C458.520721,76.827385 414.688080,76.431648 370.866852,76.985863 
	C359.198425,77.133430 347.358917,79.116364 335.955353,81.784195 
	C308.599670,88.183990 286.001709,103.186005 268.765350,124.952103 
	C233.832932,169.064743 227.544785,217.876862 251.981613,268.487244 
	C273.373688,312.791656 310.427673,337.397247 359.544983,342.234253 
	C375.729126,343.828033 392.174225,342.772034 409.500000,342.927765 
M508.238739,652.499878 
	C508.238678,573.184143 508.197693,493.868378 508.336761,414.552887 
	C508.345428,409.615540 507.138916,407.936035 501.949310,407.959351 
	C458.626373,408.154266 415.302094,408.014923 371.978485,408.103729 
	C358.791962,408.130768 345.694794,409.501007 333.069427,413.464081 
	C298.516266,424.310242 272.006958,445.456177 254.423050,477.099579 
	C237.705338,507.184235 233.808731,539.424255 241.742737,572.781006 
	C248.189957,599.886841 262.312561,622.674072 283.352173,641.076416 
	C306.419556,661.252319 333.148499,673.293640 363.834747,673.829285 
	C410.477203,674.643372 457.143127,674.084167 503.798767,674.217651 
	C507.405304,674.227966 508.417297,672.859680 508.291199,669.494324 
	C508.091675,664.169678 508.238708,658.832031 508.238739,652.499878 
M839.104736,174.418762 
	C838.894531,173.442078 838.748901,172.446228 838.464966,171.491470 
	C821.927795,115.881920 770.334778,77.083076 712.114014,76.808235 
	C668.123779,76.600571 624.131714,76.760750 580.140503,76.765366 
	C573.793335,76.766037 573.751221,76.806053 573.750854,83.212143 
	C573.745483,167.861938 573.785278,252.511795 573.646667,337.161377 
	C573.638855,341.910553 575.171570,343.028625 579.658875,343.013794 
	C623.482971,342.868774 667.310608,343.192078 711.130371,342.731262 
	C722.003601,342.616943 733.120300,341.215790 743.663635,338.568481 
	C781.680298,329.022919 809.853394,306.338074 828.515564,271.984222 
	C837.186035,256.023468 841.950806,238.878906 843.407227,220.657074 
	C844.643982,205.183624 843.319885,190.119843 839.104736,174.418762 
M262.832855,795.344971 
	C246.716187,817.372192 238.847168,842.238403 238.003326,869.322144 
	C237.432037,887.657776 240.497208,905.545898 247.802017,922.415344 
	C265.819855,964.025146 297.019409,990.733704 340.841156,1001.981140 
	C363.446014,1007.782898 386.259827,1006.790710 408.913544,1000.564880 
	C432.270844,994.145691 452.381561,982.236328 469.160370,965.110596 
	C495.107452,938.626953 508.412506,906.717407 508.268768,869.354492 
	C508.109772,828.024475 508.155975,786.692993 508.347473,745.363220 
	C508.369537,740.600403 506.850861,739.554077 502.376953,739.570007 
	C459.880280,739.721436 417.381989,739.811890 374.886017,739.579651 
	C359.612579,739.496155 344.688538,741.012939 330.183044,745.878601 
	C302.708252,755.094543 280.279785,771.229370 262.832855,795.344971 
M576.582092,512.255920 
	C572.456543,533.288574 572.372131,554.224426 577.948181,575.055054 
	C587.953491,612.432434 610.265076,640.515747 644.027588,658.642761 
	C679.557922,677.718872 717.429993,679.778137 755.224976,666.667236 
	C807.923584,648.386475 842.867737,599.753113 843.959839,543.617004 
	C844.462891,517.758118 837.950439,493.601898 824.255859,471.507019 
	C806.207520,442.387756 780.665039,422.790009 747.906189,413.305908 
	C722.676331,406.001617 696.992249,406.014191 671.516235,412.851166 
	C641.468567,420.914978 617.557129,438.060120 599.039429,462.831665 
	C588.149292,477.399567 580.983948,493.766541 576.582092,512.255920 
z"/>
<path fill="#FEFEFF" opacity="1.000000" stroke="none" 
	d="
M409.000000,342.927704 
	C392.174225,342.772034 375.729126,343.828033 359.544983,342.234253 
	C310.427673,337.397247 273.373688,312.791656 251.981613,268.487244 
	C227.544785,217.876862 233.832932,169.064743 268.765350,124.952103 
	C286.001709,103.186005 308.599670,88.183990 335.955353,81.784195 
	C347.358917,79.116364 359.198425,77.133430 370.866852,76.985863 
	C414.688080,76.431648 458.520721,76.827385 502.348328,76.665665 
	C506.923798,76.648788 508.336182,77.886337 508.329346,82.541061 
	C508.204529,167.530960 508.203552,252.521133 508.333038,337.511017 
	C508.340088,342.137482 506.653198,343.023529 502.488831,343.004517 
	C471.493103,342.862946 440.496399,342.927704 409.000000,342.927704 
z"/>
<path fill="#FEFEFF" opacity="1.000000" stroke="none" 
	d="
M508.238892,652.999878 
	C508.238708,658.832031 508.091675,664.169678 508.291199,669.494324 
	C508.417297,672.859680 507.405304,674.227966 503.798767,674.217651 
	C457.143127,674.084167 410.477203,674.643372 363.834747,673.829285 
	C333.148499,673.293640 306.419556,661.252319 283.352173,641.076416 
	C262.312561,622.674072 248.189957,599.886841 241.742737,572.781006 
	C233.808731,539.424255 237.705338,507.184235 254.423050,477.099579 
	C272.006958,445.456177 298.516266,424.310242 333.069427,413.464081 
	C345.694794,409.501007 358.791962,408.130768 371.978485,408.103729 
	C415.302094,408.014923 458.626373,408.154266 501.949310,407.959351 
	C507.138916,407.936035 508.345428,409.615540 508.336761,414.552887 
	C508.197693,493.868378 508.238678,573.184143 508.238892,652.999878 
z"/>
<path fill="#FEFEFF" opacity="1.000000" stroke="none" 
	d="
M839.206177,174.813782 
	C843.319885,190.119843 844.643982,205.183624 843.407227,220.657074 
	C841.950806,238.878906 837.186035,256.023468 828.515564,271.984222 
	C809.853394,306.338074 781.680298,329.022919 743.663635,338.568481 
	C733.120300,341.215790 722.003601,342.616943 711.130371,342.731262 
	C667.310608,343.192078 623.482971,342.868774 579.658875,343.013794 
	C575.171570,343.028625 573.638855,341.910553 573.646667,337.161377 
	C573.785278,252.511795 573.745483,167.861938 573.750854,83.212143 
	C573.751221,76.806053 573.793335,76.766037 580.140503,76.765366 
	C624.131714,76.760750 668.123779,76.600571 712.114014,76.808235 
	C770.334778,77.083076 821.927795,115.881920 838.464966,171.491470 
	C838.748901,172.446228 838.894531,173.442078 839.206177,174.813782 
z"/>
<path fill="#FEFEFF" opacity="1.000000" stroke="none" 
	d="
M263.068176,795.075623 
	C280.279785,771.229370 302.708252,755.094543 330.183044,745.878601 
	C344.688538,741.012939 359.612579,739.496155 374.886017,739.579651 
	C417.381989,739.811890 459.880280,739.721436 502.376953,739.570007 
	C506.850861,739.554077 508.369537,740.600403 508.347473,745.363220 
	C508.155975,786.692993 508.109772,828.024475 508.268768,869.354492 
	C508.412506,906.717407 495.107452,938.626953 469.160370,965.110596 
	C452.381561,982.236328 432.270844,994.145691 408.913544,1000.564880 
	C386.259827,1006.790710 363.446014,1007.782898 340.841156,1001.981140 
	C297.019409,990.733704 265.819855,964.025146 247.802017,922.415344 
	C240.497208,905.545898 237.432037,887.657776 238.003326,869.322144 
	C238.847168,842.238403 246.716187,817.372192 263.068176,795.075623 
z"/>
<path fill="#FEFEFF" opacity="1.000000" stroke="none" 
	d="
M576.675415,511.847626 
	C580.983948,493.766541 588.149292,477.399567 599.039429,462.831665 
	C617.557129,438.060120 641.468567,420.914978 671.516235,412.851166 
	C696.992249,406.014191 722.676331,406.001617 747.906189,413.305908 
	C780.665039,422.790009 806.207520,442.387756 824.255859,471.507019 
	C837.950439,493.601898 844.462891,517.758118 843.959839,543.617004 
	C842.867737,599.753113 807.923584,648.386475 755.224976,666.667236 
	C717.429993,679.778137 679.557922,677.718872 644.027588,658.642761 
	C610.265076,640.515747 587.953491,612.432434 577.948181,575.055054 
	C572.372131,554.224426 572.456543,533.288574 576.675415,511.847626 
z"/>
</svg>