<svg version="1.1" id="Layer_1" xmlns="http://www.w3.org/2000/svg" xmlns:xlink="http://www.w3.org/1999/xlink" x="0px" y="0px"
	 width="100%" viewBox="0 0 1080 1080" enable-background="new 0 0 1080 1080" xml:space="preserve">
<path fill="#FFFFFF" opacity="1.000000" stroke="none" 
	d="
M597.000000,1081.000000 
	C398.022919,1081.000000 199.545807,1081.000000 1.034359,1081.000000 
	C1.034359,721.064453 1.034359,361.128906 1.034359,1.096672 
	C360.893982,1.096672 720.787964,1.096672 1080.841064,1.096672 
	C1080.841064,360.999939 1080.841064,720.999939 1080.841064,1081.000000 
	C919.795105,1081.000000 758.647522,1081.000000 597.000000,1081.000000 
M90.966660,710.500000 
	C90.966660,803.907166 90.966660,897.314270 90.966660,990.702393 
	C391.393646,990.702393 690.966614,990.702393 990.606384,990.702393 
	C990.606384,690.665161 990.606384,390.972839 990.606384,91.297791 
	C690.606201,91.297791 391.033295,91.297791 90.966629,91.297791 
	C90.966629,297.594849 90.966629,503.547424 90.966660,710.500000 
z"/>
<path fill="#5D44EC" opacity="1.000000" stroke="none" 
	d="
M90.966644,710.000000 
	C90.966629,503.547424 90.966629,297.594849 90.966629,91.297791 
	C391.033295,91.297791 690.606201,91.297791 990.606384,91.297791 
	C990.606384,390.972839 990.606384,690.665161 990.606384,990.702393 
	C690.966614,990.702393 391.393646,990.702393 90.966660,990.702393 
	C90.966660,897.314270 90.966660,803.907166 90.966644,710.000000 
M271.001617,471.500000 
	C271.001617,485.114899 271.001617,498.729767 271.001617,512.939087 
	C252.072815,512.939087 233.679276,512.939087 215.228882,512.939087 
	C215.228882,537.580933 215.228882,561.618896 215.228882,585.627625 
	C279.015961,585.627625 342.388000,585.627625 405.742371,585.627625 
	C405.742371,561.264587 405.742371,537.323853 405.742371,512.793030 
	C387.101715,512.793030 368.707214,512.793030 350.099121,512.793030 
	C350.099121,431.971130 350.099121,351.741364 350.099121,270.982178 
	C368.774841,270.982178 387.178375,270.982178 405.644470,270.982178 
	C405.644470,246.398331 405.644470,222.345688 405.644470,198.371002 
	C341.905884,198.371002 278.522888,198.371002 215.132660,198.371002 
	C215.132660,222.715103 215.132660,246.631424 215.132660,271.078613 
	C233.843903,271.078613 252.245590,271.078613 271.001617,271.078613 
	C271.001617,337.907715 271.001617,404.203857 271.001617,471.500000 
M721.035400,237.500000 
	C721.035400,224.421082 721.035400,211.342163 721.035400,198.367126 
	C692.459839,198.367126 664.736877,198.367126 636.686584,198.367126 
	C636.686584,200.941925 636.686584,203.095428 636.686584,205.248932 
	C636.686584,282.729279 636.704895,360.209595 636.658020,437.689911 
	C636.653381,445.348114 636.565979,453.030975 635.962952,460.658600 
	C634.869751,474.486755 631.768311,487.847931 622.112488,498.424713 
	C608.755249,513.056030 591.449646,514.892639 573.298401,511.430664 
	C554.336121,507.814026 539.881836,496.317902 526.902222,482.733459 
	C524.547363,480.268829 522.311951,477.690094 519.841431,474.965546 
	C502.862885,494.398499 486.579071,513.117432 470.165680,531.722046 
	C468.057709,534.111389 468.734772,535.665588 470.469940,537.637085 
	C487.803070,557.330811 508.040527,572.934387 532.840881,582.168884 
	C564.122681,593.816895 596.042664,594.259033 628.228699,587.098267 
	C665.906311,578.715637 693.046265,557.247559 708.031433,521.237610 
	C717.191162,499.226410 720.795044,476.073395 720.879211,452.445007 
	C721.133118,381.130737 721.010925,309.815094 721.035400,237.500000 
M329.500000,867.168457 
	C392.257568,867.168457 455.015106,867.168457 518.051758,867.168457 
	C518.051758,848.186646 518.051758,829.814941 518.051758,811.430420 
	C405.572601,811.430420 293.409546,811.430420 181.358185,811.430420 
	C181.358185,830.122253 181.358185,848.383240 181.358185,867.168640 
	C230.621445,867.168640 279.560730,867.168640 329.500000,867.168457 
z"/>
<path fill="#FEFEFF" opacity="1.000000" stroke="none" 
	d="
M271.001617,471.000000 
	C271.001617,404.203857 271.001617,337.907715 271.001617,271.078613 
	C252.245590,271.078613 233.843903,271.078613 215.132660,271.078613 
	C215.132660,246.631424 215.132660,222.715103 215.132660,198.371002 
	C278.522888,198.371002 341.905884,198.371002 405.644470,198.371002 
	C405.644470,222.345688 405.644470,246.398331 405.644470,270.982178 
	C387.178375,270.982178 368.774841,270.982178 350.099121,270.982178 
	C350.099121,351.741364 350.099121,431.971130 350.099121,512.793030 
	C368.707214,512.793030 387.101715,512.793030 405.742371,512.793030 
	C405.742371,537.323853 405.742371,561.264587 405.742371,585.627625 
	C342.388000,585.627625 279.015961,585.627625 215.228882,585.627625 
	C215.228882,561.618896 215.228882,537.580933 215.228882,512.939087 
	C233.679276,512.939087 252.072815,512.939087 271.001617,512.939087 
	C271.001617,498.729767 271.001617,485.114899 271.001617,471.000000 
z"/>
<path fill="#FEFEFF" opacity="1.000000" stroke="none" 
	d="
M721.035400,238.000000 
	C721.010925,309.815094 721.133118,381.130737 720.879211,452.445007 
	C720.795044,476.073395 717.191162,499.226410 708.031433,521.237610 
	C693.046265,557.247559 665.906311,578.715637 628.228699,587.098267 
	C596.042664,594.259033 564.122681,593.816895 532.840881,582.168884 
	C508.040527,572.934387 487.803070,557.330811 470.469940,537.637085 
	C468.734772,535.665588 468.057709,534.111389 470.165680,531.722046 
	C486.579071,513.117432 502.862885,494.398499 519.841431,474.965546 
	C522.311951,477.690094 524.547363,480.268829 526.902222,482.733459 
	C539.881836,496.317902 554.336121,507.814026 573.298401,511.430664 
	C591.449646,514.892639 608.755249,513.056030 622.112488,498.424713 
	C631.768311,487.847931 634.869751,474.486755 635.962952,460.658600 
	C636.565979,453.030975 636.653381,445.348114 636.658020,437.689911 
	C636.704895,360.209595 636.686584,282.729279 636.686584,205.248932 
	C636.686584,203.095428 636.686584,200.941925 636.686584,198.367126 
	C664.736877,198.367126 692.459839,198.367126 721.035400,198.367126 
	C721.035400,211.342163 721.035400,224.421082 721.035400,238.000000 
z"/>
<path fill="#FEFEFF" opacity="1.000000" stroke="none" 
	d="
M329.000000,867.168579 
	C279.560730,867.168640 230.621445,867.168640 181.358185,867.168640 
	C181.358185,848.383240 181.358185,830.122253 181.358185,811.430420 
	C293.409546,811.430420 405.572601,811.430420 518.051758,811.430420 
	C518.051758,829.814941 518.051758,848.186646 518.051758,867.168457 
	C455.015106,867.168457 392.257568,867.168457 329.000000,867.168579 
z"/>
</svg>