<svg version="1.1" id="Layer_1" xmlns="http://www.w3.org/2000/svg" xmlns:xlink="http://www.w3.org/1999/xlink" x="0px" y="0px"
	 width="100%" viewBox="0 0 1080 1080" enable-background="new 0 0 1080 1080" xml:space="preserve">
<path fill="#FEFEFF" opacity="1.000000" stroke="none" 
	d="
M710.000000,1081.000000 
	C473.360596,1081.000000 237.221176,1081.000000 1.040879,1081.000000 
	C1.040879,721.068787 1.040879,361.137604 1.040879,1.103192 
	C360.889618,1.103192 720.779297,1.103192 1080.834473,1.103192 
	C1080.834473,360.999939 1080.834473,720.999939 1080.834473,1081.000000 
	C957.470459,1081.000000 833.985229,1081.000000 710.000000,1081.000000 
M663.869690,67.468681 
	C658.382812,55.964073 653.015198,44.400173 647.344299,32.986992 
	C645.356140,28.985569 641.805359,26.606075 637.100281,27.564056 
	C633.196777,28.358843 630.809387,32.696899 631.183655,37.838593 
	C631.727173,45.305817 632.955139,52.759182 632.979004,60.221363 
	C633.044128,80.622864 629.916687,100.522461 623.754272,120.080894 
	C615.570801,146.054321 601.931091,168.238480 580.141418,184.706375 
	C552.558533,205.552734 524.274109,225.471603 496.712799,246.345764 
	C461.253082,273.201965 430.388245,304.159363 409.515076,344.267456 
	C397.654419,367.057922 393.700806,390.839996 397.269379,415.812012 
	C401.220032,443.457764 413.056244,468.170929 428.115845,491.426361 
	C449.197906,523.981812 475.945923,551.469788 504.923706,576.921509 
	C508.874603,580.391663 513.234985,583.622498 517.899841,585.991394 
	C522.992432,588.577576 529.001648,583.604065 528.153381,577.914001 
	C527.816589,575.655518 527.000000,573.394592 526.015991,571.317566 
	C506.346741,529.798889 489.367279,487.329681 480.043274,442.130768 
	C476.572754,425.307129 473.710999,408.392517 474.849823,391.140930 
	C475.160645,386.432037 476.355225,381.598602 478.101288,377.202393 
	C482.925659,365.055420 491.341187,355.261963 500.780853,346.587341 
	C515.598572,332.970581 530.724731,319.660553 546.183960,306.777130 
	C573.281982,284.194122 600.811646,262.155731 624.962402,236.253433 
	C648.764099,210.725555 667.204468,182.440781 672.503723,147.175369 
	C676.560730,120.176949 673.772766,93.810745 663.869690,67.468681 
M663.579468,948.271423 
	C650.328552,949.567383 637.098450,951.159058 623.822021,952.092346 
	C602.068298,953.621521 580.293579,955.589355 558.511414,955.818542 
	C517.057251,956.254700 475.556091,956.578369 434.141876,955.082031 
	C400.094574,953.851929 366.052246,950.739502 332.183136,946.909851 
	C307.949799,944.169678 283.950653,939.154114 259.965912,934.536255 
	C252.149017,933.031250 244.707291,929.577759 237.093979,927.015442 
	C237.107559,926.391663 237.121124,925.767944 237.134689,925.144165 
	C238.731323,923.858948 240.138397,922.110291 241.956604,921.366638 
	C250.991821,917.670959 259.927307,913.495361 269.286713,910.880310 
	C285.729248,906.286133 302.457184,902.714783 319.059753,898.690918 
	C323.490112,897.617188 326.378143,893.788696 325.992920,889.636780 
	C325.588013,885.272705 322.326355,882.380737 317.510040,882.176880 
	C316.180847,882.120605 314.840576,882.141418 313.513763,882.239868 
	C282.162659,884.566650 250.737198,886.279480 219.863068,892.789124 
	C205.350571,895.848999 191.252869,900.111694 178.057373,907.144897 
	C161.297241,916.078064 155.670776,931.505920 163.523911,948.733154 
	C169.586456,962.032410 181.446457,969.129517 193.954163,974.649963 
	C213.634872,983.336426 234.442886,988.487610 255.787521,991.221375 
	C281.180084,994.473328 306.521484,998.655823 332.024109,1000.388428 
	C367.224792,1002.779907 402.546722,1003.669373 437.833374,1004.415161 
	C462.632294,1004.939209 487.472137,1004.588928 512.269836,1003.839355 
	C543.211792,1002.904053 574.148193,1001.475891 605.050415,999.644104 
	C624.134521,998.512939 643.192261,996.589539 662.184937,994.365417 
	C679.675354,992.317139 697.085938,989.537842 714.487915,986.802002 
	C726.470398,984.918274 738.557800,983.260681 750.279846,980.258423 
	C770.980835,974.956421 791.500916,968.912964 811.978210,962.783875 
	C827.287598,958.201538 841.937500,951.778870 855.115967,942.723816 
	C877.341003,927.452759 875.998413,905.309082 856.954102,890.199951 
	C853.321594,887.318054 849.150330,886.736755 845.428284,889.542542 
	C841.597290,892.430542 841.453674,896.380310 843.554993,900.732178 
	C845.903381,905.595825 844.772461,909.103333 840.178833,911.718689 
	C837.018555,913.518005 833.696289,915.143005 830.271790,916.350647 
	C799.075745,927.351746 766.688660,933.413025 734.182556,938.691772 
	C711.044739,942.449219 687.722351,945.070374 663.579468,948.271423 
M371.064117,583.710205 
	C344.210785,585.889832 317.416351,588.514526 291.242676,595.320129 
	C277.850830,598.802246 264.896790,603.424805 253.677017,611.826416 
	C247.801483,616.226135 243.649643,621.964478 242.104156,629.280884 
	C239.560410,641.322876 243.630524,651.298218 252.278473,659.492432 
	C263.019867,669.670166 276.387482,675.278259 290.153473,679.790894 
	C309.446381,686.115295 329.277313,690.222778 349.493164,692.183167 
	C370.180725,694.189331 390.874207,697.036316 411.609009,697.484802 
	C473.039276,698.813416 534.500122,698.900513 595.284607,687.851013 
	C615.198669,684.230957 635.105408,680.226685 654.648132,675.019409 
	C669.653320,671.021362 684.236694,665.253479 698.726440,659.557251 
	C715.274109,653.052063 731.210388,645.193542 745.386597,634.229858 
	C748.915527,631.500610 751.103271,628.102112 749.069153,623.449829 
	C747.338867,619.492310 743.077515,617.667725 738.117676,618.737366 
	C731.293274,620.209229 724.557556,622.246948 717.668152,623.236023 
	C688.871094,627.370300 660.129578,632.339417 631.181213,634.858887 
	C595.045593,638.003845 558.747742,639.820740 522.481750,640.806946 
	C466.197113,642.337463 409.893219,642.141663 353.863617,635.224060 
	C346.100250,634.265564 338.449890,632.391174 330.747192,630.940796 
	C330.593536,630.202820 330.439880,629.464905 330.286224,628.726929 
	C334.292633,626.406067 338.159729,623.791748 342.328644,621.813293 
	C364.850677,611.124817 388.961395,605.458496 413.055328,599.777954 
	C419.170807,598.336060 422.403107,594.938721 421.908752,590.227417 
	C421.399353,585.372864 417.438446,582.331604 411.431671,582.470886 
	C398.280029,582.775940 385.131042,583.195862 371.064117,583.710205 
M583.710938,624.125732 
	C586.482788,623.223022 589.732117,622.962952 591.950073,621.314819 
	C608.193787,609.244446 622.389099,595.115784 634.428833,578.764526 
	C646.159912,562.832520 654.815186,545.636047 656.950012,525.777527 
	C659.384827,503.127869 651.577759,482.851288 640.754639,463.670685 
	C633.903992,451.530029 625.868469,440.061310 618.467407,428.226776 
	C612.193604,418.194672 608.116516,407.543030 608.762390,395.363647 
	C609.728027,377.155396 619.248352,362.984253 630.468567,349.903015 
	C651.561768,325.311157 675.942383,304.127686 701.065247,283.784180 
	C712.702271,274.360931 724.397034,265.007385 735.933838,255.462952 
	C739.384399,252.608353 741.229248,248.983170 738.398499,244.481262 
	C735.725098,240.229645 732.005127,239.163101 726.707886,241.349930 
	C717.507385,245.148209 708.202759,248.727005 699.168884,252.890640 
	C663.574158,269.296021 628.864319,287.317627 597.167114,310.605927 
	C576.842285,325.538818 557.899109,341.886322 544.268127,363.553986 
	C534.921509,378.411285 529.196106,394.190338 531.013489,412.080109 
	C531.751282,419.343292 532.162659,426.643921 533.059265,433.885834 
	C535.797485,456.004089 543.518494,476.421295 555.871643,494.833252 
	C564.472351,507.652283 574.157715,519.757141 583.607300,531.988831 
	C591.364746,542.030212 594.268982,552.799011 592.025146,565.559875 
	C589.240784,581.394653 584.581421,596.475891 577.917297,611.046631 
	C575.242737,616.894470 577.366089,621.886841 583.710938,624.125732 
M450.322815,902.864014 
	C465.234436,904.190918 480.127045,906.302063 495.062042,906.664001 
	C518.509277,907.232178 542.111084,908.093079 565.413818,906.099609 
	C589.333557,904.053406 613.044861,899.117615 636.713013,894.722473 
	C657.330505,890.893738 677.116760,883.992004 696.482849,875.987793 
	C700.154053,874.470520 703.743835,872.630493 704.183228,867.738953 
	C704.636841,862.690674 701.602661,860.252258 697.874146,857.980957 
	C682.552795,848.647705 667.141785,839.449768 652.058105,829.744629 
	C646.612976,826.241089 641.477417,825.813538 635.515137,827.434387 
	C630.720825,828.737610 625.752136,829.444031 620.830811,830.226501 
	C605.893433,832.601562 590.977051,835.156006 575.985107,837.128174 
	C560.999207,839.099548 545.965088,841.161255 530.890564,841.865906 
	C517.456421,842.493774 503.926361,841.557251 490.459473,840.890564 
	C466.015991,839.680298 441.706299,837.122986 417.706482,832.183411 
	C413.288940,831.274170 409.025085,829.618286 404.284821,828.184448 
	C405.212189,826.579224 405.515594,825.794189 406.035339,825.197632 
	C408.867432,821.947205 410.300659,818.278259 408.288452,814.223511 
	C406.171021,809.956787 402.073914,809.932129 397.908142,810.012146 
	C385.412109,810.252258 373.384216,812.933350 362.322754,818.483154 
	C344.681915,827.334045 336.838165,843.865295 346.436523,862.429810 
	C352.152924,873.486145 362.203918,880.027100 373.238434,884.489380 
	C384.416870,889.009766 395.961792,892.964661 407.688446,895.699829 
	C421.401123,898.898376 435.483917,900.510193 450.322815,902.864014 
M388.209076,734.256775 
	C382.909058,732.945129 377.480255,732.002808 372.347168,730.212463 
	C367.720520,728.598816 367.441711,726.349304 371.244812,723.101074 
	C373.734589,720.974426 377.196350,719.921753 379.491241,717.649353 
	C381.678589,715.483398 384.053925,712.425964 384.217499,709.635620 
	C384.351196,707.354980 381.842224,703.911133 379.598572,702.778809 
	C377.286102,701.611816 373.753784,702.104065 370.974030,702.775818 
	C364.850220,704.255798 358.837494,706.222351 352.827606,708.141174 
	C341.833984,711.651245 331.300171,716.128784 322.546783,723.911499 
	C315.363129,730.298584 311.435730,737.983032 314.172119,747.843140 
	C316.495850,756.216187 322.443817,761.665222 329.497498,766.113403 
	C351.504639,779.991333 376.273071,786.020264 401.454651,789.787170 
	C423.453888,793.077942 445.724670,795.041748 467.947876,796.190063 
	C485.203491,797.081665 502.629852,796.601379 519.873718,795.308472 
	C542.418152,793.618225 564.886475,790.757935 587.331909,787.955627 
	C602.341553,786.081604 617.285217,783.613892 632.201050,781.074524 
	C644.817322,778.926636 657.377258,776.421448 669.914490,773.842468 
	C684.235413,770.896667 698.515381,767.747620 712.786499,764.566956 
	C716.532288,763.731995 719.708252,761.869263 720.315735,757.578735 
	C720.921265,753.302063 718.811523,750.251526 715.474731,747.902771 
	C702.695923,738.908203 689.911194,729.921936 677.116455,720.950012 
	C673.673889,718.536011 670.149902,717.789307 665.838013,719.041809 
	C658.988831,721.031433 651.985535,722.625854 644.950806,723.816345 
	C623.330566,727.475098 601.758240,731.694031 579.992737,734.146667 
	C552.416748,737.253967 524.703613,739.645996 496.984955,740.823242 
	C475.395599,741.740112 453.676147,740.908508 432.074005,739.747375 
	C417.679291,738.973633 403.389191,736.254211 388.209076,734.256775 
M827.310242,984.999939 
	C813.496643,989.198242 799.851990,994.113281 785.828125,997.420044 
	C766.778076,1001.911926 747.566956,1006.155396 728.187927,1008.701904 
	C706.437317,1011.560059 684.450073,1013.071228 662.516541,1013.979614 
	C626.737610,1015.461487 590.918518,1016.742676 555.116821,1016.730957 
	C496.803375,1016.711792 438.490326,1015.583435 380.177185,1014.912964 
	C379.013550,1014.899597 377.852478,1014.722778 376.688263,1014.688538 
	C356.208862,1014.087219 335.730560,1013.436890 315.248444,1012.946106 
	C310.289581,1012.827271 306.999817,1015.677856 306.384766,1019.935059 
	C305.799561,1023.985657 308.473297,1028.010376 312.974152,1029.230591 
	C317.945160,1030.578247 322.960541,1031.895142 328.040527,1032.686279 
	C358.609070,1037.446167 389.094757,1043.003906 419.815063,1046.451172 
	C453.213562,1050.198853 486.799164,1053.193237 520.373352,1054.218994 
	C558.473755,1055.382935 596.671570,1054.649170 634.789246,1053.493652 
	C659.546631,1052.743164 684.321228,1050.484863 708.934387,1047.593872 
	C737.331299,1044.258423 765.627380,1039.894409 793.839722,1035.209106 
	C818.269592,1031.151978 841.572876,1023.145386 863.191772,1010.961548 
	C884.438171,998.987610 902.491150,983.726929 911.487427,959.975830 
	C914.198975,952.816833 913.839050,947.829224 909.912903,944.916687 
	C905.948914,941.976196 902.407715,943.118713 895.744751,948.276001 
	C889.187622,953.351196 882.634277,958.714600 875.317810,962.466858 
	C859.824646,970.412415 843.835571,977.391174 827.310242,984.999939 
M830.631287,761.037354 
	C857.487122,748.859619 882.630493,734.198608 902.016296,711.321716 
	C914.792786,696.244263 922.171082,678.767090 922.434509,659.015747 
	C922.658997,642.182556 917.850159,626.133362 910.458374,611.097656 
	C897.754456,585.256470 876.739563,571.326477 847.988281,569.209106 
	C830.835999,567.945923 814.101257,570.376587 797.879700,575.825928 
	C787.850830,579.194885 778.019653,583.200989 768.265198,587.313538 
	C764.645508,588.839478 761.746521,591.914246 762.616821,596.339417 
	C763.555176,601.111084 766.805420,603.402771 771.833618,603.909790 
	C781.917236,604.926636 792.023621,606.023987 801.991333,607.809326 
	C815.342896,610.200684 827.934082,614.997559 839.168640,622.706299 
	C857.179382,635.064758 861.286438,655.836914 849.702515,675.924011 
	C836.551453,698.728821 818.119263,717.037720 798.274536,733.822632 
	C783.694641,746.154602 768.060242,757.241211 752.873901,768.854065 
	C748.322021,772.334900 746.691040,776.547363 748.546814,780.411194 
	C750.375000,784.217651 754.951294,785.921997 760.085388,784.746460 
	C784.139709,779.238953 807.298645,771.052795 830.631287,761.037354 
z"/>
<path fill="#5E46EC" opacity="1.000000" stroke="none" 
	d="
M663.959351,67.853287 
	C673.772766,93.810745 676.560730,120.176949 672.503723,147.175369 
	C667.204468,182.440781 648.764099,210.725555 624.962402,236.253433 
	C600.811646,262.155731 573.281982,284.194122 546.183960,306.777130 
	C530.724731,319.660553 515.598572,332.970581 500.780853,346.587341 
	C491.341187,355.261963 482.925659,365.055420 478.101288,377.202393 
	C476.355225,381.598602 475.160645,386.432037 474.849823,391.140930 
	C473.710999,408.392517 476.572754,425.307129 480.043274,442.130768 
	C489.367279,487.329681 506.346741,529.798889 526.015991,571.317566 
	C527.000000,573.394592 527.816589,575.655518 528.153381,577.914001 
	C529.001648,583.604065 522.992432,588.577576 517.899841,585.991394 
	C513.234985,583.622498 508.874603,580.391663 504.923706,576.921509 
	C475.945923,551.469788 449.197906,523.981812 428.115845,491.426361 
	C413.056244,468.170929 401.220032,443.457764 397.269379,415.812012 
	C393.700806,390.839996 397.654419,367.057922 409.515076,344.267456 
	C430.388245,304.159363 461.253082,273.201965 496.712799,246.345764 
	C524.274109,225.471603 552.558533,205.552734 580.141418,184.706375 
	C601.931091,168.238480 615.570801,146.054321 623.754272,120.080894 
	C629.916687,100.522461 633.044128,80.622864 632.979004,60.221363 
	C632.955139,52.759182 631.727173,45.305817 631.183655,37.838593 
	C630.809387,32.696899 633.196777,28.358843 637.100281,27.564056 
	C641.805359,26.606075 645.356140,28.985569 647.344299,32.986992 
	C653.015198,44.400173 658.382812,55.964073 663.959351,67.853287 
z"/>
<path fill="#5F46EC" opacity="1.000000" stroke="none" 
	d="
M664.030884,948.235046 
	C687.722351,945.070374 711.044739,942.449219 734.182556,938.691772 
	C766.688660,933.413025 799.075745,927.351746 830.271790,916.350647 
	C833.696289,915.143005 837.018555,913.518005 840.178833,911.718689 
	C844.772461,909.103333 845.903381,905.595825 843.554993,900.732178 
	C841.453674,896.380310 841.597290,892.430542 845.428284,889.542542 
	C849.150330,886.736755 853.321594,887.318054 856.954102,890.199951 
	C875.998413,905.309082 877.341003,927.452759 855.115967,942.723816 
	C841.937500,951.778870 827.287598,958.201538 811.978210,962.783875 
	C791.500916,968.912964 770.980835,974.956421 750.279846,980.258423 
	C738.557800,983.260681 726.470398,984.918274 714.487915,986.802002 
	C697.085938,989.537842 679.675354,992.317139 662.184937,994.365417 
	C643.192261,996.589539 624.134521,998.512939 605.050415,999.644104 
	C574.148193,1001.475891 543.211792,1002.904053 512.269836,1003.839355 
	C487.472137,1004.588928 462.632294,1004.939209 437.833374,1004.415161 
	C402.546722,1003.669373 367.224792,1002.779907 332.024109,1000.388428 
	C306.521484,998.655823 281.180084,994.473328 255.787521,991.221375 
	C234.442886,988.487610 213.634872,983.336426 193.954163,974.649963 
	C181.446457,969.129517 169.586456,962.032410 163.523911,948.733154 
	C155.670776,931.505920 161.297241,916.078064 178.057373,907.144897 
	C191.252869,900.111694 205.350571,895.848999 219.863068,892.789124 
	C250.737198,886.279480 282.162659,884.566650 313.513763,882.239868 
	C314.840576,882.141418 316.180847,882.120605 317.510040,882.176880 
	C322.326355,882.380737 325.588013,885.272705 325.992920,889.636780 
	C326.378143,893.788696 323.490112,897.617188 319.059753,898.690918 
	C302.457184,902.714783 285.729248,906.286133 269.286713,910.880310 
	C259.927307,913.495361 250.991821,917.670959 241.956604,921.366638 
	C240.138397,922.110291 238.731323,923.858948 237.134689,925.144165 
	C237.121124,925.767944 237.107559,926.391663 237.093979,927.015442 
	C244.707291,929.577759 252.149017,933.031250 259.965912,934.536255 
	C283.950653,939.154114 307.949799,944.169678 332.183136,946.909851 
	C366.052246,950.739502 400.094574,953.851929 434.141876,955.082031 
	C475.556091,956.578369 517.057251,956.254700 558.511414,955.818542 
	C580.293579,955.589355 602.068298,953.621521 623.822021,952.092346 
	C637.098450,951.159058 650.328552,949.567383 664.030884,948.235046 
z"/>
<path fill="#5F46EC" opacity="1.000000" stroke="none" 
	d="
M371.522552,583.639526 
	C385.131042,583.195862 398.280029,582.775940 411.431671,582.470886 
	C417.438446,582.331604 421.399353,585.372864 421.908752,590.227417 
	C422.403107,594.938721 419.170807,598.336060 413.055328,599.777954 
	C388.961395,605.458496 364.850677,611.124817 342.328644,621.813293 
	C338.159729,623.791748 334.292633,626.406067 330.286224,628.726929 
	C330.439880,629.464905 330.593536,630.202820 330.747192,630.940796 
	C338.449890,632.391174 346.100250,634.265564 353.863617,635.224060 
	C409.893219,642.141663 466.197113,642.337463 522.481750,640.806946 
	C558.747742,639.820740 595.045593,638.003845 631.181213,634.858887 
	C660.129578,632.339417 688.871094,627.370300 717.668152,623.236023 
	C724.557556,622.246948 731.293274,620.209229 738.117676,618.737366 
	C743.077515,617.667725 747.338867,619.492310 749.069153,623.449829 
	C751.103271,628.102112 748.915527,631.500610 745.386597,634.229858 
	C731.210388,645.193542 715.274109,653.052063 698.726440,659.557251 
	C684.236694,665.253479 669.653320,671.021362 654.648132,675.019409 
	C635.105408,680.226685 615.198669,684.230957 595.284607,687.851013 
	C534.500122,698.900513 473.039276,698.813416 411.609009,697.484802 
	C390.874207,697.036316 370.180725,694.189331 349.493164,692.183167 
	C329.277313,690.222778 309.446381,686.115295 290.153473,679.790894 
	C276.387482,675.278259 263.019867,669.670166 252.278473,659.492432 
	C243.630524,651.298218 239.560410,641.322876 242.104156,629.280884 
	C243.649643,621.964478 247.801483,616.226135 253.677017,611.826416 
	C264.896790,603.424805 277.850830,598.802246 291.242676,595.320129 
	C317.416351,588.514526 344.210785,585.889832 371.522552,583.639526 
z"/>
<path fill="#5E46EC" opacity="1.000000" stroke="none" 
	d="
M583.300415,624.071899 
	C577.366089,621.886841 575.242737,616.894470 577.917297,611.046631 
	C584.581421,596.475891 589.240784,581.394653 592.025146,565.559875 
	C594.268982,552.799011 591.364746,542.030212 583.607300,531.988831 
	C574.157715,519.757141 564.472351,507.652283 555.871643,494.833252 
	C543.518494,476.421295 535.797485,456.004089 533.059265,433.885834 
	C532.162659,426.643921 531.751282,419.343292 531.013489,412.080109 
	C529.196106,394.190338 534.921509,378.411285 544.268127,363.553986 
	C557.899109,341.886322 576.842285,325.538818 597.167114,310.605927 
	C628.864319,287.317627 663.574158,269.296021 699.168884,252.890640 
	C708.202759,248.727005 717.507385,245.148209 726.707886,241.349930 
	C732.005127,239.163101 735.725098,240.229645 738.398499,244.481262 
	C741.229248,248.983170 739.384399,252.608353 735.933838,255.462952 
	C724.397034,265.007385 712.702271,274.360931 701.065247,283.784180 
	C675.942383,304.127686 651.561768,325.311157 630.468567,349.903015 
	C619.248352,362.984253 609.728027,377.155396 608.762390,395.363647 
	C608.116516,407.543030 612.193604,418.194672 618.467407,428.226776 
	C625.868469,440.061310 633.903992,451.530029 640.754639,463.670685 
	C651.577759,482.851288 659.384827,503.127869 656.950012,525.777527 
	C654.815186,545.636047 646.159912,562.832520 634.428833,578.764526 
	C622.389099,595.115784 608.193787,609.244446 591.950073,621.314819 
	C589.732117,622.962952 586.482788,623.223022 583.300415,624.071899 
z"/>
<path fill="#5E46EC" opacity="1.000000" stroke="none" 
	d="
M449.864502,902.837158 
	C435.483917,900.510193 421.401123,898.898376 407.688446,895.699829 
	C395.961792,892.964661 384.416870,889.009766 373.238434,884.489380 
	C362.203918,880.027100 352.152924,873.486145 346.436523,862.429810 
	C336.838165,843.865295 344.681915,827.334045 362.322754,818.483154 
	C373.384216,812.933350 385.412109,810.252258 397.908142,810.012146 
	C402.073914,809.932129 406.171021,809.956787 408.288452,814.223511 
	C410.300659,818.278259 408.867432,821.947205 406.035339,825.197632 
	C405.515594,825.794189 405.212189,826.579224 404.284821,828.184448 
	C409.025085,829.618286 413.288940,831.274170 417.706482,832.183411 
	C441.706299,837.122986 466.015991,839.680298 490.459473,840.890564 
	C503.926361,841.557251 517.456421,842.493774 530.890564,841.865906 
	C545.965088,841.161255 560.999207,839.099548 575.985107,837.128174 
	C590.977051,835.156006 605.893433,832.601562 620.830811,830.226501 
	C625.752136,829.444031 630.720825,828.737610 635.515137,827.434387 
	C641.477417,825.813538 646.612976,826.241089 652.058105,829.744629 
	C667.141785,839.449768 682.552795,848.647705 697.874146,857.980957 
	C701.602661,860.252258 704.636841,862.690674 704.183228,867.738953 
	C703.743835,872.630493 700.154053,874.470520 696.482849,875.987793 
	C677.116760,883.992004 657.330505,890.893738 636.713013,894.722473 
	C613.044861,899.117615 589.333557,904.053406 565.413818,906.099609 
	C542.111084,908.093079 518.509277,907.232178 495.062042,906.664001 
	C480.127045,906.302063 465.234436,904.190918 449.864502,902.837158 
z"/>
<path fill="#5F46EC" opacity="1.000000" stroke="none" 
	d="
M388.630676,734.331177 
	C403.389191,736.254211 417.679291,738.973633 432.074005,739.747375 
	C453.676147,740.908508 475.395599,741.740112 496.984955,740.823242 
	C524.703613,739.645996 552.416748,737.253967 579.992737,734.146667 
	C601.758240,731.694031 623.330566,727.475098 644.950806,723.816345 
	C651.985535,722.625854 658.988831,721.031433 665.838013,719.041809 
	C670.149902,717.789307 673.673889,718.536011 677.116455,720.950012 
	C689.911194,729.921936 702.695923,738.908203 715.474731,747.902771 
	C718.811523,750.251526 720.921265,753.302063 720.315735,757.578735 
	C719.708252,761.869263 716.532288,763.731995 712.786499,764.566956 
	C698.515381,767.747620 684.235413,770.896667 669.914490,773.842468 
	C657.377258,776.421448 644.817322,778.926636 632.201050,781.074524 
	C617.285217,783.613892 602.341553,786.081604 587.331909,787.955627 
	C564.886475,790.757935 542.418152,793.618225 519.873718,795.308472 
	C502.629852,796.601379 485.203491,797.081665 467.947876,796.190063 
	C445.724670,795.041748 423.453888,793.077942 401.454651,789.787170 
	C376.273071,786.020264 351.504639,779.991333 329.497498,766.113403 
	C322.443817,761.665222 316.495850,756.216187 314.172119,747.843140 
	C311.435730,737.983032 315.363129,730.298584 322.546783,723.911499 
	C331.300171,716.128784 341.833984,711.651245 352.827606,708.141174 
	C358.837494,706.222351 364.850220,704.255798 370.974030,702.775818 
	C373.753784,702.104065 377.286102,701.611816 379.598572,702.778809 
	C381.842224,703.911133 384.351196,707.354980 384.217499,709.635620 
	C384.053925,712.425964 381.678589,715.483398 379.491241,717.649353 
	C377.196350,719.921753 373.734589,720.974426 371.244812,723.101074 
	C367.441711,726.349304 367.720520,728.598816 372.347168,730.212463 
	C377.480255,732.002808 382.909058,732.945129 388.630676,734.331177 
z"/>
<path fill="#6047EC" opacity="1.000000" stroke="none" 
	d="
M827.680054,984.883179 
	C843.835571,977.391174 859.824646,970.412415 875.317810,962.466858 
	C882.634277,958.714600 889.187622,953.351196 895.744751,948.276001 
	C902.407715,943.118713 905.948914,941.976196 909.912903,944.916687 
	C913.839050,947.829224 914.198975,952.816833 911.487427,959.975830 
	C902.491150,983.726929 884.438171,998.987610 863.191772,1010.961548 
	C841.572876,1023.145386 818.269592,1031.151978 793.839722,1035.209106 
	C765.627380,1039.894409 737.331299,1044.258423 708.934387,1047.593872 
	C684.321228,1050.484863 659.546631,1052.743164 634.789246,1053.493652 
	C596.671570,1054.649170 558.473755,1055.382935 520.373352,1054.218994 
	C486.799164,1053.193237 453.213562,1050.198853 419.815063,1046.451172 
	C389.094757,1043.003906 358.609070,1037.446167 328.040527,1032.686279 
	C322.960541,1031.895142 317.945160,1030.578247 312.974152,1029.230591 
	C308.473297,1028.010376 305.799561,1023.985657 306.384766,1019.935059 
	C306.999817,1015.677856 310.289581,1012.827271 315.248444,1012.946106 
	C335.730560,1013.436890 356.208862,1014.087219 376.688263,1014.688538 
	C377.852478,1014.722778 379.013550,1014.899597 380.177185,1014.912964 
	C438.490326,1015.583435 496.803375,1016.711792 555.116821,1016.730957 
	C590.918518,1016.742676 626.737610,1015.461487 662.516541,1013.979614 
	C684.450073,1013.071228 706.437317,1011.560059 728.187927,1008.701904 
	C747.566956,1006.155396 766.778076,1001.911926 785.828125,997.420044 
	C799.851990,994.113281 813.496643,989.198242 827.680054,984.883179 
z"/>
<path fill="#5F46EC" opacity="1.000000" stroke="none" 
	d="
M830.301514,761.223877 
	C807.298645,771.052795 784.139709,779.238953 760.085388,784.746460 
	C754.951294,785.921997 750.375000,784.217651 748.546814,780.411194 
	C746.691040,776.547363 748.322021,772.334900 752.873901,768.854065 
	C768.060242,757.241211 783.694641,746.154602 798.274536,733.822632 
	C818.119263,717.037720 836.551453,698.728821 849.702515,675.924011 
	C861.286438,655.836914 857.179382,635.064758 839.168640,622.706299 
	C827.934082,614.997559 815.342896,610.200684 801.991333,607.809326 
	C792.023621,606.023987 781.917236,604.926636 771.833618,603.909790 
	C766.805420,603.402771 763.555176,601.111084 762.616821,596.339417 
	C761.746521,591.914246 764.645508,588.839478 768.265198,587.313538 
	C778.019653,583.200989 787.850830,579.194885 797.879700,575.825928 
	C814.101257,570.376587 830.835999,567.945923 847.988281,569.209106 
	C876.739563,571.326477 897.754456,585.256470 910.458374,611.097656 
	C917.850159,626.133362 922.658997,642.182556 922.434509,659.015747 
	C922.171082,678.767090 914.792786,696.244263 902.016296,711.321716 
	C882.630493,734.198608 857.487122,748.859619 830.301514,761.223877 
z"/>
</svg>