<svg version="1.1" id="Layer_1" xmlns="http://www.w3.org/2000/svg" xmlns:xlink="http://www.w3.org/1999/xlink" x="0px" y="0px"
	 width="100%" viewBox="0 0 1080 1080" enable-background="new 0 0 1080 1080" xml:space="preserve">
<path fill="#FFFFFF" opacity="1.000000" stroke="none" 
	d="
M1.000000,381.000000 
	C1.000000,254.014603 1.000000,127.529198 1.000000,1.021896 
	C360.943848,1.021896 720.887695,1.021896 1080.915771,1.021896 
	C1080.915771,360.902283 1080.915771,720.804626 1080.915771,1080.853516 
	C721.000061,1080.853516 361.000031,1080.853516 1.000000,1080.853516 
	C1.000000,847.778503 1.000000,614.639221 1.000000,381.000000 
M913.391418,538.391724 
	C915.843872,473.190491 903.161438,411.219910 874.342224,352.538055 
	C855.192200,313.544739 829.864868,279.131287 799.417786,248.300598 
	C797.265808,246.121506 795.450012,242.857620 795.007690,239.871582 
	C792.935242,225.879166 791.929688,211.716827 789.554382,197.783737 
	C785.300171,172.829834 778.218079,148.697556 764.492310,127.100945 
	C753.522888,109.841156 739.274292,95.293365 724.839294,80.946739 
	C702.305054,58.550411 676.344360,42.047497 645.274902,34.147705 
	C625.347168,29.080856 605.171143,26.378796 584.584229,25.636854 
	C552.263000,24.472013 520.928711,28.716717 490.159058,38.806328 
	C455.804749,50.071346 424.742279,67.778366 394.050476,86.267303 
	C370.366516,100.534660 350.810425,118.557190 342.710358,146.335922 
	C342.141571,148.286575 340.070099,150.175018 338.218719,151.314804 
	C326.101196,158.774857 317.053802,168.987274 313.045319,182.549286 
	C309.482208,194.604584 307.195953,207.095490 305.200806,219.531250 
	C304.214905,225.676285 303.282257,230.952896 297.622681,234.774216 
	C293.390228,237.631958 289.831268,241.530167 286.134064,245.131012 
	C249.534775,280.776581 220.909164,321.886047 200.316635,368.732086 
	C173.467987,429.810211 163.691467,493.833984 170.024536,559.725708 
	C179.528992,658.613892 221.306885,742.240723 294.782776,809.563721 
	C298.461945,812.934753 299.916992,816.413269 300.072479,821.200134 
	C300.575378,836.678772 301.816101,852.143250 301.960266,867.620789 
	C302.083588,880.862610 307.993042,888.790100 320.215790,893.704956 
	C336.116394,900.098511 351.718414,907.313843 367.126099,914.836792 
	C393.899719,927.909058 421.243347,938.371521 451.760803,936.734558 
	C455.080414,936.556458 455.766357,938.493530 456.577606,941.140076 
	C465.656006,970.756836 475.298584,1000.209717 483.808533,1029.987061 
	C487.001923,1041.160889 493.326172,1045.931519 504.245239,1048.250000 
	C527.002319,1053.081909 549.913269,1055.521851 573.113831,1056.118286 
	C602.150146,1056.864502 631.064087,1055.363403 659.838379,1051.561035 
	C669.161194,1050.328979 678.034302,1047.340698 685.276978,1040.866699 
	C690.133789,1036.525513 692.920837,1031.458008 691.840881,1024.544922 
	C691.047302,1019.464722 691.204651,1014.243164 690.629883,1009.119080 
	C690.267273,1005.886536 691.541992,1004.830627 694.559448,1004.216553 
	C700.259583,1003.056458 706.016174,1001.831238 711.468018,999.856506 
	C728.838257,993.564941 731.365601,985.119141 730.091492,970.068848 
	C729.309326,960.829895 727.010376,951.713562 725.293152,942.560791 
	C722.937988,930.008118 719.102905,917.681580 720.627075,904.597961 
	C721.078857,900.719360 722.423950,898.766968 726.200562,897.580505 
	C732.122986,895.719849 737.535522,892.552429 737.868713,885.480713 
	C738.082458,880.945496 740.367554,879.230042 744.088379,877.761353 
	C757.394104,872.509521 771.310547,871.769226 785.358704,871.514526 
	C788.234924,871.462402 789.845032,872.232361 791.383423,874.700439 
	C793.894104,878.728271 796.220886,883.029053 801.782593,884.005066 
	C821.959290,887.545898 842.105713,888.333313 862.364563,884.590820 
	C872.862793,882.651489 881.598083,878.055359 887.625671,869.112976 
	C901.685486,848.254333 906.838501,824.976257 902.737732,800.498108 
	C899.043823,778.448242 890.984314,757.466492 881.552368,737.139832 
	C878.182922,729.878601 873.259949,723.806335 866.325562,719.702087 
	C863.049805,717.763306 863.024536,715.913208 864.701050,712.838989 
	C868.527161,705.822998 872.119812,698.673279 875.618225,691.485901 
	C898.994568,643.460266 911.521851,592.733887 913.391418,538.391724 
z"/>
<path fill="#6048EC" opacity="1.000000" stroke="none" 
	d="
M913.366821,538.874695 
	C911.521851,592.733887 898.994568,643.460266 875.618225,691.485901 
	C872.119812,698.673279 868.527161,705.822998 864.701050,712.838989 
	C863.024536,715.913208 863.049805,717.763306 866.325562,719.702087 
	C873.259949,723.806335 878.182922,729.878601 881.552368,737.139832 
	C890.984314,757.466492 899.043823,778.448242 902.737732,800.498108 
	C906.838501,824.976257 901.685486,848.254333 887.625671,869.112976 
	C881.598083,878.055359 872.862793,882.651489 862.364563,884.590820 
	C842.105713,888.333313 821.959290,887.545898 801.782593,884.005066 
	C796.220886,883.029053 793.894104,878.728271 791.383423,874.700439 
	C789.845032,872.232361 788.234924,871.462402 785.358704,871.514526 
	C771.310547,871.769226 757.394104,872.509521 744.088379,877.761353 
	C740.367554,879.230042 738.082458,880.945496 737.868713,885.480713 
	C737.535522,892.552429 732.122986,895.719849 726.200562,897.580505 
	C722.423950,898.766968 721.078857,900.719360 720.627075,904.597961 
	C719.102905,917.681580 722.937988,930.008118 725.293152,942.560791 
	C727.010376,951.713562 729.309326,960.829895 730.091492,970.068848 
	C731.365601,985.119141 728.838257,993.564941 711.468018,999.856506 
	C706.016174,1001.831238 700.259583,1003.056458 694.559448,1004.216553 
	C691.541992,1004.830627 690.267273,1005.886536 690.629883,1009.119080 
	C691.204651,1014.243164 691.047302,1019.464722 691.840881,1024.544922 
	C692.920837,1031.458008 690.133789,1036.525513 685.276978,1040.866699 
	C678.034302,1047.340698 669.161194,1050.328979 659.838379,1051.561035 
	C631.064087,1055.363403 602.150146,1056.864502 573.113831,1056.118286 
	C549.913269,1055.521851 527.002319,1053.081909 504.245239,1048.250000 
	C493.326172,1045.931519 487.001923,1041.160889 483.808533,1029.987061 
	C475.298584,1000.209717 465.656006,970.756836 456.577606,941.140076 
	C455.766357,938.493530 455.080414,936.556458 451.760803,936.734558 
	C421.243347,938.371521 393.899719,927.909058 367.126099,914.836792 
	C351.718414,907.313843 336.116394,900.098511 320.215790,893.704956 
	C307.993042,888.790100 302.083588,880.862610 301.960266,867.620789 
	C301.816101,852.143250 300.575378,836.678772 300.072479,821.200134 
	C299.916992,816.413269 298.461945,812.934753 294.782776,809.563721 
	C221.306885,742.240723 179.528992,658.613892 170.024536,559.725708 
	C163.691467,493.833984 173.467987,429.810211 200.316635,368.732086 
	C220.909164,321.886047 249.534775,280.776581 286.134064,245.131012 
	C289.831268,241.530167 293.390228,237.631958 297.622681,234.774216 
	C303.282257,230.952896 304.214905,225.676285 305.200806,219.531250 
	C307.195953,207.095490 309.482208,194.604584 313.045319,182.549286 
	C317.053802,168.987274 326.101196,158.774857 338.218719,151.314804 
	C340.070099,150.175018 342.141571,148.286575 342.710358,146.335922 
	C350.810425,118.557190 370.366516,100.534660 394.050476,86.267303 
	C424.742279,67.778366 455.804749,50.071346 490.159058,38.806328 
	C520.928711,28.716717 552.263000,24.472013 584.584229,25.636854 
	C605.171143,26.378796 625.347168,29.080856 645.274902,34.147705 
	C676.344360,42.047497 702.305054,58.550411 724.839294,80.946739 
	C739.274292,95.293365 753.522888,109.841156 764.492310,127.100945 
	C778.218079,148.697556 785.300171,172.829834 789.554382,197.783737 
	C791.929688,211.716827 792.935242,225.879166 795.007690,239.871582 
	C795.450012,242.857620 797.265808,246.121506 799.417786,248.300598 
	C829.864868,279.131287 855.192200,313.544739 874.342224,352.538055 
	C903.161438,411.219910 915.843872,473.190491 913.366821,538.874695 
M740.039001,448.473358 
	C757.294067,419.885590 767.670959,388.734344 774.269958,356.204468 
	C784.054260,307.973297 782.425659,259.485901 776.951843,210.986862 
	C775.618896,199.177338 772.194458,187.871628 764.302795,178.360001 
	C748.390015,159.180634 728.139526,154.116623 705.602234,163.893555 
	C705.410950,163.976532 705.042603,163.651154 704.760742,163.508286 
	C703.847290,151.313660 713.170044,141.195786 726.834778,140.054123 
	C732.469543,139.583359 738.176575,139.976089 744.790833,139.976089 
	C743.198181,137.568909 742.259216,135.846512 741.039185,134.353745 
	C731.451233,122.622063 722.069519,110.707497 712.113037,99.295319 
	C701.689209,87.347473 688.872009,78.466507 674.448853,71.798561 
	C644.815369,58.098713 614.054871,49.043228 581.173096,48.221657 
	C562.362549,47.751659 543.879456,49.004005 526.513245,57.262966 
	C502.950562,68.468811 480.579163,81.703781 460.387970,98.218620 
	C446.585083,109.508347 433.893860,122.059120 424.889435,137.836258 
	C422.230713,142.494751 421.887360,146.726608 423.159180,152.032333 
	C425.157013,160.366776 427.329163,169.168808 426.617676,177.533875 
	C425.269287,193.386856 422.547424,209.200729 419.262787,224.792114 
	C414.921997,245.396774 414.133209,265.647400 420.488220,285.968323 
	C422.318970,291.822418 423.303375,297.953979 424.483246,303.995941 
	C426.355194,313.582062 424.433472,317.224335 414.989441,319.853485 
	C409.776672,321.304688 404.126068,321.102112 398.775208,322.161896 
	C393.694824,323.168152 392.435059,320.686829 391.147888,316.408844 
	C388.761261,308.476776 386.032928,300.560394 382.497375,293.086670 
	C379.240662,286.202454 373.341431,281.524323 365.657806,280.109100 
	C350.994232,277.408295 337.812469,280.646149 326.908966,291.175842 
	C316.672363,301.061462 311.450806,313.202759 312.024750,327.484375 
	C313.031677,352.539825 322.195435,373.903442 342.167450,389.655487 
	C354.843536,399.653229 369.281708,399.287872 382.101959,389.774536 
	C384.238678,388.188995 386.314148,386.248138 388.742157,385.402130 
	C391.337006,384.498016 394.315887,384.695923 397.127106,384.412781 
	C397.149139,387.454742 397.565887,390.566254 397.046661,393.512848 
	C396.730225,395.308533 395.093964,396.950378 393.834381,398.483765 
	C391.615906,401.184540 389.275543,403.789551 386.906555,406.361267 
	C383.752960,409.784760 382.609222,413.656830 383.390167,418.311890 
	C388.699402,449.960571 400.393890,479.164215 417.179169,506.379822 
	C424.092529,517.589233 434.329773,524.758301 446.602356,529.247009 
	C464.675598,535.857239 483.542328,537.566101 502.545410,538.355347 
	C503.887329,538.411133 505.676788,537.351501 506.594635,536.255127 
	C510.216827,531.928528 514.774414,529.108582 520.275513,528.835938 
	C528.648621,528.420837 537.057495,528.727234 546.416260,528.727234 
	C544.869934,527.429871 544.103394,526.618835 543.188538,526.043579 
	C515.270935,508.487000 494.139648,484.282501 476.127869,457.133362 
	C471.286438,449.835876 468.342102,441.586121 467.874023,432.583252 
	C474.247833,440.489227 480.169403,448.655609 486.281830,456.676483 
	C504.285400,480.301331 524.129639,501.961212 551.039062,515.815063 
	C564.988464,522.996643 579.246582,529.394287 595.110474,531.140808 
	C618.398254,533.704529 640.550842,529.183655 661.850098,520.067749 
	C681.226501,511.774780 700.485168,502.751770 714.138977,486.073364 
	C723.594849,474.522705 731.233093,461.483978 740.039001,448.473358 
M448.858948,843.862305 
	C446.944519,827.663330 444.747253,811.491272 443.200592,795.257202 
	C441.838379,780.959167 441.871246,780.377380 427.129303,780.122131 
	C417.656952,779.958191 408.169647,780.796448 398.685242,781.028015 
	C397.370361,781.060181 395.042511,780.373474 394.913727,779.692383 
	C394.649597,778.295532 395.143372,776.309998 396.087646,775.239624 
	C397.344727,773.814819 399.213715,772.727600 401.026520,772.041382 
	C403.971954,770.926331 407.109711,770.332153 410.122101,769.378418 
	C416.032074,767.507568 417.748138,763.072876 414.548492,757.733521 
	C413.271362,755.602295 411.227234,753.868408 410.246246,751.639465 
	C409.253601,749.384033 409.143890,746.740051 408.647400,744.266296 
	C410.864838,744.890686 413.313629,745.109436 415.255676,746.216858 
	C420.738831,749.343628 425.953064,752.938721 431.395752,756.141113 
	C434.298981,757.849182 436.592743,757.118774 437.216064,753.487915 
	C438.225494,747.608093 440.080475,741.685486 439.917267,735.827271 
	C439.421570,718.033936 437.756775,700.271179 437.353424,682.478210 
	C437.214508,676.350525 439.258240,670.122314 440.749939,664.049316 
	C441.069550,662.748169 443.477509,660.945557 444.631165,661.136780 
	C445.891754,661.345825 447.383881,663.461853 447.759003,664.995117 
	C448.462006,667.868591 448.788879,670.938293 448.646576,673.896301 
	C448.006714,687.197266 446.683807,700.481201 446.496246,713.783813 
	C446.306671,727.231995 446.623108,740.741089 447.766510,754.133972 
	C448.438660,762.006592 449.699066,762.163086 457.506653,761.406067 
	C459.827271,761.181030 462.172791,761.178284 464.482788,760.884216 
	C513.728333,754.614502 563.150635,750.556946 612.769897,748.911438 
	C614.777222,748.844849 616.769531,748.327515 618.768860,748.020264 
	C617.172119,745.993591 615.481812,745.070251 613.733765,744.273865 
	C601.459106,738.681396 589.022156,733.419861 576.931763,727.455322 
	C564.700806,721.421387 552.603210,715.050293 540.847778,708.145020 
	C534.060547,704.158081 532.939148,698.354675 536.584778,691.299744 
	C538.711426,687.184082 541.723389,683.535400 544.125610,679.549255 
	C545.833984,676.714539 547.189514,673.667175 548.702515,670.714722 
	C548.326599,670.383423 547.950684,670.052124 547.574829,669.720825 
	C545.399475,670.343506 543.225647,670.971680 541.048523,671.588074 
	C532.510620,674.005127 526.386108,672.068726 521.587585,664.597961 
	C518.916382,660.439270 516.629089,655.851929 515.139343,651.150208 
	C510.563080,636.707458 506.398438,622.132629 502.191711,607.575073 
	C500.411865,601.416016 500.550629,593.837463 496.854340,589.338318 
	C493.088440,584.754456 485.626923,583.265381 479.879333,580.239258 
	C466.030823,572.947937 452.212311,565.598450 438.430664,558.181519 
	C425.402771,551.170166 417.659821,538.707520 407.831207,528.379272 
	C396.039429,515.988098 399.437927,515.587219 382.364960,523.204529 
	C342.810791,540.852112 308.016418,566.064392 273.857178,592.231567 
	C267.768066,596.896057 267.768555,596.999939 270.911682,604.057007 
	C283.349976,631.983826 292.727325,660.933899 299.996307,690.597473 
	C313.646637,746.302307 319.736145,802.983215 321.827240,860.171509 
	C321.934326,863.100098 322.438385,864.986938 325.359436,866.450317 
	C342.486664,875.030762 359.466492,883.904724 376.554352,892.564575 
	C398.564270,903.718933 421.536652,911.890564 446.251984,914.426575 
	C450.083069,914.819702 453.950928,914.854370 458.234833,915.077271 
	C455.058014,890.913757 452.023285,867.831421 448.858948,843.862305 
M662.358826,865.256470 
	C661.717468,852.617859 661.220215,839.969910 660.398987,827.342957 
	C659.329590,810.900696 657.966003,794.477844 656.815796,778.040466 
	C656.557190,774.344727 655.083008,772.429077 651.140747,772.080872 
	C637.870483,770.908691 624.650269,768.843628 611.361267,768.269470 
	C559.330200,766.021851 507.887360,771.626404 456.731415,780.676697 
	C452.782837,781.375244 451.403748,782.836365 451.943542,786.896118 
	C454.424622,805.555908 456.426758,824.281921 459.081848,842.915588 
	C467.442993,901.594360 480.327972,959.260498 498.199554,1015.802185 
	C499.472076,1019.828003 501.535797,1021.854126 505.587708,1022.675232 
	C517.828125,1025.155762 529.924255,1028.500488 542.248047,1030.389648 
	C584.787109,1036.910889 627.177612,1037.155762 669.164001,1025.998047 
	C672.994385,1024.980103 673.917664,1023.673340 673.516479,1019.564941 
	C671.220154,996.049744 669.116882,972.508545 667.450806,948.940674 
	C665.502014,921.375000 664.068970,893.772949 662.358826,865.256470 
M336.734924,525.265564 
	C351.227631,516.731934 365.831451,508.379517 380.165894,499.587860 
	C387.268433,495.231628 388.906128,490.235413 385.849457,482.484558 
	C383.544647,476.640198 380.389465,471.087402 377.207642,465.641541 
	C369.878601,453.097504 364.968201,439.741791 363.448212,425.289703 
	C363.101776,421.995941 361.904602,420.730957 358.871429,420.078979 
	C341.493958,416.343719 327.839417,406.740631 317.078369,392.866608 
	C304.140137,376.185577 297.820312,356.761749 295.255585,336.188507 
	C292.681274,315.538544 293.564850,295.296906 306.719910,277.480774 
	C310.148071,272.837891 308.825958,261.807007 304.629059,257.584839 
	C212.212891,349.483978 175.283646,459.687561 196.257721,588.244202 
	C208.375671,662.519043 242.552399,726.147644 295.796478,779.437256 
	C296.689240,778.187256 296.965851,777.219238 296.809692,776.326965 
	C292.994781,754.525818 290.577240,732.347046 284.882843,711.044861 
	C278.967957,688.917725 269.744843,667.685303 262.218231,645.975037 
	C257.094543,631.195862 251.855255,616.419312 247.670715,601.362793 
	C243.636551,586.847412 247.096329,579.494080 259.991882,571.579712 
	C266.088898,567.837769 272.604584,564.779114 278.711456,561.051880 
	C297.899506,549.340942 316.983582,537.459656 336.734924,525.265564 
M885.460938,456.182739 
	C872.772461,388.535309 843.785889,329.066254 796.612854,278.500092 
	C795.471802,281.089172 794.942566,283.466064 794.888916,285.853699 
	C794.145264,318.949890 789.609741,351.545685 781.858704,383.695404 
	C775.556030,409.837769 768.064941,435.545135 753.332336,458.510040 
	C751.285889,461.700043 749.983459,465.388367 748.504150,468.916260 
	C746.202271,474.405640 747.076538,479.319061 751.472168,483.503387 
	C757.616882,489.352783 763.648132,495.324219 769.880127,501.078613 
	C784.304626,514.397522 798.928406,527.502563 813.240540,540.940186 
	C818.181030,545.578857 820.632690,551.815491 819.888184,558.613281 
	C819.095825,565.848389 818.276672,573.250732 816.074890,580.134155 
	C799.893433,630.722717 783.359314,681.198547 766.954651,731.715820 
	C766.424927,733.347168 766.091919,735.042358 765.363586,737.898071 
	C768.458313,736.578552 770.419800,735.845825 772.290833,734.928528 
	C791.520386,725.501465 811.298523,717.616516 832.656067,714.657471 
	C837.297119,714.014465 839.976562,712.180908 842.267456,708.162842 
	C887.023499,629.661377 900.621765,545.818176 885.460938,456.182739 
M808.519165,866.959717 
	C807.530457,867.781311 806.541809,868.602905 804.618469,870.201172 
	C807.829041,871.029968 809.705566,871.925293 811.585388,871.932190 
	C822.862549,871.973389 834.315979,873.044128 845.383240,871.470154 
	C872.021240,867.681824 885.940674,850.600464 884.747498,823.447449 
	C883.632568,798.075073 875.982605,774.059021 866.607971,750.674500 
	C863.494568,742.908447 856.971741,737.568542 849.288147,734.093567 
	C843.924011,731.667542 838.498962,731.441467 832.849243,733.811951 
	C818.902954,739.663574 804.763306,745.056885 790.848511,750.980042 
	C781.839783,754.814758 772.991211,759.068970 764.314819,763.602234 
	C762.724976,764.432983 761.093750,767.825684 761.531128,769.500427 
	C768.471985,796.074341 770.135254,823.376160 772.905029,850.510864 
	C773.388306,855.244568 774.742065,856.624939 779.548828,856.372864 
	C797.156189,855.449829 814.784912,854.809143 832.413269,854.492615 
	C837.074585,854.408936 841.763733,855.869629 846.440063,856.621277 
	C846.426086,857.091125 846.412048,857.561035 846.398010,858.030884 
	C834.020874,860.915100 821.643738,863.799255 808.519165,866.959717 
M735.535339,500.746765 
	C732.863770,498.007751 730.630920,498.427399 727.957703,501.117798 
	C724.330444,504.768311 720.203308,507.918030 716.361572,511.361664 
	C714.710754,512.841370 713.238098,514.519775 711.217896,516.584839 
	C713.712769,518.117004 715.385315,519.729004 717.347412,520.249329 
	C726.497070,522.675720 731.673584,529.177185 734.822632,537.403381 
	C744.317383,562.206177 744.983521,587.549683 737.426025,612.833435 
	C735.273560,620.034546 736.769897,624.771729 741.332703,629.937317 
	C750.718384,640.562927 749.027588,637.997620 743.097900,648.023743 
	C724.275269,679.850037 705.077698,711.454529 686.063232,743.167603 
	C684.848572,745.193420 683.957336,747.413147 682.538025,750.314697 
	C687.566956,748.993713 691.456848,747.420593 695.462402,747.028503 
	C705.389771,746.056702 715.361694,745.321289 725.330933,745.051392 
	C738.313904,744.699829 747.392517,739.603149 752.074341,726.823425 
	C758.659851,708.847290 766.246216,691.237976 772.842773,673.265625 
	C784.396423,641.787598 793.675354,609.673523 799.337402,576.535217 
	C801.235535,565.425781 797.901672,557.125854 789.655273,549.954773 
	C777.848633,539.687683 766.263428,529.163696 754.675415,518.648376 
	C748.388733,512.943542 742.292053,507.029175 735.535339,500.746765 
M406.452637,258.090027 
	C405.447968,237.952957 410.187561,218.401794 412.522583,198.605515 
	C414.166718,184.666504 414.731445,170.790863 411.409149,156.948502 
	C410.240051,152.077408 407.742371,150.451340 402.953522,151.211212 
	C389.374207,153.365952 376.322296,157.026718 364.277740,163.867004 
	C344.290131,175.218323 329.461578,190.726089 327.553223,214.643066 
	C326.340881,229.836960 327.421692,245.217041 327.569855,260.512695 
	C327.591309,262.725189 328.149414,264.932465 328.538177,267.705536 
	C331.346863,266.595673 333.518921,265.855743 335.590576,264.898560 
	C345.303955,260.410645 355.453125,259.690094 365.832153,261.510468 
	C383.843414,264.669342 402.303131,280.033813 403.961639,301.636078 
	C404.187805,304.581848 405.416504,305.365662 408.206726,304.474609 
	C412.828888,302.998444 414.645355,299.987427 413.481934,293.666504 
	C411.348846,282.076874 408.847198,270.555115 406.452637,258.090027 
M521.137329,636.281372 
	C522.803772,640.982666 524.534912,645.662292 526.117615,650.391602 
	C527.586365,654.780396 530.375366,657.010803 535.121643,656.385254 
	C537.098389,656.124634 539.121033,656.040588 541.042236,655.556458 
	C558.821838,651.076904 575.413330,644.135010 589.586914,632.135254 
	C595.428711,627.189392 601.118408,621.961487 607.462585,617.741882 
	C613.196960,613.927979 614.998535,609.243835 614.538269,602.716736 
	C614.297791,599.306091 613.131470,597.480408 609.978333,596.613403 
	C603.173706,594.742126 596.385376,592.811523 588.441833,590.582947 
	C592.967957,589.353271 596.709839,588.457458 600.371704,587.306702 
	C603.838135,586.217590 607.337280,585.097229 610.577026,583.495117 
	C611.722656,582.928528 612.814636,580.829285 612.681519,579.560974 
	C612.578796,578.581909 610.633728,577.557007 609.319336,576.987122 
	C604.464661,574.882263 599.403687,573.221008 594.654785,570.910950 
	C584.647278,566.043030 575.056702,560.214233 564.790955,556.010864 
	C554.844543,551.938354 544.380676,548.954468 533.934509,546.325378 
	C522.886475,543.544739 517.513977,546.838989 513.471436,557.487061 
	C512.710388,559.491638 511.995178,561.594238 511.764008,563.706970 
	C509.064850,588.373840 510.300018,612.561218 521.137329,636.281372 
M600.161194,718.377258 
	C617.468628,726.207764 634.995544,733.421387 653.607239,738.037292 
	C652.984985,734.336975 651.992126,731.363281 650.782349,728.480591 
	C646.528931,718.345886 642.301392,708.198303 637.880249,698.136353 
	C629.223389,678.434326 619.588684,659.272827 606.985962,641.702698 
	C604.213440,637.837402 602.006775,637.329590 598.195862,640.206787 
	C590.889099,645.723450 583.081116,650.585083 575.863525,656.209229 
	C565.042480,664.641418 556.594727,674.967957 551.875183,688.131897 
	C550.515991,691.922913 551.345520,693.872009 554.844482,695.607666 
	C569.763977,703.008423 584.594116,710.589355 600.161194,718.377258 
M722.214111,547.404358 
	C719.959229,542.327393 716.201233,540.041260 710.506348,539.716187 
	C702.925110,539.283325 696.362671,541.783691 690.191406,545.494446 
	C678.792603,552.348450 667.593567,559.534424 655.964478,566.798889 
	C656.755127,568.895508 657.711304,570.832031 658.210938,572.879944 
	C659.276306,577.247131 661.247437,578.928345 666.296082,578.492981 
	C671.195496,578.070496 676.280396,579.798889 681.283813,580.582764 
	C681.203186,581.000427 681.122559,581.418091 681.041931,581.835754 
	C676.618225,582.502747 672.160461,583.001404 667.780640,583.886047 
	C663.727234,584.704712 661.381531,586.947693 661.973389,591.627319 
	C662.367371,594.742126 662.449402,598.011230 661.958435,601.097839 
	C661.088928,606.565063 663.696472,608.465149 668.580750,609.089539 
	C685.403931,611.240417 702.221008,613.449341 719.011963,615.836243 
	C723.746399,616.509277 726.267395,614.643005 727.423523,610.284546 
	C727.892334,608.517334 728.610657,606.790039 728.861023,604.995178 
	C731.581726,585.495300 729.413696,566.519958 722.214111,547.404358 
M670.735168,827.632446 
	C671.823059,845.748657 672.995239,863.860535 673.931580,881.984558 
	C674.131836,885.860168 675.163330,887.346008 679.316345,886.510010 
	C688.782532,884.604553 698.301636,882.928223 707.845459,881.459167 
	C711.591309,880.882629 712.764832,879.555664 712.393677,875.586548 
	C710.378479,854.038330 708.939514,832.434570 706.783508,810.901855 
	C705.591736,798.998962 703.430298,787.190674 701.599426,775.356201 
	C701.214661,772.868835 700.557007,770.329224 697.037048,770.606079 
	C689.582214,771.192261 682.118591,771.668884 674.665405,772.274414 
	C671.078064,772.565918 669.704102,774.384277 669.818237,778.218933 
	C670.298584,794.364014 670.451355,810.518738 670.735168,827.632446 
M652.933594,699.566589 
	C658.109131,710.630737 663.284607,721.694885 668.460083,732.759033 
	C669.104675,732.667053 669.749329,732.575012 670.393921,732.483032 
	C671.172485,730.065002 672.153198,727.691589 672.699036,725.222107 
	C679.599426,694.002563 679.113281,662.081787 681.502258,630.435852 
	C681.585327,629.335388 680.196289,627.599609 679.055908,627.018677 
	C673.043884,623.955566 666.480103,621.795654 660.889771,618.129761 
	C653.600220,613.349670 646.734741,612.763428 638.744873,616.008057 
	C634.286560,617.818665 629.198059,618.592651 624.351990,618.784363 
	C619.762085,618.966003 618.584167,622.491699 616.833130,625.142761 
	C615.926453,626.515381 616.333069,629.813904 617.428711,631.291260 
	C632.760193,651.964294 642.395447,675.568298 652.933594,699.566589 
M473.199066,66.962662 
	C470.431580,67.454369 467.449127,67.443375 464.931702,68.519882 
	C449.336334,75.188858 433.385559,81.233238 418.432098,89.146545 
	C398.105408,99.903313 380.205902,114.083649 366.730347,133.136780 
	C364.097656,136.859100 361.909058,140.895508 358.825714,145.908768 
	C361.613403,145.582077 362.897949,145.598877 364.083099,145.264023 
	C369.527313,143.725769 374.870880,141.744980 380.388947,140.576752 
	C386.999634,139.177200 393.943542,136.930222 400.398193,137.753769 
	C411.491150,139.169174 419.408722,135.961075 424.785583,126.471420 
	C434.584564,109.177216 446.312286,93.612846 463.168091,82.516060 
	C466.476868,80.337784 469.860474,78.261803 473.298157,76.293388 
	C478.255585,73.454758 478.570831,70.047470 473.199066,66.962662 
M683.203064,710.703552 
	C681.465515,719.012085 679.727966,727.320679 677.990417,735.629211 
	C678.382202,735.808105 678.773987,735.986938 679.165771,736.165771 
	C680.293274,734.840759 681.501221,733.575562 682.536316,732.181946 
	C702.655762,705.093933 719.165588,675.766479 735.485596,646.337585 
	C736.309387,644.852051 735.723816,641.753906 734.654663,640.181580 
	C726.328369,627.935791 711.270447,622.635010 696.835632,626.245056 
	C692.574890,627.310669 691.290771,629.450134 690.897339,633.865540 
	C688.638672,659.217041 685.918457,684.527405 683.203064,710.703552 
M728.759766,767.148560 
	C721.587524,767.558838 721.482178,767.740356 722.503967,774.800110 
	C725.744934,797.194946 728.980408,819.590637 732.144104,841.996460 
	C733.228516,849.677063 734.094543,857.388550 735.218689,866.348083 
	C742.511230,864.292114 748.970642,862.334595 755.507690,860.684753 
	C758.861206,859.838379 759.997559,858.003784 759.953125,854.655884 
	C759.622864,829.762939 758.008850,805.020996 749.531189,781.342712 
	C743.371704,764.139160 745.154358,767.522217 728.759766,767.148560 
M677.128906,943.449951 
	C677.913757,957.446350 678.698547,971.442749 679.497314,985.687378 
	C684.087280,985.239624 687.572571,985.061829 690.999512,984.517334 
	C694.108643,984.023376 697.196655,983.274414 700.220581,982.387268 
	C712.787842,978.700439 713.218140,978.598572 711.223877,965.509460 
	C708.145813,945.307129 704.351746,925.214478 700.972412,905.056702 
	C700.416809,901.742615 698.647949,900.913879 695.718933,901.513672 
	C690.506592,902.580994 685.339722,903.987000 680.078186,904.656067 
	C676.712280,905.084106 676.010254,906.591370 676.114746,909.546997 
	C676.502441,920.518311 676.754639,931.494324 677.128906,943.449951 
M460.359558,545.279236 
	C457.212372,544.248535 454.092285,543.119690 450.903503,542.239624 
	C449.766937,541.926025 448.019104,541.737122 447.354309,542.355591 
	C446.596161,543.060913 446.098816,545.148743 446.597046,545.908020 
	C448.556824,548.894592 450.473877,552.253357 453.270111,554.286682 
	C464.918518,562.756775 478.419342,566.964478 492.350616,569.800720 
	C493.514191,570.037659 495.948517,568.377869 496.365112,567.124817 
	C497.615875,563.362793 498.014160,559.328003 499.016510,555.470093 
	C500.212097,550.868347 498.495361,549.299683 493.893951,548.924500 
	C482.969299,548.033813 472.084229,546.657593 460.359558,545.279236 
M618.334290,549.169189 
	C610.060608,548.537292 601.786987,547.905396 593.513306,547.273499 
	C594.204651,549.262939 595.085999,550.215393 596.099792,550.995544 
	C609.192383,561.070923 624.426086,562.631653 640.177246,561.854309 
	C641.662781,561.780945 643.240173,560.654907 644.513489,559.677063 
	C651.641846,554.202332 658.702759,548.639160 665.746521,543.055603 
	C666.507935,542.452026 667.010986,541.522644 668.405273,539.780640 
	C665.536438,540.192627 663.921387,540.354004 662.335205,540.663391 
	C647.981018,543.463501 633.631836,546.289429 618.334290,549.169189 
M637.040710,604.086426 
	C639.831055,602.483643 643.344360,601.480408 645.269043,599.159729 
	C650.034241,593.414062 649.510498,582.959900 644.911499,577.241821 
	C641.076416,572.473511 634.481140,571.719604 626.538208,575.144775 
	C626.079895,575.342407 625.650452,575.630127 625.175964,575.763428 
	C621.761108,576.722778 620.786743,579.286743 621.326843,582.351501 
	C622.364685,588.239807 623.691833,594.077454 624.916443,599.932495 
	C625.566772,603.042114 627.571960,604.372742 630.672668,604.268005 
	C632.501770,604.206177 634.332886,604.206238 637.040710,604.086426 
z"/>
<path fill="#FEFEFF" opacity="1.000000" stroke="none" 
	d="
M739.861206,448.791748 
	C731.233093,461.483978 723.594849,474.522705 714.138977,486.073364 
	C700.485168,502.751770 681.226501,511.774780 661.850098,520.067749 
	C640.550842,529.183655 618.398254,533.704529 595.110474,531.140808 
	C579.246582,529.394287 564.988464,522.996643 551.039062,515.815063 
	C524.129639,501.961212 504.285400,480.301331 486.281830,456.676483 
	C480.169403,448.655609 474.247833,440.489227 467.874023,432.583252 
	C468.342102,441.586121 471.286438,449.835876 476.127869,457.133362 
	C494.139648,484.282501 515.270935,508.487000 543.188538,526.043579 
	C544.103394,526.618835 544.869934,527.429871 546.416260,528.727234 
	C537.057495,528.727234 528.648621,528.420837 520.275513,528.835938 
	C514.774414,529.108582 510.216827,531.928528 506.594635,536.255127 
	C505.676788,537.351501 503.887329,538.411133 502.545410,538.355347 
	C483.542328,537.566101 464.675598,535.857239 446.602356,529.247009 
	C434.329773,524.758301 424.092529,517.589233 417.179169,506.379822 
	C400.393890,479.164215 388.699402,449.960571 383.390167,418.311890 
	C382.609222,413.656830 383.752960,409.784760 386.906555,406.361267 
	C389.275543,403.789551 391.615906,401.184540 393.834381,398.483765 
	C395.093964,396.950378 396.730225,395.308533 397.046661,393.512848 
	C397.565887,390.566254 397.149139,387.454742 397.127106,384.412781 
	C394.315887,384.695923 391.337006,384.498016 388.742157,385.402130 
	C386.314148,386.248138 384.238678,388.188995 382.101959,389.774536 
	C369.281708,399.287872 354.843536,399.653229 342.167450,389.655487 
	C322.195435,373.903442 313.031677,352.539825 312.024750,327.484375 
	C311.450806,313.202759 316.672363,301.061462 326.908966,291.175842 
	C337.812469,280.646149 350.994232,277.408295 365.657806,280.109100 
	C373.341431,281.524323 379.240662,286.202454 382.497375,293.086670 
	C386.032928,300.560394 388.761261,308.476776 391.147888,316.408844 
	C392.435059,320.686829 393.694824,323.168152 398.775208,322.161896 
	C404.126068,321.102112 409.776672,321.304688 414.989441,319.853485 
	C424.433472,317.224335 426.355194,313.582062 424.483246,303.995941 
	C423.303375,297.953979 422.318970,291.822418 420.488220,285.968323 
	C414.133209,265.647400 414.921997,245.396774 419.262787,224.792114 
	C422.547424,209.200729 425.269287,193.386856 426.617676,177.533875 
	C427.329163,169.168808 425.157013,160.366776 423.159180,152.032333 
	C421.887360,146.726608 422.230713,142.494751 424.889435,137.836258 
	C433.893860,122.059120 446.585083,109.508347 460.387970,98.218620 
	C480.579163,81.703781 502.950562,68.468811 526.513245,57.262966 
	C543.879456,49.004005 562.362549,47.751659 581.173096,48.221657 
	C614.054871,49.043228 644.815369,58.098713 674.448853,71.798561 
	C688.872009,78.466507 701.689209,87.347473 712.113037,99.295319 
	C722.069519,110.707497 731.451233,122.622063 741.039185,134.353745 
	C742.259216,135.846512 743.198181,137.568909 744.790833,139.976089 
	C738.176575,139.976089 732.469543,139.583359 726.834778,140.054123 
	C713.170044,141.195786 703.847290,151.313660 704.758789,163.512360 
	C705.042603,163.651154 705.410950,163.976532 705.602234,163.893555 
	C728.139526,154.116623 748.390015,159.180634 764.302795,178.360001 
	C772.194458,187.871628 775.618896,199.177338 776.951843,210.986862 
	C782.425659,259.485901 784.054260,307.973297 774.269958,356.204468 
	C767.670959,388.734344 757.294067,419.885590 739.861206,448.791748 
M723.987671,354.074432 
	C722.826111,358.013397 720.312195,360.481079 716.471313,362.117859 
	C708.197449,365.643768 700.109375,369.602570 691.890320,373.260895 
	C680.098267,378.509521 668.052490,382.755493 654.851440,382.404694 
	C643.198242,382.095062 640.031311,379.672607 636.953308,368.349884 
	C636.079102,365.133850 635.195984,361.920258 634.151978,358.102448 
	C624.675354,368.788757 629.280029,386.717712 637.444641,393.785522 
	C638.220581,394.457214 639.598083,394.766907 640.669495,394.712769 
	C650.958435,394.192780 661.375610,394.399719 671.499756,392.788361 
	C695.396118,388.985077 715.829285,376.888824 735.804321,364.040192 
	C736.806885,363.395233 737.623840,362.085236 738.004700,360.914886 
	C739.755798,355.533844 741.165649,350.039337 742.993286,344.686340 
	C745.171631,338.306061 743.619019,333.475922 738.952332,328.451172 
	C725.589355,314.062714 712.181641,299.640015 699.913757,284.331482 
	C687.534790,268.884247 675.817322,252.751205 670.391724,233.148941 
	C670.172852,232.358368 669.885071,231.435333 669.315063,230.925339 
	C668.160645,229.892563 666.790405,229.101044 665.509216,228.210037 
	C664.750977,229.544785 663.455994,230.837463 663.347412,232.223099 
	C663.128540,235.016434 663.329285,237.894592 663.751465,240.677917 
	C666.735352,260.349487 676.066711,277.256256 687.751648,292.817200 
	C697.644226,305.991425 708.513855,318.435333 719.035217,331.132782 
	C724.476624,337.699646 727.312317,344.773102 723.987671,354.074432 
M590.036011,439.553680 
	C585.377502,433.782227 580.598022,428.102600 576.113708,422.198883 
	C574.004639,419.422241 570.537720,418.445618 567.559143,420.635010 
	C564.285767,423.041016 566.874878,425.005981 568.325562,426.839966 
	C575.339783,435.707977 582.481079,444.475677 589.478455,453.356812 
	C596.389038,462.127777 604.818542,468.797180 615.879944,471.109497 
	C636.789246,475.480408 657.584290,474.413788 678.099426,468.507812 
	C684.852539,466.563690 689.622925,462.205658 692.810974,455.090607 
	C690.359497,454.857300 688.306152,454.511688 686.249329,454.489990 
	C670.101379,454.319824 653.938904,454.583221 637.808167,453.982056 
	C620.981628,453.355011 604.757446,450.002319 590.036011,439.553680 
M678.684265,413.978058 
	C678.819946,410.034454 676.807190,409.098053 673.072876,409.082397 
	C650.615234,408.988251 628.101440,409.193298 605.937805,404.835724 
	C597.890442,403.253601 590.044495,400.647614 580.882202,398.178864 
	C582.994934,401.299194 584.121643,404.057922 586.143494,405.742035 
	C591.985291,410.608032 597.661743,416.083069 604.343811,419.454712 
	C626.892151,430.832153 651.359253,433.190002 676.207520,432.673096 
	C677.215027,432.652130 678.972656,430.541534 679.022949,429.347412 
	C679.225220,424.538635 678.893616,419.707428 678.684265,413.978058 
M613.158386,265.582214 
	C599.136475,251.976761 590.024353,235.342850 583.289307,217.232742 
	C583.058411,216.611893 582.450378,216.131317 582.018127,215.585358 
	C581.452515,215.751907 580.886841,215.918442 580.321167,216.084976 
	C581.309143,222.016586 581.377991,228.299744 583.483093,233.804108 
	C587.447571,244.170486 592.477722,254.139725 597.279419,264.171387 
	C599.927612,269.704132 599.536743,271.999481 593.522644,273.053406 
	C587.571045,274.096436 581.328613,274.033325 575.257996,273.684998 
	C569.475891,273.353271 563.750061,272.031494 558.000977,271.136047 
	C554.774597,270.633514 553.087708,272.155701 552.182190,275.164459 
	C550.695862,280.102753 552.578918,284.982391 558.391296,287.835266 
	C572.035950,294.532471 586.549011,295.389038 600.520508,290.055725 
	C611.205078,285.977051 618.000916,276.866425 613.158386,265.582214 
M511.797974,183.313675 
	C524.238770,169.497818 540.105225,166.295074 557.724426,168.443451 
	C562.553772,169.032303 564.672424,167.182983 563.907776,162.363220 
	C563.517517,159.903244 562.218628,157.206894 560.503174,155.404877 
	C553.835571,148.400864 545.129639,146.022308 536.236511,148.757965 
	C512.929504,155.927490 497.002167,171.200974 489.703674,194.747559 
	C488.762878,197.782822 488.898499,201.387299 489.466888,204.561295 
	C489.778778,206.302826 492.037598,207.695694 493.418549,209.245758 
	C494.605682,207.952744 495.974304,206.782867 496.949432,205.345963 
	C501.790771,198.212097 506.528381,191.007812 511.797974,183.313675 
M688.599915,412.264679 
	C688.664185,417.248047 688.783264,422.231537 688.772705,427.214752 
	C688.766113,430.342651 690.387268,431.320953 693.218811,430.953033 
	C694.700195,430.760529 696.186218,430.587708 697.656189,430.327301 
	C724.668030,425.541626 740.461426,407.197144 752.762817,384.661316 
	C752.935913,384.344177 752.657898,383.780792 752.576416,383.239319 
	C751.957336,383.377930 751.445923,383.390656 751.033813,383.599396 
	C731.938904,393.272827 713.605591,404.793701 691.719360,407.682709 
	C690.579651,407.833130 689.722351,410.123199 688.599915,412.264679 
M765.942139,252.437683 
	C759.655945,239.763718 753.369812,227.089767 746.923889,214.093689 
	C746.321289,214.946762 746.009705,215.186157 745.994812,215.442734 
	C745.917908,216.767899 745.885437,218.097687 745.894470,219.425476 
	C745.973755,231.022232 750.543457,241.444000 754.451416,252.037262 
	C757.434387,260.122833 756.927246,261.104279 748.448120,262.200775 
	C740.873047,263.180420 733.233276,263.702332 725.688477,264.859314 
	C720.563354,265.645233 719.762146,267.576660 721.533142,272.542175 
	C723.972229,279.381042 730.462524,283.220245 739.235352,282.572174 
	C750.544556,281.736786 760.484558,277.479279 768.994141,269.925415 
	C772.124329,267.146851 773.250244,264.223511 770.546631,260.422089 
	C768.915710,258.129028 767.688538,255.548889 765.942139,252.437683 
M379.413330,316.126282 
	C374.786682,307.302948 367.863281,301.190674 358.210388,298.432068 
	C345.968719,294.933624 333.981323,303.380219 332.613342,316.746613 
	C336.924927,313.699402 340.560028,308.971771 346.108551,311.621185 
	C345.223755,320.058594 343.958954,328.063171 343.660583,336.103607 
	C343.361572,344.161224 344.894562,351.990021 350.398804,358.574127 
	C351.261444,350.619415 351.252930,342.700378 352.024323,334.858063 
	C352.452789,330.502197 353.491333,325.914246 355.491180,322.074860 
	C358.353821,316.579041 364.755157,316.199951 368.769562,320.971588 
	C371.087738,323.727020 372.645081,327.130066 374.491943,330.272736 
	C377.033417,334.597412 379.524811,338.951538 382.037659,343.293030 
	C382.501770,343.084991 382.965881,342.876923 383.430023,342.668854 
	C384.994385,333.702087 383.935364,325.055359 379.413330,316.126282 
z"/>
<path fill="#FEFEFF" opacity="1.000000" stroke="none" 
	d="
M448.923767,844.305664 
	C452.023285,867.831421 455.058014,890.913757 458.234833,915.077271 
	C453.950928,914.854370 450.083069,914.819702 446.251984,914.426575 
	C421.536652,911.890564 398.564270,903.718933 376.554352,892.564575 
	C359.466492,883.904724 342.486664,875.030762 325.359436,866.450317 
	C322.438385,864.986938 321.934326,863.100098 321.827240,860.171509 
	C319.736145,802.983215 313.646637,746.302307 299.996307,690.597473 
	C292.727325,660.933899 283.349976,631.983826 270.911682,604.057007 
	C267.768555,596.999939 267.768066,596.896057 273.857178,592.231567 
	C308.016418,566.064392 342.810791,540.852112 382.364960,523.204529 
	C399.437927,515.587219 396.039429,515.988098 407.831207,528.379272 
	C417.659821,538.707520 425.402771,551.170166 438.430664,558.181519 
	C452.212311,565.598450 466.030823,572.947937 479.879333,580.239258 
	C485.626923,583.265381 493.088440,584.754456 496.854340,589.338318 
	C500.550629,593.837463 500.411865,601.416016 502.191711,607.575073 
	C506.398438,622.132629 510.563080,636.707458 515.139343,651.150208 
	C516.629089,655.851929 518.916382,660.439270 521.587585,664.597961 
	C526.386108,672.068726 532.510620,674.005127 541.048523,671.588074 
	C543.225647,670.971680 545.399475,670.343506 547.574829,669.720825 
	C547.950684,670.052124 548.326599,670.383423 548.702515,670.714722 
	C547.189514,673.667175 545.833984,676.714539 544.125610,679.549255 
	C541.723389,683.535400 538.711426,687.184082 536.584778,691.299744 
	C532.939148,698.354675 534.060547,704.158081 540.847778,708.145020 
	C552.603210,715.050293 564.700806,721.421387 576.931763,727.455322 
	C589.022156,733.419861 601.459106,738.681396 613.733765,744.273865 
	C615.481812,745.070251 617.172119,745.993591 618.768860,748.020264 
	C616.769531,748.327515 614.777222,748.844849 612.769897,748.911438 
	C563.150635,750.556946 513.728333,754.614502 464.482788,760.884216 
	C462.172791,761.178284 459.827271,761.181030 457.506653,761.406067 
	C449.699066,762.163086 448.438660,762.006592 447.766510,754.133972 
	C446.623108,740.741089 446.306671,727.231995 446.496246,713.783813 
	C446.683807,700.481201 448.006714,687.197266 448.646576,673.896301 
	C448.788879,670.938293 448.462006,667.868591 447.759003,664.995117 
	C447.383881,663.461853 445.891754,661.345825 444.631165,661.136780 
	C443.477509,660.945557 441.069550,662.748169 440.749939,664.049316 
	C439.258240,670.122314 437.214508,676.350525 437.353424,682.478210 
	C437.756775,700.271179 439.421570,718.033936 439.917267,735.827271 
	C440.080475,741.685486 438.225494,747.608093 437.216064,753.487915 
	C436.592743,757.118774 434.298981,757.849182 431.395752,756.141113 
	C425.953064,752.938721 420.738831,749.343628 415.255676,746.216858 
	C413.313629,745.109436 410.864838,744.890686 408.647400,744.266235 
	C409.143890,746.740051 409.253601,749.384033 410.246246,751.639465 
	C411.227234,753.868408 413.271362,755.602295 414.548492,757.733521 
	C417.748138,763.072876 416.032074,767.507568 410.122101,769.378418 
	C407.109711,770.332153 403.971954,770.926331 401.026520,772.041382 
	C399.213715,772.727600 397.344727,773.814819 396.087646,775.239624 
	C395.143372,776.309998 394.649597,778.295532 394.913727,779.692383 
	C395.042511,780.373474 397.370361,781.060181 398.685242,781.028015 
	C408.169647,780.796448 417.656952,779.958191 427.129303,780.122131 
	C441.871246,780.377380 441.838379,780.959167 443.200592,795.257202 
	C444.747253,811.491272 446.944519,827.663330 448.923767,844.305664 
z"/>
<path fill="#FEFEFF" opacity="1.000000" stroke="none" 
	d="
M662.385498,865.721558 
	C664.068970,893.772949 665.502014,921.375000 667.450806,948.940674 
	C669.116882,972.508545 671.220154,996.049744 673.516479,1019.564941 
	C673.917664,1023.673340 672.994385,1024.980103 669.164001,1025.998047 
	C627.177612,1037.155762 584.787109,1036.910889 542.248047,1030.389648 
	C529.924255,1028.500488 517.828125,1025.155762 505.587708,1022.675232 
	C501.535797,1021.854126 499.472076,1019.828003 498.199554,1015.802185 
	C480.327972,959.260498 467.442993,901.594360 459.081848,842.915588 
	C456.426758,824.281921 454.424622,805.555908 451.943542,786.896118 
	C451.403748,782.836365 452.782837,781.375244 456.731415,780.676697 
	C507.887360,771.626404 559.330200,766.021851 611.361267,768.269470 
	C624.650269,768.843628 637.870483,770.908691 651.140747,772.080872 
	C655.083008,772.429077 656.557190,774.344727 656.815796,778.040466 
	C657.966003,794.477844 659.329590,810.900696 660.398987,827.342957 
	C661.220215,839.969910 661.717468,852.617859 662.385498,865.721558 
z"/>
<path fill="#FEFEFF" opacity="1.000000" stroke="none" 
	d="
M336.421417,525.454956 
	C316.983582,537.459656 297.899506,549.340942 278.711456,561.051880 
	C272.604584,564.779114 266.088898,567.837769 259.991882,571.579712 
	C247.096329,579.494080 243.636551,586.847412 247.670715,601.362793 
	C251.855255,616.419312 257.094543,631.195862 262.218231,645.975037 
	C269.744843,667.685303 278.967957,688.917725 284.882843,711.044861 
	C290.577240,732.347046 292.994781,754.525818 296.809692,776.326965 
	C296.965851,777.219238 296.689240,778.187256 295.796478,779.437256 
	C242.552399,726.147644 208.375671,662.519043 196.257721,588.244202 
	C175.283646,459.687561 212.212891,349.483978 304.629059,257.584839 
	C308.825958,261.807007 310.148071,272.837891 306.719910,277.480774 
	C293.564850,295.296906 292.681274,315.538544 295.255585,336.188507 
	C297.820312,356.761749 304.140137,376.185577 317.078369,392.866608 
	C327.839417,406.740631 341.493958,416.343719 358.871429,420.078979 
	C361.904602,420.730957 363.101776,421.995941 363.448212,425.289703 
	C364.968201,439.741791 369.878601,453.097504 377.207642,465.641541 
	C380.389465,471.087402 383.544647,476.640198 385.849457,482.484558 
	C388.906128,490.235413 387.268433,495.231628 380.165894,499.587860 
	C365.831451,508.379517 351.227631,516.731934 336.421417,525.454956 
z"/>
<path fill="#FEFEFF" opacity="1.000000" stroke="none" 
	d="
M885.558472,456.601349 
	C900.621765,545.818176 887.023499,629.661377 842.267456,708.162842 
	C839.976562,712.180908 837.297119,714.014465 832.656067,714.657471 
	C811.298523,717.616516 791.520386,725.501465 772.290833,734.928528 
	C770.419800,735.845825 768.458313,736.578552 765.363586,737.898071 
	C766.091919,735.042358 766.424927,733.347168 766.954651,731.715820 
	C783.359314,681.198547 799.893433,630.722717 816.074890,580.134155 
	C818.276672,573.250732 819.095825,565.848389 819.888184,558.613281 
	C820.632690,551.815491 818.181030,545.578857 813.240540,540.940186 
	C798.928406,527.502563 784.304626,514.397522 769.880127,501.078613 
	C763.648132,495.324219 757.616882,489.352783 751.472168,483.503387 
	C747.076538,479.319061 746.202271,474.405640 748.504150,468.916260 
	C749.983459,465.388367 751.285889,461.700043 753.332336,458.510040 
	C768.064941,435.545135 775.556030,409.837769 781.858704,383.695404 
	C789.609741,351.545685 794.145264,318.949890 794.888916,285.853699 
	C794.942566,283.466064 795.471802,281.089172 796.612854,278.500092 
	C843.785889,329.066254 872.772461,388.535309 885.558472,456.601349 
z"/>
<path fill="#FCFCFF" opacity="1.000000" stroke="none" 
	d="
M808.892822,866.821533 
	C821.643738,863.799255 834.020874,860.915100 846.398010,858.030884 
	C846.412048,857.561035 846.426086,857.091125 846.440063,856.621277 
	C841.763733,855.869629 837.074585,854.408936 832.413269,854.492615 
	C814.784912,854.809143 797.156189,855.449829 779.548828,856.372864 
	C774.742065,856.624939 773.388306,855.244568 772.905029,850.510864 
	C770.135254,823.376160 768.471985,796.074341 761.531128,769.500427 
	C761.093750,767.825684 762.724976,764.432983 764.314819,763.602234 
	C772.991211,759.068970 781.839783,754.814758 790.848511,750.980042 
	C804.763306,745.056885 818.902954,739.663574 832.849243,733.811951 
	C838.498962,731.441467 843.924011,731.667542 849.288147,734.093567 
	C856.971741,737.568542 863.494568,742.908447 866.607971,750.674500 
	C875.982605,774.059021 883.632568,798.075073 884.747498,823.447449 
	C885.940674,850.600464 872.021240,867.681824 845.383240,871.470154 
	C834.315979,873.044128 822.862549,871.973389 811.585388,871.932190 
	C809.705566,871.925293 807.829041,871.029968 804.618469,870.201172 
	C806.541809,868.602905 807.530457,867.781311 808.892822,866.821533 
M805.893555,777.358643 
	C814.546875,772.413757 823.200256,767.468933 831.853577,762.524048 
	C813.062439,763.461121 795.969238,768.030273 782.532837,784.016052 
	C791.960266,785.062073 798.517395,781.085144 805.893555,777.358643 
M833.498413,822.882324 
	C839.063843,822.882324 844.629211,822.882324 850.194641,822.882324 
	C850.191956,822.404236 850.189331,821.926208 850.186707,821.448120 
	C834.994629,816.974121 819.578979,814.127014 803.649048,816.476929 
	C800.331726,816.966309 797.207703,818.765991 793.994568,819.961914 
	C794.137939,820.698608 794.281250,821.435364 794.424561,822.172119 
	C807.116150,822.408752 819.807739,822.645325 833.498413,822.882324 
M815.473267,789.431641 
	C807.937134,789.846985 800.458801,790.423401 794.962219,796.858826 
	C811.638062,798.462708 828.025879,796.494629 844.426270,794.756836 
	C844.475586,794.034241 844.524963,793.311584 844.574280,792.588989 
	C835.170471,791.539001 825.766663,790.489014 815.473267,789.431641 
z"/>
<path fill="#FDFCFF" opacity="1.000000" stroke="none" 
	d="
M735.822510,500.978027 
	C742.292053,507.029175 748.388733,512.943542 754.675415,518.648376 
	C766.263428,529.163696 777.848633,539.687683 789.655273,549.954773 
	C797.901672,557.125854 801.235535,565.425781 799.337402,576.535217 
	C793.675354,609.673523 784.396423,641.787598 772.842773,673.265625 
	C766.246216,691.237976 758.659851,708.847290 752.074341,726.823425 
	C747.392517,739.603149 738.313904,744.699829 725.330933,745.051392 
	C715.361694,745.321289 705.389771,746.056702 695.462402,747.028503 
	C691.456848,747.420593 687.566956,748.993713 682.538025,750.314697 
	C683.957336,747.413147 684.848572,745.193420 686.063232,743.167603 
	C705.077698,711.454529 724.275269,679.850037 743.097900,648.023743 
	C749.027588,637.997620 750.718384,640.562927 741.332703,629.937317 
	C736.769897,624.771729 735.273560,620.034546 737.426025,612.833435 
	C744.983521,587.549683 744.317383,562.206177 734.822632,537.403381 
	C731.673584,529.177185 726.497070,522.675720 717.347412,520.249329 
	C715.385315,519.729004 713.712769,518.117004 711.217896,516.584839 
	C713.238098,514.519775 714.710754,512.841370 716.361572,511.361664 
	C720.203308,507.918030 724.330444,504.768311 727.957703,501.117798 
	C730.630920,498.427399 732.863770,498.007751 735.822510,500.978027 
z"/>
<path fill="#FDFDFF" opacity="1.000000" stroke="none" 
	d="
M406.475952,258.547546 
	C408.847198,270.555115 411.348846,282.076874 413.481934,293.666504 
	C414.645355,299.987427 412.828888,302.998444 408.206726,304.474609 
	C405.416504,305.365662 404.187805,304.581848 403.961639,301.636078 
	C402.303131,280.033813 383.843414,264.669342 365.832153,261.510468 
	C355.453125,259.690094 345.303955,260.410645 335.590576,264.898560 
	C333.518921,265.855743 331.346863,266.595673 328.538177,267.705536 
	C328.149414,264.932465 327.591309,262.725189 327.569855,260.512695 
	C327.421692,245.217041 326.340881,229.836960 327.553223,214.643066 
	C329.461578,190.726089 344.290131,175.218323 364.277740,163.867004 
	C376.322296,157.026718 389.374207,153.365952 402.953522,151.211212 
	C407.742371,150.451340 410.240051,152.077408 411.409149,156.948502 
	C414.731445,170.790863 414.166718,184.666504 412.522583,198.605515 
	C410.187561,218.401794 405.447968,237.952957 406.475952,258.547546 
z"/>
<path fill="#FDFDFF" opacity="1.000000" stroke="none" 
	d="
M521.016357,635.914062 
	C510.300018,612.561218 509.064850,588.373840 511.764008,563.706970 
	C511.995178,561.594238 512.710388,559.491638 513.471436,557.487061 
	C517.513977,546.838989 522.886475,543.544739 533.934509,546.325378 
	C544.380676,548.954468 554.844543,551.938354 564.790955,556.010864 
	C575.056702,560.214233 584.647278,566.043030 594.654785,570.910950 
	C599.403687,573.221008 604.464661,574.882263 609.319336,576.987122 
	C610.633728,577.557007 612.578796,578.581909 612.681519,579.560974 
	C612.814636,580.829285 611.722656,582.928528 610.577026,583.495117 
	C607.337280,585.097229 603.838135,586.217590 600.371704,587.306702 
	C596.709839,588.457458 592.967957,589.353271 588.441833,590.582947 
	C596.385376,592.811523 603.173706,594.742126 609.978333,596.613403 
	C613.131470,597.480408 614.297791,599.306091 614.538269,602.716736 
	C614.998535,609.243835 613.196960,613.927979 607.462585,617.741882 
	C601.118408,621.961487 595.428711,627.189392 589.586914,632.135254 
	C575.413330,644.135010 558.821838,651.076904 541.042236,655.556458 
	C539.121033,656.040588 537.098389,656.124634 535.121643,656.385254 
	C530.375366,657.010803 527.586365,654.780396 526.117615,650.391602 
	C524.534912,645.662292 522.803772,640.982666 521.016357,635.914062 
z"/>
<path fill="#FDFCFF" opacity="1.000000" stroke="none" 
	d="
M599.809021,718.240845 
	C584.594116,710.589355 569.763977,703.008423 554.844482,695.607666 
	C551.345520,693.872009 550.515991,691.922913 551.875183,688.131897 
	C556.594727,674.967957 565.042480,664.641418 575.863525,656.209229 
	C583.081116,650.585083 590.889099,645.723450 598.195862,640.206787 
	C602.006775,637.329590 604.213440,637.837402 606.985962,641.702698 
	C619.588684,659.272827 629.223389,678.434326 637.880249,698.136353 
	C642.301392,708.198303 646.528931,718.345886 650.782349,728.480591 
	C651.992126,731.363281 652.984985,734.336975 653.607239,738.037292 
	C634.995544,733.421387 617.468628,726.207764 599.809021,718.240845 
z"/>
<path fill="#FCFCFF" opacity="1.000000" stroke="none" 
	d="
M722.396790,547.735596 
	C729.413696,566.519958 731.581726,585.495300 728.861023,604.995178 
	C728.610657,606.790039 727.892334,608.517334 727.423523,610.284546 
	C726.267395,614.643005 723.746399,616.509277 719.011963,615.836243 
	C702.221008,613.449341 685.403931,611.240417 668.580750,609.089539 
	C663.696472,608.465149 661.088928,606.565063 661.958435,601.097839 
	C662.449402,598.011230 662.367371,594.742126 661.973389,591.627319 
	C661.381531,586.947693 663.727234,584.704712 667.780640,583.886047 
	C672.160461,583.001404 676.618225,582.502747 681.041931,581.835754 
	C681.122559,581.418091 681.203186,581.000427 681.283813,580.582764 
	C676.280396,579.798889 671.195496,578.070496 666.296082,578.492981 
	C661.247437,578.928345 659.276306,577.247131 658.210938,572.879944 
	C657.711304,570.832031 656.755127,568.895508 655.964478,566.798889 
	C667.593567,559.534424 678.792603,552.348450 690.191406,545.494446 
	C696.362671,541.783691 702.925110,539.283325 710.506348,539.716187 
	C716.201233,540.041260 719.959229,542.327393 722.396790,547.735596 
z"/>
<path fill="#FCFBFF" opacity="1.000000" stroke="none" 
	d="
M670.729614,827.151245 
	C670.451355,810.518738 670.298584,794.364014 669.818237,778.218933 
	C669.704102,774.384277 671.078064,772.565918 674.665405,772.274414 
	C682.118591,771.668884 689.582214,771.192261 697.037048,770.606079 
	C700.557007,770.329224 701.214661,772.868835 701.599426,775.356201 
	C703.430298,787.190674 705.591736,798.998962 706.783508,810.901855 
	C708.939514,832.434570 710.378479,854.038330 712.393677,875.586548 
	C712.764832,879.555664 711.591309,880.882629 707.845459,881.459167 
	C698.301636,882.928223 688.782532,884.604553 679.316345,886.510010 
	C675.163330,887.346008 674.131836,885.860168 673.931580,881.984558 
	C672.995239,863.860535 671.823059,845.748657 670.729614,827.151245 
z"/>
<path fill="#FAFAFE" opacity="1.000000" stroke="none" 
	d="
M652.777344,699.220947 
	C642.395447,675.568298 632.760193,651.964294 617.428711,631.291260 
	C616.333069,629.813904 615.926453,626.515381 616.833130,625.142761 
	C618.584167,622.491699 619.762085,618.966003 624.351990,618.784363 
	C629.198059,618.592651 634.286560,617.818665 638.744873,616.008057 
	C646.734741,612.763428 653.600220,613.349670 660.889771,618.129761 
	C666.480103,621.795654 673.043884,623.955566 679.055908,627.018677 
	C680.196289,627.599609 681.585327,629.335388 681.502258,630.435852 
	C679.113281,662.081787 679.599426,694.002563 672.699036,725.222107 
	C672.153198,727.691589 671.172485,730.065002 670.393921,732.483032 
	C669.749329,732.575012 669.104675,732.667053 668.460083,732.759033 
	C663.284607,721.694885 658.109131,710.630737 652.777344,699.220947 
M655.446472,650.717346 
	C661.908325,648.995850 665.077759,643.157471 661.208313,639.312988 
	C659.344360,637.461121 655.464539,636.134277 653.078186,636.765259 
	C650.989929,637.317566 648.681702,640.786987 648.311707,643.244873 
	C647.692932,647.355530 650.564819,649.897034 655.446472,650.717346 
M660.415527,685.195374 
	C664.476501,686.440247 668.181213,685.299194 669.472412,681.477844 
	C670.240845,679.203735 669.316040,675.483154 667.766052,673.492188 
	C665.010010,669.952148 660.298401,670.515991 657.434143,673.901550 
	C654.575989,677.279907 655.368591,681.098389 660.415527,685.195374 
z"/>
<path fill="#FBFAFF" opacity="1.000000" stroke="none" 
	d="
M473.613770,67.032425 
	C478.570831,70.047470 478.255585,73.454758 473.298157,76.293388 
	C469.860474,78.261803 466.476868,80.337784 463.168091,82.516060 
	C446.312286,93.612846 434.584564,109.177216 424.785583,126.471420 
	C419.408722,135.961075 411.491150,139.169174 400.398193,137.753769 
	C393.943542,136.930222 386.999634,139.177200 380.388947,140.576752 
	C374.870880,141.744980 369.527313,143.725769 364.083099,145.264023 
	C362.897949,145.598877 361.613403,145.582077 358.825714,145.908768 
	C361.909058,140.895508 364.097656,136.859100 366.730347,133.136780 
	C380.205902,114.083649 398.105408,99.903313 418.432098,89.146545 
	C433.385559,81.233238 449.336334,75.188858 464.931702,68.519882 
	C467.449127,67.443375 470.431580,67.454369 473.613770,67.032425 
z"/>
<path fill="#FBFBFF" opacity="1.000000" stroke="none" 
	d="
M683.278931,710.277588 
	C685.918457,684.527405 688.638672,659.217041 690.897339,633.865540 
	C691.290771,629.450134 692.574890,627.310669 696.835632,626.245056 
	C711.270447,622.635010 726.328369,627.935791 734.654663,640.181580 
	C735.723816,641.753906 736.309387,644.852051 735.485596,646.337585 
	C719.165588,675.766479 702.655762,705.093933 682.536316,732.181946 
	C681.501221,733.575562 680.293274,734.840759 679.165771,736.165771 
	C678.773987,735.986938 678.382202,735.808105 677.990417,735.629211 
	C679.727966,727.320679 681.465515,719.012085 683.278931,710.277588 
z"/>
<path fill="#FBFAFF" opacity="1.000000" stroke="none" 
	d="
M729.225708,767.147339 
	C745.154358,767.522217 743.371704,764.139160 749.531189,781.342712 
	C758.008850,805.020996 759.622864,829.762939 759.953125,854.655884 
	C759.997559,858.003784 758.861206,859.838379 755.507690,860.684753 
	C748.970642,862.334595 742.511230,864.292114 735.218689,866.348083 
	C734.094543,857.388550 733.228516,849.677063 732.144104,841.996460 
	C728.980408,819.590637 725.744934,797.194946 722.503967,774.800110 
	C721.482178,767.740356 721.587524,767.558838 729.225708,767.147339 
z"/>
<path fill="#FBFBFF" opacity="1.000000" stroke="none" 
	d="
M677.093323,942.959290 
	C676.754639,931.494324 676.502441,920.518311 676.114746,909.546997 
	C676.010254,906.591370 676.712280,905.084106 680.078186,904.656067 
	C685.339722,903.987000 690.506592,902.580994 695.718933,901.513672 
	C698.647949,900.913879 700.416809,901.742615 700.972412,905.056702 
	C704.351746,925.214478 708.145813,945.307129 711.223877,965.509460 
	C713.218140,978.598572 712.787842,978.700439 700.220581,982.387268 
	C697.196655,983.274414 694.108643,984.023376 690.999512,984.517334 
	C687.572571,985.061829 684.087280,985.239624 679.497314,985.687378 
	C678.698547,971.442749 677.913757,957.446350 677.093323,942.959290 
z"/>
<path fill="#FAFAFE" opacity="1.000000" stroke="none" 
	d="
M460.771362,545.378418 
	C472.084229,546.657593 482.969299,548.033813 493.893951,548.924500 
	C498.495361,549.299683 500.212097,550.868347 499.016510,555.470093 
	C498.014160,559.328003 497.615875,563.362793 496.365112,567.124817 
	C495.948517,568.377869 493.514191,570.037659 492.350616,569.800720 
	C478.419342,566.964478 464.918518,562.756775 453.270111,554.286682 
	C450.473877,552.253357 448.556824,548.894592 446.597046,545.908020 
	C446.098816,545.148743 446.596161,543.060913 447.354309,542.355591 
	C448.019104,541.737122 449.766937,541.926025 450.903503,542.239624 
	C454.092285,543.119690 457.212372,544.248535 460.771362,545.378418 
z"/>
<path fill="#F8F6FE" opacity="1.000000" stroke="none" 
	d="
M618.807739,549.138550 
	C633.631836,546.289429 647.981018,543.463501 662.335205,540.663391 
	C663.921387,540.354004 665.536438,540.192627 668.405273,539.780640 
	C667.010986,541.522644 666.507935,542.452026 665.746521,543.055603 
	C658.702759,548.639160 651.641846,554.202332 644.513489,559.677063 
	C643.240173,560.654907 641.662781,561.780945 640.177246,561.854309 
	C624.426086,562.631653 609.192383,561.070923 596.099792,550.995544 
	C595.085999,550.215393 594.204651,549.262939 593.513306,547.273499 
	C601.786987,547.905396 610.060608,548.537292 618.807739,549.138550 
z"/>
<path fill="#F9F8FE" opacity="1.000000" stroke="none" 
	d="
M636.601929,604.132446 
	C634.332886,604.206238 632.501770,604.206177 630.672668,604.268005 
	C627.571960,604.372742 625.566772,603.042114 624.916443,599.932495 
	C623.691833,594.077454 622.364685,588.239807 621.326843,582.351501 
	C620.786743,579.286743 621.761108,576.722778 625.175964,575.763428 
	C625.650452,575.630127 626.079895,575.342407 626.538208,575.144775 
	C634.481140,571.719604 641.076416,572.473511 644.911499,577.241821 
	C649.510498,582.959900 650.034241,593.414062 645.269043,599.159729 
	C643.344360,601.480408 639.831055,602.483643 636.601929,604.132446 
z"/>
<path fill="#634BED" opacity="1.000000" stroke="none" 
	d="
M724.114685,353.681702 
	C727.312317,344.773102 724.476624,337.699646 719.035217,331.132782 
	C708.513855,318.435333 697.644226,305.991425 687.751648,292.817200 
	C676.066711,277.256256 666.735352,260.349487 663.751465,240.677917 
	C663.329285,237.894592 663.128540,235.016434 663.347412,232.223099 
	C663.455994,230.837463 664.750977,229.544785 665.509216,228.210052 
	C666.790405,229.101044 668.160645,229.892563 669.315063,230.925339 
	C669.885071,231.435333 670.172852,232.358368 670.391724,233.148941 
	C675.817322,252.751205 687.534790,268.884247 699.913757,284.331482 
	C712.181641,299.640015 725.589355,314.062714 738.952332,328.451172 
	C743.619019,333.475922 745.171631,338.306061 742.993286,344.686340 
	C741.165649,350.039337 739.755798,355.533844 738.004700,360.914886 
	C737.623840,362.085236 736.806885,363.395233 735.804321,364.040192 
	C715.829285,376.888824 695.396118,388.985077 671.499756,392.788361 
	C661.375610,394.399719 650.958435,394.192780 640.669495,394.712769 
	C639.598083,394.766907 638.220581,394.457214 637.444641,393.785522 
	C629.280029,386.717712 624.675354,368.788757 634.151978,358.102448 
	C635.195984,361.920258 636.079102,365.133850 636.953308,368.349884 
	C640.031311,379.672607 643.198242,382.095062 654.851440,382.404694 
	C668.052490,382.755493 680.098267,378.509521 691.890320,373.260895 
	C700.109375,369.602570 708.197449,365.643768 716.471313,362.117859 
	C720.312195,360.481079 722.826111,358.013397 724.114685,353.681702 
z"/>
<path fill="#6249ED" opacity="1.000000" stroke="none" 
	d="
M590.332764,439.756897 
	C604.757446,450.002319 620.981628,453.355011 637.808167,453.982056 
	C653.938904,454.583221 670.101379,454.319824 686.249329,454.489990 
	C688.306152,454.511688 690.359497,454.857300 692.810974,455.090607 
	C689.622925,462.205658 684.852539,466.563690 678.099426,468.507812 
	C657.584290,474.413788 636.789246,475.480408 615.879944,471.109497 
	C604.818542,468.797180 596.389038,462.127777 589.478455,453.356812 
	C582.481079,444.475677 575.339783,435.707977 568.325562,426.839966 
	C566.874878,425.005981 564.285767,423.041016 567.559143,420.635010 
	C570.537720,418.445618 574.004639,419.422241 576.113708,422.198883 
	C580.598022,428.102600 585.377502,433.782227 590.332764,439.756897 
z"/>
<path fill="#6048ED" opacity="1.000000" stroke="none" 
	d="
M678.721741,414.431274 
	C678.893616,419.707428 679.225220,424.538635 679.022949,429.347412 
	C678.972656,430.541534 677.215027,432.652130 676.207520,432.673096 
	C651.359253,433.190002 626.892151,430.832153 604.343811,419.454712 
	C597.661743,416.083069 591.985291,410.608032 586.143494,405.742035 
	C584.121643,404.057922 582.994934,401.299194 580.882202,398.178864 
	C590.044495,400.647614 597.890442,403.253601 605.937805,404.835724 
	C628.101440,409.193298 650.615234,408.988251 673.072876,409.082397 
	C676.807190,409.098053 678.819946,410.034454 678.721741,414.431274 
z"/>
<path fill="#634BED" opacity="1.000000" stroke="none" 
	d="
M613.341064,265.919189 
	C618.000916,276.866425 611.205078,285.977051 600.520508,290.055725 
	C586.549011,295.389038 572.035950,294.532471 558.391296,287.835266 
	C552.578918,284.982391 550.695862,280.102753 552.182190,275.164459 
	C553.087708,272.155701 554.774597,270.633514 558.000977,271.136047 
	C563.750061,272.031494 569.475891,273.353271 575.257996,273.684998 
	C581.328613,274.033325 587.571045,274.096436 593.522644,273.053406 
	C599.536743,271.999481 599.927612,269.704132 597.279419,264.171387 
	C592.477722,254.139725 587.447571,244.170486 583.483093,233.804108 
	C581.377991,228.299744 581.309143,222.016586 580.321167,216.084976 
	C580.886841,215.918442 581.452515,215.751907 582.018127,215.585358 
	C582.450378,216.131317 583.058411,216.611893 583.289307,217.232742 
	C590.024353,235.342850 599.136475,251.976761 613.341064,265.919189 
z"/>
<path fill="#6249ED" opacity="1.000000" stroke="none" 
	d="
M511.550262,183.571014 
	C506.528381,191.007812 501.790771,198.212097 496.949432,205.345963 
	C495.974304,206.782867 494.605682,207.952744 493.418549,209.245758 
	C492.037598,207.695694 489.778778,206.302826 489.466888,204.561295 
	C488.898499,201.387299 488.762878,197.782822 489.703674,194.747559 
	C497.002167,171.200974 512.929504,155.927490 536.236511,148.757965 
	C545.129639,146.022308 553.835571,148.400864 560.503174,155.404877 
	C562.218628,157.206894 563.517517,159.903244 563.907776,162.363220 
	C564.672424,167.182983 562.553772,169.032303 557.724426,168.443451 
	C540.105225,166.295074 524.238770,169.497818 511.550262,183.571014 
z"/>
<path fill="#6048ED" opacity="1.000000" stroke="none" 
	d="
M688.666748,411.840912 
	C689.722351,410.123199 690.579651,407.833130 691.719360,407.682709 
	C713.605591,404.793701 731.938904,393.272827 751.033813,383.599396 
	C751.445923,383.390656 751.957336,383.377930 752.576416,383.239319 
	C752.657898,383.780792 752.935913,384.344177 752.762817,384.661316 
	C740.461426,407.197144 724.668030,425.541626 697.656189,430.327301 
	C696.186218,430.587708 694.700195,430.760529 693.218811,430.953033 
	C690.387268,431.320953 688.766113,430.342651 688.772705,427.214752 
	C688.783264,422.231537 688.664185,417.248047 688.666748,411.840912 
z"/>
<path fill="#634BED" opacity="1.000000" stroke="none" 
	d="
M766.111084,252.767700 
	C767.688538,255.548889 768.915710,258.129028 770.546631,260.422089 
	C773.250244,264.223511 772.124329,267.146851 768.994141,269.925415 
	C760.484558,277.479279 750.544556,281.736786 739.235352,282.572174 
	C730.462524,283.220245 723.972229,279.381042 721.533142,272.542175 
	C719.762146,267.576660 720.563354,265.645233 725.688477,264.859314 
	C733.233276,263.702332 740.873047,263.180420 748.448120,262.200775 
	C756.927246,261.104279 757.434387,260.122833 754.451416,252.037262 
	C750.543457,241.444000 745.973755,231.022232 745.894470,219.425476 
	C745.885437,218.097687 745.917908,216.767899 745.994812,215.442734 
	C746.009705,215.186157 746.321289,214.946762 746.923889,214.093689 
	C753.369812,227.089767 759.655945,239.763718 766.111084,252.767700 
z"/>
<path fill="#644CED" opacity="1.000000" stroke="none" 
	d="
M379.586304,316.457550 
	C383.935364,325.055359 384.994385,333.702087 383.430023,342.668854 
	C382.965881,342.876923 382.501770,343.084991 382.037659,343.293030 
	C379.524811,338.951538 377.033417,334.597412 374.491943,330.272736 
	C372.645081,327.130066 371.087738,323.727020 368.769562,320.971588 
	C364.755157,316.199951 358.353821,316.579041 355.491180,322.074860 
	C353.491333,325.914246 352.452789,330.502197 352.024323,334.858063 
	C351.252930,342.700378 351.261444,350.619415 350.398804,358.574127 
	C344.894562,351.990021 343.361572,344.161224 343.660583,336.103607 
	C343.958954,328.063171 345.223755,320.058594 346.108551,311.621185 
	C340.560028,308.971771 336.924927,313.699402 332.613342,316.746613 
	C333.981323,303.380219 345.968719,294.933624 358.210388,298.432068 
	C367.863281,301.190674 374.786682,307.302948 379.586304,316.457550 
z"/>
<path fill="#6A53EE" opacity="1.000000" stroke="none" 
	d="
M805.570435,777.539978 
	C798.517395,781.085144 791.960266,785.062073 782.532837,784.016052 
	C795.969238,768.030273 813.062439,763.461121 831.853577,762.524048 
	C823.200256,767.468933 814.546875,772.413757 805.570435,777.539978 
z"/>
<path fill="#715BEE" opacity="1.000000" stroke="none" 
	d="
M832.998901,822.882141 
	C819.807739,822.645325 807.116150,822.408752 794.424561,822.172119 
	C794.281250,821.435364 794.137939,820.698608 793.994568,819.961914 
	C797.207703,818.765991 800.331726,816.966309 803.649048,816.476929 
	C819.578979,814.127014 834.994629,816.974121 850.186707,821.448120 
	C850.189331,821.926208 850.191956,822.404236 850.194641,822.882324 
	C844.629211,822.882324 839.063843,822.882324 832.998901,822.882141 
z"/>
<path fill="#6A53EE" opacity="1.000000" stroke="none" 
	d="
M815.918091,789.435303 
	C825.766663,790.489014 835.170471,791.539001 844.574280,792.588989 
	C844.524963,793.311584 844.475586,794.034241 844.426270,794.756836 
	C828.025879,796.494629 811.638062,798.462708 794.962219,796.858826 
	C800.458801,790.423401 807.937134,789.846985 815.918091,789.435303 
z"/>
<path fill="#6A53EE" opacity="1.000000" stroke="none" 
	d="
M655.070068,650.702515 
	C650.564819,649.897034 647.692932,647.355530 648.311707,643.244873 
	C648.681702,640.786987 650.989929,637.317566 653.078186,636.765259 
	C655.464539,636.134277 659.344360,637.461121 661.208313,639.312988 
	C665.077759,643.157471 661.908325,648.995850 655.070068,650.702515 
z"/>
<path fill="#644CED" opacity="1.000000" stroke="none" 
	d="
M660.065002,685.041138 
	C655.368591,681.098389 654.575989,677.279907 657.434143,673.901550 
	C660.298401,670.515991 665.010010,669.952148 667.766052,673.492188 
	C669.316040,675.483154 670.240845,679.203735 669.472412,681.477844 
	C668.181213,685.299194 664.476501,686.440247 660.065002,685.041138 
z"/>
</svg>