<svg version="1.1" id="Layer_1" xmlns="http://www.w3.org/2000/svg" xmlns:xlink="http://www.w3.org/1999/xlink" x="0px" y="0px"
	 width="100%" viewBox="0 0 1080 1080" enable-background="new 0 0 1080 1080" xml:space="preserve">
<path fill="#FEFEFF" opacity="1.000000" stroke="none" 
	d="
M634.000000,1081.000000 
	C422.691010,1081.000000 211.881989,1081.000000 1.036494,1081.000000 
	C1.036494,721.065857 1.036494,361.131744 1.036494,1.098807 
	C360.892548,1.098807 720.785156,1.098807 1080.838867,1.098807 
	C1080.838867,360.999939 1080.838867,720.999939 1080.838867,1081.000000 
	C932.131287,1081.000000 783.315613,1081.000000 634.000000,1081.000000 
M501.500000,1047.823730 
	C676.994751,1047.823242 852.489502,1047.822998 1027.984253,1047.822021 
	C1035.520508,1047.822021 1035.754150,1047.602539 1035.754272,1039.878052 
	C1035.757812,711.219849 1035.757812,382.561707 1035.753296,53.903515 
	C1035.753174,46.530403 1035.388794,46.178459 1028.265503,46.178444 
	C699.607361,46.177673 370.949219,46.177551 42.291065,46.177971 
	C34.133308,46.177982 34.118496,46.181213 34.118439,54.123150 
	C34.116066,382.781311 34.116142,711.439514 34.119144,1040.097656 
	C34.119213,1047.817871 34.136303,1047.821655 42.011864,1047.821777 
	C194.841248,1047.822876 347.670624,1047.823120 501.500000,1047.823730 
z"/>
<path fill="#6C55EE" opacity="1.000000" stroke="none" 
	d="
M501.000000,1047.823608 
	C347.670624,1047.823120 194.841248,1047.822876 42.011864,1047.821777 
	C34.136303,1047.821655 34.119213,1047.817871 34.119144,1040.097656 
	C34.116142,711.439514 34.116066,382.781311 34.118439,54.123150 
	C34.118496,46.181213 34.133308,46.177982 42.291065,46.177971 
	C370.949219,46.177551 699.607361,46.177673 1028.265503,46.178444 
	C1035.388794,46.178459 1035.753174,46.530403 1035.753296,53.903515 
	C1035.757812,382.561707 1035.757812,711.219849 1035.754272,1039.878052 
	C1035.754150,1047.602539 1035.520508,1047.822021 1027.984253,1047.822021 
	C852.489502,1047.822998 676.994751,1047.823242 501.000000,1047.823608 
M886.542969,604.031250 
	C899.719421,595.630920 912.881714,587.208252 926.083313,578.847595 
	C928.957275,577.027466 930.022156,575.216980 927.697449,572.004456 
	C923.901733,566.758972 920.658447,561.113037 916.849060,555.878296 
	C902.000610,535.474182 882.958191,520.221558 859.386597,511.170258 
	C833.084961,501.070618 805.690247,499.308228 777.833740,501.846680 
	C749.280518,504.448730 723.332825,513.615234 701.055359,531.992065 
	C681.880615,547.809448 669.262146,567.841309 662.714050,591.894165 
	C658.670959,606.745605 658.193848,621.777405 658.957703,636.922058 
	C660.119507,659.955200 666.440674,681.473083 679.396545,700.715454 
	C694.769775,723.548157 716.106262,739.692505 740.347046,751.700134 
	C764.903320,763.864075 790.221069,774.486877 815.158936,785.886353 
	C828.497803,791.983765 841.590271,798.501038 851.981567,809.293579 
	C869.382996,827.367126 866.893738,857.641968 846.470703,872.059143 
	C824.949829,887.251221 800.863037,888.163391 776.174866,883.201477 
	C749.224182,877.784912 729.461731,861.728699 714.180908,839.520935 
	C711.751587,835.990356 709.275452,832.491882 706.583252,828.638306 
	C702.170471,831.216919 698.179932,833.555359 694.183105,835.883179 
	C674.067383,847.599121 653.967163,859.341858 633.811035,870.987976 
	C631.360779,872.403748 630.427429,873.555786 632.023682,876.440857 
	C645.281860,900.404053 662.701172,920.586731 685.361816,936.148010 
	C715.863281,957.093750 750.120361,966.685059 786.568726,968.792542 
	C818.748108,970.653259 850.366089,967.263000 880.424744,954.594971 
	C907.635071,943.127319 929.467529,925.364319 943.448059,898.959900 
	C952.129700,882.563232 956.415527,864.968201 957.290161,846.353455 
	C958.125488,828.576782 956.738647,811.150085 951.809509,794.069458 
	C943.653625,765.807678 925.821960,744.677490 902.417908,727.733704 
	C874.969299,707.861816 843.826050,695.196655 813.043762,681.797241 
	C797.368774,674.973877 781.583252,668.416931 767.716492,657.982727 
	C746.458740,641.987000 745.346008,606.892700 767.471375,591.026794 
	C782.050293,580.572327 811.306763,580.161316 828.401489,590.817383 
	C838.665649,597.215698 846.350098,606.039185 852.575500,616.219666 
	C857.641052,624.503479 857.427917,622.815857 864.122375,618.459961 
	C871.369080,613.744446 878.667725,609.108765 886.542969,604.031250 
M465.753723,967.152039 
	C477.521576,964.364258 489.672638,962.643433 500.982605,958.580872 
	C530.297485,948.051147 551.873779,928.596497 565.213501,900.074951 
	C575.667725,877.722900 579.551636,854.021057 579.622253,829.786255 
	C579.931091,723.796753 579.731140,617.805786 579.876221,511.815643 
	C579.882812,506.975067 578.222168,505.995392 573.821106,506.021942 
	C546.657837,506.186005 519.493164,506.104218 492.328949,506.106415 
	C485.249420,506.106995 485.242950,506.110718 485.242828,513.208801 
	C485.240814,615.866150 485.270020,718.523499 485.183838,821.180786 
	C485.177002,829.315308 484.888550,837.517639 483.822205,845.567993 
	C482.038330,859.035156 477.353119,871.588867 464.653381,878.280640 
	C457.966858,881.804016 449.974182,883.380188 442.374237,884.508789 
	C432.065399,886.039795 421.884888,884.639526 412.171478,880.203674 
	C399.078949,874.224670 391.042633,863.299744 383.506470,851.830200 
	C380.345032,847.018799 377.484924,842.009338 374.301239,836.783691 
	C350.154724,851.405640 326.635956,865.798767 302.920288,879.859863 
	C298.955719,882.210571 298.272827,884.361023 300.294189,888.164856 
	C311.622559,909.482544 326.245026,927.997192 346.163757,941.954041 
	C366.322327,956.079102 388.768585,964.082031 413.151184,967.234070 
	C430.432495,969.468079 447.625885,969.829041 465.753723,967.152039 
z"/>
<path fill="#E6E2FC" opacity="1.000000" stroke="none" 
	d="
M886.243347,604.234741 
	C878.667725,609.108765 871.369080,613.744446 864.122375,618.459961 
	C857.427917,622.815857 857.641052,624.503479 852.575500,616.219666 
	C846.350098,606.039185 838.665649,597.215698 828.401489,590.817383 
	C811.306763,580.161316 782.050293,580.572327 767.471375,591.026794 
	C745.346008,606.892700 746.458740,641.987000 767.716492,657.982727 
	C781.583252,668.416931 797.368774,674.973877 813.043762,681.797241 
	C843.826050,695.196655 874.969299,707.861816 902.417908,727.733704 
	C925.821960,744.677490 943.653625,765.807678 951.809509,794.069458 
	C956.738647,811.150085 958.125488,828.576782 957.290161,846.353455 
	C956.415527,864.968201 952.129700,882.563232 943.448059,898.959900 
	C929.467529,925.364319 907.635071,943.127319 880.424744,954.594971 
	C850.366089,967.263000 818.748108,970.653259 786.568726,968.792542 
	C750.120361,966.685059 715.863281,957.093750 685.361816,936.148010 
	C662.701172,920.586731 645.281860,900.404053 632.023682,876.440857 
	C630.427429,873.555786 631.360779,872.403748 633.811035,870.987976 
	C653.967163,859.341858 674.067383,847.599121 694.183105,835.883179 
	C698.179932,833.555359 702.170471,831.216919 706.583252,828.638306 
	C709.275452,832.491882 711.751587,835.990356 714.180908,839.520935 
	C729.461731,861.728699 749.224182,877.784912 776.174866,883.201477 
	C800.863037,888.163391 824.949829,887.251221 846.470703,872.059143 
	C866.893738,857.641968 869.382996,827.367126 851.981567,809.293579 
	C841.590271,798.501038 828.497803,791.983765 815.158936,785.886353 
	C790.221069,774.486877 764.903320,763.864075 740.347046,751.700134 
	C716.106262,739.692505 694.769775,723.548157 679.396545,700.715454 
	C666.440674,681.473083 660.119507,659.955200 658.957703,636.922058 
	C658.193848,621.777405 658.670959,606.745605 662.714050,591.894165 
	C669.262146,567.841309 681.880615,547.809448 701.055359,531.992065 
	C723.332825,513.615234 749.280518,504.448730 777.833740,501.846680 
	C805.690247,499.308228 833.084961,501.070618 859.386597,511.170258 
	C882.958191,520.221558 902.000610,535.474182 916.849060,555.878296 
	C920.658447,561.113037 923.901733,566.758972 927.697449,572.004456 
	C930.022156,575.216980 928.957275,577.027466 926.083313,578.847595 
	C912.881714,587.208252 899.719421,595.630920 886.243347,604.234741 
z"/>
<path fill="#E6E2FC" opacity="1.000000" stroke="none" 
	d="
M465.310150,967.209595 
	C447.625885,969.829041 430.432495,969.468079 413.151184,967.234070 
	C388.768585,964.082031 366.322327,956.079102 346.163757,941.954041 
	C326.245026,927.997192 311.622559,909.482544 300.294189,888.164856 
	C298.272827,884.361023 298.955719,882.210571 302.920288,879.859863 
	C326.635956,865.798767 350.154724,851.405640 374.301239,836.783691 
	C377.484924,842.009338 380.345032,847.018799 383.506470,851.830200 
	C391.042633,863.299744 399.078949,874.224670 412.171478,880.203674 
	C421.884888,884.639526 432.065399,886.039795 442.374237,884.508789 
	C449.974182,883.380188 457.966858,881.804016 464.653381,878.280640 
	C477.353119,871.588867 482.038330,859.035156 483.822205,845.567993 
	C484.888550,837.517639 485.177002,829.315308 485.183838,821.180786 
	C485.270020,718.523499 485.240814,615.866150 485.242828,513.208801 
	C485.242950,506.110718 485.249420,506.106995 492.328949,506.106415 
	C519.493164,506.104218 546.657837,506.186005 573.821106,506.021942 
	C578.222168,505.995392 579.882812,506.975067 579.876221,511.815643 
	C579.731140,617.805786 579.931091,723.796753 579.622253,829.786255 
	C579.551636,854.021057 575.667725,877.722900 565.213501,900.074951 
	C551.873779,928.596497 530.297485,948.051147 500.982605,958.580872 
	C489.672638,962.643433 477.521576,964.364258 465.310150,967.209595 
z"/>
</svg>