<svg version="1.1" id="Layer_1" xmlns="http://www.w3.org/2000/svg" xmlns:xlink="http://www.w3.org/1999/xlink" x="0px" y="0px"
	 width="100%" viewBox="0 0 1080 1080" enable-background="new 0 0 1080 1080" xml:space="preserve">
<path fill="#FFFEFF" opacity="1.000000" stroke="none" 
	d="
M688.000000,1081.000000 
	C458.693085,1081.000000 229.886139,1081.000000 1.039609,1081.000000 
	C1.039609,721.067932 1.039609,361.135895 1.039609,1.101922 
	C360.890472,1.101922 720.781006,1.101922 1080.835693,1.101922 
	C1080.835693,360.999939 1080.835693,720.999939 1080.835693,1081.000000 
	C950.135437,1081.000000 819.317688,1081.000000 688.000000,1081.000000 
M692.746033,569.215515 
	C698.206909,552.839111 703.900208,536.535522 709.066895,520.066833 
	C714.854065,501.620331 718.125427,482.605682 719.913269,463.395386 
	C722.153503,439.323944 723.278687,415.163422 720.677856,391.059692 
	C718.753967,373.229584 716.764832,355.336029 713.315186,337.763153 
	C710.511597,323.481628 706.205872,309.380646 701.300720,295.651794 
	C693.209656,273.006042 685.290161,250.170563 675.171204,228.403946 
	C652.899780,180.496323 622.461975,138.018234 584.951233,100.768822 
	C571.127930,87.041817 559.018738,72.299728 550.977722,54.361683 
	C547.150452,45.823708 542.418823,37.691147 537.967590,29.126160 
	C536.376526,35.073803 535.337585,40.744236 533.339905,46.053955 
	C529.154175,57.179203 520.164734,64.603363 511.982483,72.660583 
	C498.591949,85.846504 484.637390,98.577377 472.370850,112.754868 
	C459.343689,127.811485 446.420227,143.389740 436.314758,160.437485 
	C422.386780,183.933701 408.015137,207.413361 398.415466,233.256027 
	C392.581512,248.961243 386.129517,264.464966 380.988403,280.392731 
	C373.574768,303.360687 368.922119,327.006836 365.689453,350.946869 
	C361.786926,379.847687 358.164368,408.724792 361.182281,437.981537 
	C362.377533,449.568787 362.581055,461.298492 364.434967,472.769592 
	C368.873962,500.236084 376.364532,526.898132 386.710083,552.794739 
	C405.052948,598.709839 431.576874,639.360474 464.514618,676.041626 
	C482.244446,695.786438 501.829193,713.515015 522.156372,730.495789 
	C524.185364,732.190796 526.240173,734.718628 526.782104,737.189148 
	C530.125183,752.429565 533.686584,767.672119 535.880798,783.098206 
	C537.536438,794.737671 537.118774,806.662292 537.967773,818.435181 
	C538.127502,820.649719 539.361572,823.879456 541.042358,824.692566 
	C546.753357,827.455383 552.886475,829.345642 559.599304,831.844971 
	C559.599304,828.823792 559.817932,826.851440 559.566406,824.940857 
	C556.055115,798.265503 558.277954,771.739075 562.204285,745.355469 
	C563.402527,737.303223 567.273193,729.538696 574.035706,724.555481 
	C589.260010,713.336487 602.572449,700.115662 615.708618,686.657288 
	C633.773132,668.149841 650.607971,648.554565 663.424438,626.041199 
	C673.835693,607.752808 682.847473,588.667725 692.746033,569.215515 
M767.545044,954.501709 
	C767.501892,958.834717 767.612244,963.175903 767.382385,967.498962 
	C766.952820,975.578064 764.830811,977.961121 757.056824,979.877441 
	C754.964905,980.393066 752.172607,980.577637 751.060791,981.986572 
	C749.269775,984.256104 748.466919,987.377258 747.660522,990.254578 
	C747.567627,990.586060 750.127502,992.319031 751.429932,992.286804 
	C779.871277,991.583923 808.410645,994.800903 836.753967,990.524597 
	C851.251465,988.337219 864.535278,982.821716 876.511047,974.324280 
	C894.504333,961.557190 904.621948,943.811462 907.321960,922.253967 
	C909.686951,903.371399 908.333496,884.663086 898.427429,867.626892 
	C883.807190,842.483337 860.907104,831.842529 832.787659,831.253174 
	C806.145447,830.694824 779.490112,830.763489 752.840515,830.560852 
	C752.007874,830.554504 751.159180,830.500366 750.344971,830.633545 
	C747.475586,831.102966 742.817017,836.614746 743.312927,839.336060 
	C744.034241,843.294189 747.549377,842.201843 750.168274,842.707703 
	C753.101990,843.274353 755.997009,844.061035 758.943420,844.538757 
	C764.156311,845.384033 766.860107,848.521057 767.338196,853.596008 
	C767.790527,858.398010 768.287964,863.224976 768.261658,868.038208 
	C768.106323,896.527405 767.804199,925.015808 767.545044,954.501709 
M966.501587,831.479919 
	C961.669739,831.481445 956.837524,831.521362 952.006104,831.475281 
	C945.009216,831.408630 938.012329,831.177612 931.016479,831.213196 
	C926.310547,831.237122 924.658264,834.870117 924.335938,838.567810 
	C923.979736,842.652527 927.766724,842.161255 930.433716,842.604614 
	C933.212341,843.066589 935.986389,843.560059 938.772278,843.973206 
	C944.475586,844.819153 946.499512,848.445984 946.478088,853.815918 
	C946.325073,892.135925 946.263184,930.456482 946.022583,968.775940 
	C945.977234,975.998047 943.481873,978.352234 936.186218,979.529663 
	C933.888306,979.900452 931.557922,980.206482 929.330750,980.848572 
	C925.135010,982.058105 923.767517,985.692444 923.842285,989.352478 
	C923.860352,990.238647 928.016174,991.733154 930.289490,991.772217 
	C951.271362,992.132324 972.259705,992.496887 993.242065,992.333923 
	C1012.458557,992.184692 1029.937256,986.528503 1044.711914,973.802551 
	C1065.760864,955.672180 1066.206177,918.552002 1035.541748,905.591614 
	C1031.982788,904.087463 1028.450806,902.519653 1024.185913,900.668579 
	C1027.653320,898.447449 1030.348999,896.839905 1032.919556,895.052429 
	C1041.796631,888.879944 1047.012939,880.451172 1047.382080,869.576782 
	C1048.167358,846.445740 1032.224121,834.677979 1012.905701,832.482239 
	C997.926453,830.779785 982.647644,831.713074 966.501587,831.479919 
M203.766663,979.193848 
	C199.177704,977.654175 197.461380,974.510437 197.534790,969.658752 
	C197.756638,954.997009 197.922119,940.323608 197.555695,925.668701 
	C197.395279,919.253540 196.586243,912.677307 194.861847,906.512634 
	C190.161026,889.707397 174.521393,880.138977 157.855499,884.691833 
	C149.542206,886.963013 141.725113,891.556213 134.163055,895.928406 
	C126.674980,900.257874 127.062874,900.611206 121.527428,894.063477 
	C114.565018,885.827820 105.807877,882.199341 94.907684,884.160706 
	C85.153725,885.915710 76.877022,890.703491 68.852104,896.140259 
	C67.160515,897.286255 65.353394,898.261841 62.523853,899.962402 
	C62.523853,895.327515 62.426155,891.905701 62.550621,888.491943 
	C62.681889,884.891785 61.465309,883.742004 57.766796,884.785095 
	C51.375885,886.587524 44.854858,887.923340 38.413429,889.553711 
	C34.082062,890.650024 29.741850,891.764282 25.519182,893.203674 
	C24.317850,893.613281 22.568563,895.399597 22.742151,896.185242 
	C23.029531,897.485962 24.481012,898.849243 25.784428,899.540527 
	C28.699123,901.086426 31.749294,902.464783 34.881870,903.491577 
	C39.754765,905.088745 41.507545,908.259644 41.439209,913.285706 
	C41.214912,929.780945 41.331532,946.280396 41.196487,962.777283 
	C41.082104,976.750305 41.060146,976.909729 27.749468,981.245544 
	C24.168072,982.412109 24.269962,984.599731 24.323778,987.339905 
	C24.392952,990.862183 26.933237,990.713379 29.266705,990.707703 
	C44.097778,990.671448 58.928986,990.511597 73.759514,990.566162 
	C77.084190,990.578369 78.065407,988.929382 78.467720,986.084961 
	C78.878868,983.178223 77.814850,981.687134 74.903854,981.304321 
	C73.428795,981.110352 71.998009,980.591248 70.541412,980.243347 
	C63.720161,978.614258 62.428925,977.039490 62.409214,969.891724 
	C62.362339,952.893982 62.829224,935.877563 62.148594,918.906372 
	C61.823814,910.808105 65.052902,906.433533 72.004784,903.771912 
	C72.624237,903.534790 73.235825,903.269775 73.830315,902.975769 
	C90.381256,894.787964 107.603951,901.533630 108.577629,922.249084 
	C109.248253,936.516663 109.744225,950.859497 109.043396,965.105957 
	C108.313118,979.951172 110.517761,977.571106 96.424995,981.472351 
	C94.869858,981.902832 93.813240,984.134216 92.525398,985.530334 
	C94.117767,986.515259 95.651436,988.226440 97.312561,988.360779 
	C104.940392,988.977295 112.603821,989.153809 120.254524,989.486877 
	C127.408875,989.798401 134.564804,990.311951 141.716522,990.258972 
	C143.276657,990.247437 145.642349,988.510864 146.185410,987.034729 
	C147.043808,984.701538 146.582077,981.996887 143.236862,981.237061 
	C141.454315,980.832153 139.728073,980.149597 137.934052,979.830750 
	C132.918808,978.939270 130.391541,976.112854 130.343216,970.938660 
	C130.178299,953.280701 130.346588,935.604187 129.519516,917.975525 
	C129.188705,910.924866 131.848587,907.169067 137.689133,904.452637 
	C157.587036,895.197998 176.259262,902.774963 176.120392,927.141602 
	C176.036835,941.805420 176.056976,956.471252 176.221115,971.134155 
	C176.274979,975.943848 174.075363,978.562988 169.647095,979.754456 
	C168.202820,980.142944 166.835815,980.858521 165.378571,981.151123 
	C161.398788,981.950195 160.559418,984.944031 161.633270,987.912170 
	C162.136673,989.303589 165.066696,990.582092 166.910995,990.601868 
	C181.072998,990.753479 195.238434,990.572937 209.402878,990.521667 
	C211.940247,990.512451 214.379959,990.893921 214.676605,987.053406 
	C214.928589,983.791138 214.714355,981.525635 210.793320,981.064392 
	C208.672699,980.814880 206.622696,979.965149 203.766663,979.193848 
M599.463440,996.192688 
	C596.467407,988.473511 591.281677,982.768799 583.310913,980.350342 
	C578.418152,978.865784 573.235352,978.228638 568.137634,977.550171 
	C557.272949,976.104065 546.377991,974.885498 535.497131,973.559753 
	C531.838806,973.114136 529.531921,971.014099 529.608826,967.356262 
	C529.689758,963.508118 532.334961,961.470154 535.986572,960.828430 
	C540.067505,960.111328 544.180725,959.576904 548.259460,958.848389 
	C571.094849,954.769592 585.592834,935.549744 583.295776,912.449890 
	C582.623169,905.686035 582.635437,905.402588 589.542480,905.703308 
	C597.380005,906.044556 605.998352,897.373779 600.951233,886.338745 
	C590.587463,893.619446 579.537170,892.487244 568.662781,888.144714 
	C551.803589,881.411987 535.537354,882.302917 519.571289,890.665283 
	C506.325134,897.603149 498.649506,907.935730 498.274048,923.502441 
	C497.888245,939.498108 504.163696,951.060303 518.588806,958.157349 
	C522.534912,960.098877 522.578186,961.281311 518.852722,963.785706 
	C514.994080,966.379517 510.749390,968.468018 507.187469,971.401550 
	C505.665192,972.655273 504.561768,975.595337 504.798859,977.586914 
	C505.513031,983.586670 510.339722,986.734802 514.800537,989.977966 
	C516.066345,990.898315 517.330078,991.821472 519.057922,993.080994 
	C516.835632,995.066101 515.177673,996.643982 513.418579,998.099731 
	C508.806702,1001.916260 504.098206,1005.617493 499.528534,1009.483337 
	C495.765442,1012.666870 494.075897,1016.726074 494.086365,1021.775635 
	C494.109528,1032.972412 499.421417,1041.126709 508.302460,1047.189941 
	C516.967712,1053.105713 527.167297,1055.058716 537.188049,1055.156738 
	C557.739075,1055.358032 575.562256,1047.737793 589.539307,1032.455688 
	C598.675232,1022.466675 602.622681,1010.597656 599.463440,996.192688 
M429.975677,990.499695 
	C430.684235,990.907837 431.391907,991.670349 432.101440,991.672058 
	C448.096039,991.710938 464.093353,991.784973 480.081238,991.439270 
	C481.549713,991.407471 483.732178,988.816101 484.241821,987.030518 
	C485.512604,982.578125 483.185638,980.480408 478.647491,979.725220 
	C468.218994,977.989746 467.558685,976.955811 467.450989,966.517517 
	C467.289490,950.857910 467.351868,935.188232 466.766693,919.543518 
	C466.407471,909.941162 463.801483,900.786804 457.214539,893.332947 
	C446.686737,881.419434 430.848480,879.299500 415.373108,887.917908 
	C409.513794,891.181030 404.012726,895.087402 397.284180,899.379395 
	C397.284180,893.570984 397.284180,888.607117 397.284180,883.643188 
	C384.740295,886.496948 373.070831,888.979553 361.524689,891.942932 
	C359.529266,892.455078 358.056976,895.005615 356.343018,896.614624 
	C357.898956,898.211426 359.320160,899.980103 361.059174,901.343323 
	C362.180786,902.222595 363.723663,902.710144 365.154388,903.025452 
	C373.941895,904.961792 375.748535,910.788025 375.383392,919.005676 
	C374.659180,935.305725 374.712341,951.641174 374.495544,967.962646 
	C374.367340,977.614929 374.282593,977.758240 364.990387,979.943542 
	C363.703552,980.246155 361.724640,980.452454 361.357147,981.278015 
	C360.302612,983.646667 359.490326,986.307251 359.470825,988.859924 
	C359.463257,989.848022 361.833527,991.710144 363.133453,991.721802 
	C378.629822,991.859924 394.129303,991.781921 409.626312,991.612427 
	C412.854218,991.577148 414.479919,989.929871 414.729370,986.262085 
	C415.135162,980.295166 410.947754,980.558533 407.272156,979.925293 
	C399.962402,978.665894 398.701904,977.644775 398.531616,970.384521 
	C398.109772,952.400879 397.704620,934.406921 397.959991,916.426575 
	C398.005676,913.208984 400.701996,909.489685 403.180939,907.006958 
	C405.391693,904.792725 408.855347,903.403870 412.006836,902.625732 
	C428.283356,898.607117 442.933075,903.490234 443.827881,922.575378 
	C444.599915,939.042358 444.173889,955.564758 444.314453,972.062378 
	C444.353912,976.690308 442.200653,979.001587 437.554993,979.610413 
	C429.178070,980.708252 428.639984,981.558716 429.975677,990.499695 
M297.258118,991.673035 
	C301.481323,990.193176 305.890167,989.098083 309.895172,987.165894 
	C325.919800,979.435486 335.254059,966.694824 339.019958,949.212158 
	C342.513519,932.993713 340.149719,917.770264 331.116089,904.421265 
	C318.699738,886.073669 300.074677,880.761353 278.979706,884.602478 
	C255.826065,888.818542 234.052567,904.060364 232.720840,934.078857 
	C231.857330,953.542969 236.540558,971.039124 252.733444,983.658508 
	C265.832336,993.866699 280.932831,994.152649 297.258118,991.673035 
M622.312561,970.212463 
	C626.512573,974.854370 630.056213,980.411255 635.027466,983.978210 
	C655.389648,998.588196 687.181519,995.239258 705.776184,977.242432 
	C715.457642,967.872192 719.975891,956.252319 721.403625,943.115051 
	C723.871338,920.408386 715.522217,897.812439 692.864319,887.884705 
	C674.535950,879.853943 656.783569,882.854187 639.783508,892.276123 
	C628.602966,898.472839 620.435852,907.321167 616.839905,919.866516 
	C611.896606,937.112366 613.413147,953.728577 622.312561,970.212463 
z"/>
<path fill="#5D44EC" opacity="1.000000" stroke="none" 
	d="
M692.612976,569.575745 
	C682.847473,588.667725 673.835693,607.752808 663.424438,626.041199 
	C650.607971,648.554565 633.773132,668.149841 615.708618,686.657288 
	C602.572449,700.115662 589.260010,713.336487 574.035706,724.555481 
	C567.273193,729.538696 563.402527,737.303223 562.204285,745.355469 
	C558.277954,771.739075 556.055115,798.265503 559.566406,824.940857 
	C559.817932,826.851440 559.599304,828.823792 559.599304,831.844971 
	C552.886475,829.345642 546.753357,827.455383 541.042358,824.692566 
	C539.361572,823.879456 538.127502,820.649719 537.967773,818.435181 
	C537.118774,806.662292 537.536438,794.737671 535.880798,783.098206 
	C533.686584,767.672119 530.125183,752.429565 526.782104,737.189148 
	C526.240173,734.718628 524.185364,732.190796 522.156372,730.495789 
	C501.829193,713.515015 482.244446,695.786438 464.514618,676.041626 
	C431.576874,639.360474 405.052948,598.709839 386.710083,552.794739 
	C376.364532,526.898132 368.873962,500.236084 364.434967,472.769592 
	C362.581055,461.298492 362.377533,449.568787 361.182281,437.981537 
	C358.164368,408.724792 361.786926,379.847687 365.689453,350.946869 
	C368.922119,327.006836 373.574768,303.360687 380.988403,280.392731 
	C386.129517,264.464966 392.581512,248.961243 398.415466,233.256027 
	C408.015137,207.413361 422.386780,183.933701 436.314758,160.437485 
	C446.420227,143.389740 459.343689,127.811485 472.370850,112.754868 
	C484.637390,98.577377 498.591949,85.846504 511.982483,72.660583 
	C520.164734,64.603363 529.154175,57.179203 533.339905,46.053955 
	C535.337585,40.744236 536.376526,35.073803 537.967590,29.126160 
	C542.418823,37.691147 547.150452,45.823708 550.977722,54.361683 
	C559.018738,72.299728 571.127930,87.041817 584.951233,100.768822 
	C622.461975,138.018234 652.899780,180.496323 675.171204,228.403946 
	C685.290161,250.170563 693.209656,273.006042 701.300720,295.651794 
	C706.205872,309.380646 710.511597,323.481628 713.315186,337.763153 
	C716.764832,355.336029 718.753967,373.229584 720.677856,391.059692 
	C723.278687,415.163422 722.153503,439.323944 719.913269,463.395386 
	C718.125427,482.605682 714.854065,501.620331 709.066895,520.066833 
	C703.900208,536.535522 698.206909,552.839111 692.612976,569.575745 
z"/>
<path fill="#634BED" opacity="1.000000" stroke="none" 
	d="
M767.548279,954.003113 
	C767.804199,925.015808 768.106323,896.527405 768.261658,868.038208 
	C768.287964,863.224976 767.790527,858.398010 767.338196,853.596008 
	C766.860107,848.521057 764.156311,845.384033 758.943420,844.538757 
	C755.997009,844.061035 753.101990,843.274353 750.168274,842.707703 
	C747.549377,842.201843 744.034241,843.294189 743.312927,839.336060 
	C742.817017,836.614746 747.475586,831.102966 750.344971,830.633545 
	C751.159180,830.500366 752.007874,830.554504 752.840515,830.560852 
	C779.490112,830.763489 806.145447,830.694824 832.787659,831.253174 
	C860.907104,831.842529 883.807190,842.483337 898.427429,867.626892 
	C908.333496,884.663086 909.686951,903.371399 907.321960,922.253967 
	C904.621948,943.811462 894.504333,961.557190 876.511047,974.324280 
	C864.535278,982.821716 851.251465,988.337219 836.753967,990.524597 
	C808.410645,994.800903 779.871277,991.583923 751.429932,992.286804 
	C750.127502,992.319031 747.567627,990.586060 747.660522,990.254578 
	C748.466919,987.377258 749.269775,984.256104 751.060791,981.986572 
	C752.172607,980.577637 754.964905,980.393066 757.056824,979.877441 
	C764.830811,977.961121 766.952820,975.578064 767.382385,967.498962 
	C767.612244,963.175903 767.501892,958.834717 767.548279,954.003113 
M869.076050,869.528442 
	C851.799072,846.462769 827.729065,841.139893 800.767639,843.387939 
	C795.603638,843.818481 793.867493,846.690308 793.910461,851.786133 
	C794.070740,870.782593 793.868530,889.781738 793.869934,908.779907 
	C793.871216,926.111450 793.922119,943.443237 794.028137,960.774414 
	C794.074036,968.263000 796.844360,974.147034 804.504395,976.561707 
	C822.972229,982.383423 840.814758,981.486755 856.862854,969.853027 
	C869.885681,960.412476 876.535706,946.758301 879.300476,931.175171 
	C883.108337,909.713013 881.253357,889.094727 869.076050,869.528442 
z"/>
<path fill="#634BED" opacity="1.000000" stroke="none" 
	d="
M967.001770,831.477295 
	C982.647644,831.713074 997.926453,830.779785 1012.905701,832.482239 
	C1032.224121,834.677979 1048.167358,846.445740 1047.382080,869.576782 
	C1047.012939,880.451172 1041.796631,888.879944 1032.919556,895.052429 
	C1030.348999,896.839905 1027.653320,898.447449 1024.185913,900.668579 
	C1028.450806,902.519653 1031.982788,904.087463 1035.541748,905.591614 
	C1066.206177,918.552002 1065.760864,955.672180 1044.711914,973.802551 
	C1029.937256,986.528503 1012.458557,992.184692 993.242065,992.333923 
	C972.259705,992.496887 951.271362,992.132324 930.289490,991.772217 
	C928.016174,991.733154 923.860352,990.238647 923.842285,989.352478 
	C923.767517,985.692444 925.135010,982.058105 929.330750,980.848572 
	C931.557922,980.206482 933.888306,979.900452 936.186218,979.529663 
	C943.481873,978.352234 945.977234,975.998047 946.022583,968.775940 
	C946.263184,930.456482 946.325073,892.135925 946.478088,853.815918 
	C946.499512,848.445984 944.475586,844.819153 938.772278,843.973206 
	C935.986389,843.560059 933.212341,843.066589 930.433716,842.604614 
	C927.766724,842.161255 923.979736,842.652527 924.335938,838.567810 
	C924.658264,834.870117 926.310547,831.237122 931.016479,831.213196 
	C938.012329,831.177612 945.009216,831.408630 952.006104,831.475281 
	C956.837524,831.521362 961.669739,831.481445 967.001770,831.477295 
M971.673645,921.562683 
	C971.731628,934.552429 971.536743,947.550293 971.952332,960.528564 
	C972.165955,967.197937 973.024231,974.570496 980.418030,977.265869 
	C991.696655,981.377380 1003.336670,981.272156 1014.605713,976.791443 
	C1032.505859,969.674255 1036.246338,945.992065 1029.042236,931.064331 
	C1023.003113,918.550537 1011.700378,913.646484 998.739502,912.215576 
	C991.648865,911.432800 984.411804,912.060608 977.283569,911.503418 
	C973.078369,911.174744 971.271484,912.337769 971.656982,916.591431 
	C971.776794,917.912842 971.673828,919.254333 971.673645,921.562683 
M1012.644043,851.814087 
	C1002.144470,843.293274 989.605164,843.058594 977.084290,843.591553 
	C975.262329,843.669128 972.150452,847.114441 972.070557,849.099365 
	C971.460876,864.243835 971.467163,879.412903 971.252930,894.573853 
	C971.209839,897.627991 972.471619,899.261719 975.680908,899.232605 
	C984.001343,899.157166 992.347961,899.531982 1000.635864,898.989929 
	C1008.949524,898.445984 1015.830750,894.607727 1019.077942,886.564819 
	C1023.363220,875.950623 1022.932739,861.096680 1012.644043,851.814087 
z"/>
<path fill="#634CED" opacity="1.000000" stroke="none" 
	d="
M204.153748,979.290039 
	C206.622696,979.965149 208.672699,980.814880 210.793320,981.064392 
	C214.714355,981.525635 214.928589,983.791138 214.676605,987.053406 
	C214.379959,990.893921 211.940247,990.512451 209.402878,990.521667 
	C195.238434,990.572937 181.072998,990.753479 166.910995,990.601868 
	C165.066696,990.582092 162.136673,989.303589 161.633270,987.912170 
	C160.559418,984.944031 161.398788,981.950195 165.378571,981.151123 
	C166.835815,980.858521 168.202820,980.142944 169.647095,979.754456 
	C174.075363,978.562988 176.274979,975.943848 176.221115,971.134155 
	C176.056976,956.471252 176.036835,941.805420 176.120392,927.141602 
	C176.259262,902.774963 157.587036,895.197998 137.689133,904.452637 
	C131.848587,907.169067 129.188705,910.924866 129.519516,917.975525 
	C130.346588,935.604187 130.178299,953.280701 130.343216,970.938660 
	C130.391541,976.112854 132.918808,978.939270 137.934052,979.830750 
	C139.728073,980.149597 141.454315,980.832153 143.236862,981.237061 
	C146.582077,981.996887 147.043808,984.701538 146.185410,987.034729 
	C145.642349,988.510864 143.276657,990.247437 141.716522,990.258972 
	C134.564804,990.311951 127.408875,989.798401 120.254524,989.486877 
	C112.603821,989.153809 104.940392,988.977295 97.312561,988.360779 
	C95.651436,988.226440 94.117767,986.515259 92.525406,985.530334 
	C93.813240,984.134216 94.869858,981.902832 96.424995,981.472351 
	C110.517761,977.571106 108.313118,979.951172 109.043396,965.105957 
	C109.744225,950.859497 109.248253,936.516663 108.577629,922.249084 
	C107.603951,901.533630 90.381256,894.787964 73.830315,902.975769 
	C73.235825,903.269775 72.624237,903.534790 72.004784,903.771912 
	C65.052902,906.433533 61.823814,910.808105 62.148594,918.906372 
	C62.829224,935.877563 62.362339,952.893982 62.409214,969.891724 
	C62.428925,977.039490 63.720161,978.614258 70.541412,980.243347 
	C71.998009,980.591248 73.428795,981.110352 74.903854,981.304321 
	C77.814850,981.687134 78.878868,983.178223 78.467720,986.084961 
	C78.065407,988.929382 77.084190,990.578369 73.759514,990.566162 
	C58.928986,990.511597 44.097778,990.671448 29.266705,990.707703 
	C26.933237,990.713379 24.392952,990.862183 24.323778,987.339905 
	C24.269962,984.599731 24.168072,982.412109 27.749468,981.245544 
	C41.060146,976.909729 41.082104,976.750305 41.196487,962.777283 
	C41.331532,946.280396 41.214912,929.780945 41.439209,913.285706 
	C41.507545,908.259644 39.754765,905.088745 34.881870,903.491577 
	C31.749294,902.464783 28.699123,901.086426 25.784428,899.540527 
	C24.481012,898.849243 23.029531,897.485962 22.742151,896.185242 
	C22.568563,895.399597 24.317850,893.613281 25.519182,893.203674 
	C29.741850,891.764282 34.082062,890.650024 38.413429,889.553711 
	C44.854858,887.923340 51.375885,886.587524 57.766796,884.785095 
	C61.465309,883.742004 62.681889,884.891785 62.550621,888.491943 
	C62.426155,891.905701 62.523853,895.327515 62.523853,899.962402 
	C65.353394,898.261841 67.160515,897.286255 68.852104,896.140259 
	C76.877022,890.703491 85.153725,885.915710 94.907684,884.160706 
	C105.807877,882.199341 114.565018,885.827820 121.527428,894.063477 
	C127.062874,900.611206 126.674980,900.257874 134.163055,895.928406 
	C141.725113,891.556213 149.542206,886.963013 157.855499,884.691833 
	C174.521393,880.138977 190.161026,889.707397 194.861847,906.512634 
	C196.586243,912.677307 197.395279,919.253540 197.555695,925.668701 
	C197.922119,940.323608 197.756638,954.997009 197.534790,969.658752 
	C197.461380,974.510437 199.177704,977.654175 204.153748,979.290039 
z"/>
<path fill="#654DED" opacity="1.000000" stroke="none" 
	d="
M599.568481,996.576538 
	C602.622681,1010.597656 598.675232,1022.466675 589.539307,1032.455688 
	C575.562256,1047.737793 557.739075,1055.358032 537.188049,1055.156738 
	C527.167297,1055.058716 516.967712,1053.105713 508.302460,1047.189941 
	C499.421417,1041.126709 494.109528,1032.972412 494.086365,1021.775635 
	C494.075897,1016.726074 495.765442,1012.666870 499.528534,1009.483337 
	C504.098206,1005.617493 508.806702,1001.916260 513.418579,998.099731 
	C515.177673,996.643982 516.835632,995.066101 519.057922,993.080994 
	C517.330078,991.821472 516.066345,990.898315 514.800537,989.977966 
	C510.339722,986.734802 505.513031,983.586670 504.798859,977.586914 
	C504.561768,975.595337 505.665192,972.655273 507.187469,971.401550 
	C510.749390,968.468018 514.994080,966.379517 518.852722,963.785706 
	C522.578186,961.281311 522.534912,960.098877 518.588806,958.157349 
	C504.163696,951.060303 497.888245,939.498108 498.274048,923.502441 
	C498.649506,907.935730 506.325134,897.603149 519.571289,890.665283 
	C535.537354,882.302917 551.803589,881.411987 568.662781,888.144714 
	C579.537170,892.487244 590.587463,893.619446 600.951233,886.338745 
	C605.998352,897.373779 597.380005,906.044556 589.542480,905.703308 
	C582.635437,905.402588 582.623169,905.686035 583.295776,912.449890 
	C585.592834,935.549744 571.094849,954.769592 548.259460,958.848389 
	C544.180725,959.576904 540.067505,960.111328 535.986572,960.828430 
	C532.334961,961.470154 529.689758,963.508118 529.608826,967.356262 
	C529.531921,971.014099 531.838806,973.114136 535.497131,973.559753 
	C546.377991,974.885498 557.272949,976.104065 568.137634,977.550171 
	C573.235352,978.228638 578.418152,978.865784 583.310913,980.350342 
	C591.281677,982.768799 596.467407,988.473511 599.568481,996.576538 
M530.406311,996.558777 
	C528.746277,997.291931 526.969849,997.838135 525.444580,998.787659 
	C512.574524,1006.799561 509.553741,1021.046082 519.486145,1030.612671 
	C523.821777,1034.788574 529.821472,1038.269897 535.640442,1039.660767 
	C548.265686,1042.678223 561.165649,1042.870972 572.440857,1034.679199 
	C579.953735,1029.220825 582.779358,1021.615662 581.216980,1012.381653 
	C580.016968,1005.289429 575.241638,1001.111084 569.015808,999.284973 
	C556.696838,995.671692 544.075806,993.727234 530.406311,996.558777 
M555.075012,945.663452 
	C556.925598,942.762207 559.435913,940.084290 560.507690,936.919312 
	C564.287842,925.757141 563.731323,914.572815 557.923828,904.253723 
	C553.420166,896.251465 545.603943,893.280151 536.733032,893.955139 
	C528.164001,894.607117 522.584045,899.932617 520.396423,907.880249 
	C517.270996,919.235107 518.908875,930.322388 525.243591,940.353577 
	C530.534912,948.732483 545.259888,953.940857 555.075012,945.663452 
z"/>
<path fill="#644CED" opacity="1.000000" stroke="none" 
	d="
M429.760498,990.145630 
	C428.639984,981.558716 429.178070,980.708252 437.554993,979.610413 
	C442.200653,979.001587 444.353912,976.690308 444.314453,972.062378 
	C444.173889,955.564758 444.599915,939.042358 443.827881,922.575378 
	C442.933075,903.490234 428.283356,898.607117 412.006836,902.625732 
	C408.855347,903.403870 405.391693,904.792725 403.180939,907.006958 
	C400.701996,909.489685 398.005676,913.208984 397.959991,916.426575 
	C397.704620,934.406921 398.109772,952.400879 398.531616,970.384521 
	C398.701904,977.644775 399.962402,978.665894 407.272156,979.925293 
	C410.947754,980.558533 415.135162,980.295166 414.729370,986.262085 
	C414.479919,989.929871 412.854218,991.577148 409.626312,991.612427 
	C394.129303,991.781921 378.629822,991.859924 363.133453,991.721802 
	C361.833527,991.710144 359.463257,989.848022 359.470825,988.859924 
	C359.490326,986.307251 360.302612,983.646667 361.357147,981.278015 
	C361.724640,980.452454 363.703552,980.246155 364.990387,979.943542 
	C374.282593,977.758240 374.367340,977.614929 374.495544,967.962646 
	C374.712341,951.641174 374.659180,935.305725 375.383392,919.005676 
	C375.748535,910.788025 373.941895,904.961792 365.154388,903.025452 
	C363.723663,902.710144 362.180786,902.222595 361.059174,901.343323 
	C359.320160,899.980103 357.898956,898.211426 356.343018,896.614624 
	C358.056976,895.005615 359.529266,892.455078 361.524689,891.942932 
	C373.070831,888.979553 384.740295,886.496948 397.284180,883.643188 
	C397.284180,888.607117 397.284180,893.570984 397.284180,899.379395 
	C404.012726,895.087402 409.513794,891.181030 415.373108,887.917908 
	C430.848480,879.299500 446.686737,881.419434 457.214539,893.332947 
	C463.801483,900.786804 466.407471,909.941162 466.766693,919.543518 
	C467.351868,935.188232 467.289490,950.857910 467.450989,966.517517 
	C467.558685,976.955811 468.218994,977.989746 478.647491,979.725220 
	C483.185638,980.480408 485.512604,982.578125 484.241821,987.030518 
	C483.732178,988.816101 481.549713,991.407471 480.081238,991.439270 
	C464.093353,991.784973 448.096039,991.710938 432.101440,991.672058 
	C431.391907,991.670349 430.684235,990.907837 429.760498,990.145630 
z"/>
<path fill="#644CED" opacity="1.000000" stroke="none" 
	d="
M296.853394,991.794434 
	C280.932831,994.152649 265.832336,993.866699 252.733444,983.658508 
	C236.540558,971.039124 231.857330,953.542969 232.720840,934.078857 
	C234.052567,904.060364 255.826065,888.818542 278.979706,884.602478 
	C300.074677,880.761353 318.699738,886.073669 331.116089,904.421265 
	C340.149719,917.770264 342.513519,932.993713 339.019958,949.212158 
	C335.254059,966.694824 325.919800,979.435486 309.895172,987.165894 
	C305.890167,989.098083 301.481323,990.193176 296.853394,991.794434 
M269.351624,972.128357 
	C271.416565,973.795349 273.308533,975.758240 275.573792,977.082581 
	C293.695801,987.677063 310.994629,979.584473 315.161865,961.326599 
	C317.797241,949.780273 317.949707,938.245361 315.109558,926.760437 
	C312.285492,915.340454 307.176727,905.317688 296.614990,899.012756 
	C282.357788,890.501709 264.244507,895.132996 259.318909,909.853455 
	C252.005157,931.711243 254.234802,952.788086 269.351624,972.128357 
z"/>
<path fill="#644CED" opacity="1.000000" stroke="none" 
	d="
M622.085815,969.923706 
	C613.413147,953.728577 611.896606,937.112366 616.839905,919.866516 
	C620.435852,907.321167 628.602966,898.472839 639.783508,892.276123 
	C656.783569,882.854187 674.535950,879.853943 692.864319,887.884705 
	C715.522217,897.812439 723.871338,920.408386 721.403625,943.115051 
	C719.975891,956.252319 715.457642,967.872192 705.776184,977.242432 
	C687.181519,995.239258 655.389648,998.588196 635.027466,983.978210 
	C630.056213,980.411255 626.512573,974.854370 622.085815,969.923706 
M698.067688,935.567383 
	C697.733093,933.265564 697.517578,930.938965 697.043396,928.666260 
	C694.855286,918.177795 690.666443,908.744202 682.224670,901.705444 
	C667.834900,889.707336 646.342529,893.911926 640.567932,910.298157 
	C635.274536,925.319031 635.502930,940.587952 641.213745,955.642273 
	C644.977051,965.562805 650.407043,973.990234 660.381165,978.787659 
	C674.065247,985.369690 689.335449,980.838989 694.445801,967.680603 
	C698.294373,957.770935 700.294983,947.255676 698.067688,935.567383 
z"/>
<path fill="#FDFCFF" opacity="1.000000" stroke="none" 
	d="
M869.308472,869.805420 
	C881.253357,889.094727 883.108337,909.713013 879.300476,931.175171 
	C876.535706,946.758301 869.885681,960.412476 856.862854,969.853027 
	C840.814758,981.486755 822.972229,982.383423 804.504395,976.561707 
	C796.844360,974.147034 794.074036,968.263000 794.028137,960.774414 
	C793.922119,943.443237 793.871216,926.111450 793.869934,908.779907 
	C793.868530,889.781738 794.070740,870.782593 793.910461,851.786133 
	C793.867493,846.690308 795.603638,843.818481 800.767639,843.387939 
	C827.729065,841.139893 851.799072,846.462769 869.308472,869.805420 
z"/>
<path fill="#FBFAFF" opacity="1.000000" stroke="none" 
	d="
M971.673218,921.074707 
	C971.673828,919.254333 971.776794,917.912842 971.656982,916.591431 
	C971.271484,912.337769 973.078369,911.174744 977.283569,911.503418 
	C984.411804,912.060608 991.648865,911.432800 998.739502,912.215576 
	C1011.700378,913.646484 1023.003113,918.550537 1029.042236,931.064331 
	C1036.246338,945.992065 1032.505859,969.674255 1014.605713,976.791443 
	C1003.336670,981.272156 991.696655,981.377380 980.418030,977.265869 
	C973.024231,974.570496 972.165955,967.197937 971.952332,960.528564 
	C971.536743,947.550293 971.731628,934.552429 971.673218,921.074707 
z"/>
<path fill="#FAF9FE" opacity="1.000000" stroke="none" 
	d="
M1012.902100,852.065918 
	C1022.932739,861.096680 1023.363220,875.950623 1019.077942,886.564819 
	C1015.830750,894.607727 1008.949524,898.445984 1000.635864,898.989929 
	C992.347961,899.531982 984.001343,899.157166 975.680908,899.232605 
	C972.471619,899.261719 971.209839,897.627991 971.252930,894.573853 
	C971.467163,879.412903 971.460876,864.243835 972.070557,849.099365 
	C972.150452,847.114441 975.262329,843.669128 977.084290,843.591553 
	C989.605164,843.058594 1002.144470,843.293274 1012.902100,852.065918 
z"/>
<path fill="#FAFAFE" opacity="1.000000" stroke="none" 
	d="
M530.798706,996.448975 
	C544.075806,993.727234 556.696838,995.671692 569.015808,999.284973 
	C575.241638,1001.111084 580.016968,1005.289429 581.216980,1012.381653 
	C582.779358,1021.615662 579.953735,1029.220825 572.440857,1034.679199 
	C561.165649,1042.870972 548.265686,1042.678223 535.640442,1039.660767 
	C529.821472,1038.269897 523.821777,1034.788574 519.486145,1030.612671 
	C509.553741,1021.046082 512.574524,1006.799561 525.444580,998.787659 
	C526.969849,997.838135 528.746277,997.291931 530.798706,996.448975 
z"/>
<path fill="#FAF9FE" opacity="1.000000" stroke="none" 
	d="
M554.786194,945.893555 
	C545.259888,953.940857 530.534912,948.732483 525.243591,940.353577 
	C518.908875,930.322388 517.270996,919.235107 520.396423,907.880249 
	C522.584045,899.932617 528.164001,894.607117 536.733032,893.955139 
	C545.603943,893.280151 553.420166,896.251465 557.923828,904.253723 
	C563.731323,914.572815 564.287842,925.757141 560.507690,936.919312 
	C559.435913,940.084290 556.925598,942.762207 554.786194,945.893555 
z"/>
<path fill="#FBFBFF" opacity="1.000000" stroke="none" 
	d="
M269.112274,971.860718 
	C254.234802,952.788086 252.005157,931.711243 259.318909,909.853455 
	C264.244507,895.132996 282.357788,890.501709 296.614990,899.012756 
	C307.176727,905.317688 312.285492,915.340454 315.109558,926.760437 
	C317.949707,938.245361 317.797241,949.780273 315.161865,961.326599 
	C310.994629,979.584473 293.695801,987.677063 275.573792,977.082581 
	C273.308533,975.758240 271.416565,973.795349 269.112274,971.860718 
z"/>
<path fill="#FBFBFF" opacity="1.000000" stroke="none" 
	d="
M698.106689,936.007324 
	C700.294983,947.255676 698.294373,957.770935 694.445801,967.680603 
	C689.335449,980.838989 674.065247,985.369690 660.381165,978.787659 
	C650.407043,973.990234 644.977051,965.562805 641.213745,955.642273 
	C635.502930,940.587952 635.274536,925.319031 640.567932,910.298157 
	C646.342529,893.911926 667.834900,889.707336 682.224670,901.705444 
	C690.666443,908.744202 694.855286,918.177795 697.043396,928.666260 
	C697.517578,930.938965 697.733093,933.265564 698.106689,936.007324 
z"/>
</svg>