<svg version="1.1" id="Layer_1" xmlns="http://www.w3.org/2000/svg" xmlns:xlink="http://www.w3.org/1999/xlink" x="0px" y="0px"
	 width="100%" viewBox="0 0 1080 1080" enable-background="new 0 0 1080 1080" xml:space="preserve">
<path fill="#FEFEFF" opacity="1.000000" stroke="none" 
	d="
M630.000000,1081.000000 
	C420.024170,1081.000000 210.548355,1081.000000 1.036263,1081.000000 
	C1.036263,721.065735 1.036263,361.131439 1.036263,1.098576 
	C360.892731,1.098576 720.785461,1.098576 1080.839111,1.098576 
	C1080.839111,360.999939 1080.839111,720.999939 1080.839111,1081.000000 
	C930.797607,1081.000000 780.648804,1081.000000 630.000000,1081.000000 
M581.692078,1072.797729 
	C585.781921,1072.071533 589.871826,1071.345459 594.709045,1070.616699 
	C595.700684,1070.545410 596.692261,1070.474121 598.538696,1070.760864 
	C601.783936,1069.999878 605.029114,1069.238770 608.854736,1068.392822 
	C609.245178,1068.375122 609.635620,1068.357422 610.677795,1068.763794 
	C614.375366,1068.174316 618.101990,1067.725830 621.765015,1066.968994 
	C632.588501,1064.732422 643.485107,1062.750977 654.169312,1059.964844 
	C666.543762,1056.738159 679.068726,1053.626587 690.898254,1048.891235 
	C705.407166,1043.083252 719.526917,1036.139404 733.332031,1028.780762 
	C748.714294,1020.581421 761.819641,1009.243164 772.932007,995.790771 
	C790.799744,974.160400 798.354309,949.083435 798.014709,921.179810 
	C797.661865,892.186340 797.937866,863.185242 797.935608,834.187439 
	C797.935059,827.114258 797.929199,827.108032 790.696838,827.107849 
	C719.702271,827.106201 648.707642,827.106873 577.713074,827.106812 
	C567.880493,827.106812 558.045105,826.972778 548.216736,827.176636 
	C544.668884,827.250183 543.573364,826.036743 543.696533,822.578979 
	C543.921753,816.254211 543.758301,809.915588 543.760681,803.582764 
	C543.763184,796.844482 543.765076,796.840088 550.517151,796.840027 
	C673.507751,796.839111 796.498413,796.807678 919.488953,796.890076 
	C931.324402,796.897949 942.893188,795.664246 954.465637,793.094604 
	C973.419739,788.885681 989.196350,779.316650 1002.507080,765.614258 
	C1019.636841,747.980408 1030.292847,726.292358 1039.307983,703.809753 
	C1045.180908,689.163208 1050.458618,674.256409 1055.414429,659.271545 
	C1058.475952,650.014343 1060.555298,640.421326 1062.849243,630.924377 
	C1064.900024,622.433777 1066.824219,613.902344 1068.417603,605.317139 
	C1068.972534,602.327148 1068.371948,599.122620 1068.301514,595.328918 
	C1068.365112,594.645447 1068.428711,593.962036 1069.096191,592.907288 
	C1069.508667,587.945496 1069.921143,582.983704 1070.325684,577.173462 
	C1070.400757,575.211792 1070.475830,573.250061 1071.116577,570.853699 
	C1071.333130,570.409241 1071.729248,569.969238 1071.740601,569.519714 
	C1072.089111,555.564209 1072.504883,541.608521 1072.612549,527.650635 
	C1072.630371,525.342285 1071.275391,523.023315 1070.467163,519.863220 
	C1070.423218,517.566650 1070.379272,515.270081 1070.774536,512.297363 
	C1070.368408,506.725342 1072.499390,500.799011 1068.373169,495.049316 
	C1068.346069,494.359711 1068.318970,493.670074 1068.738892,492.320953 
	C1068.120728,486.622284 1067.563232,480.916199 1066.867798,475.226990 
	C1066.149170,469.348633 1065.559326,463.436218 1064.444214,457.628754 
	C1062.457764,447.282379 1060.260254,436.970581 1057.858887,426.712677 
	C1056.848389,422.396484 1055.095581,418.254089 1053.643066,413.453918 
	C1053.588379,413.071381 1053.533691,412.688873 1053.794922,411.544037 
	C1053.055542,409.592285 1052.316162,407.640533 1051.458862,405.120026 
	C1051.419678,404.734955 1051.380493,404.349884 1051.738770,403.419037 
	C1050.980713,401.520386 1050.222656,399.621765 1049.353516,397.147430 
	C1049.312622,396.758759 1049.271729,396.370087 1049.676270,395.442596 
	C1048.992188,392.274841 1048.776489,388.911072 1047.546265,385.971985 
	C1040.888550,370.066559 1034.824585,353.832214 1026.961304,338.530640 
	C1014.913513,315.086090 996.795166,297.161224 972.749207,285.827576 
	C968.204041,283.685303 962.949402,283.048370 957.441772,281.668182 
	C957.059265,281.603302 956.676819,281.538391 955.940552,280.860291 
	C953.525757,280.412323 951.111023,279.964386 948.020508,279.418732 
	C947.339355,279.372070 946.658264,279.325378 945.620850,278.560211 
	C940.325012,278.186432 935.029114,277.812683 928.834717,277.377899 
	C896.308105,277.385590 863.781494,277.393311 830.460449,277.118683 
	C826.005554,277.209351 827.253601,280.625641 827.248840,282.993774 
	C827.182312,315.787109 827.149963,348.580719 827.227661,381.373993 
	C827.263000,396.295135 827.650146,411.231293 823.206360,425.726959 
	C820.288269,435.245728 818.103699,445.106964 814.081665,454.143158 
	C807.416504,469.117767 798.591003,482.829834 787.739075,495.361664 
	C767.224182,519.052368 742.101440,535.362488 712.451660,545.014709 
	C708.174011,546.407227 703.942749,547.942444 699.015137,549.528198 
	C698.332397,549.579712 697.649597,549.631165 696.364502,549.246643 
	C693.588257,549.953308 690.812012,550.659912 687.288391,551.371704 
	C686.295227,551.440491 685.302124,551.509338 683.382263,551.216980 
	C671.726013,551.196777 660.069702,551.158997 648.413452,551.159241 
	C568.966675,551.160889 489.519836,551.140808 410.073303,551.278503 
	C406.628479,551.284485 403.186188,552.764771 399.156464,553.630066 
	C398.763092,553.644470 398.369720,553.658875 397.336151,553.245789 
	C384.987549,553.380188 373.757019,557.832092 362.863831,562.885864 
	C337.482239,574.661316 317.811829,592.902344 303.613678,617.011475 
	C291.958252,636.802856 285.517792,658.372864 285.395172,681.161682 
	C284.956726,762.655518 285.168884,844.153259 285.320770,925.649170 
	C285.333679,932.572021 286.234680,939.588806 287.576569,946.393738 
	C290.459778,961.014587 296.372498,974.532654 304.797241,986.783203 
	C313.233734,999.050781 323.907379,1009.290405 335.754486,1018.268066 
	C351.021027,1029.837158 367.760529,1038.816284 385.557800,1045.786743 
	C391.215485,1048.002563 397.163635,1049.476929 403.556854,1051.342773 
	C403.937103,1051.412476 404.317383,1051.482178 405.029755,1052.151489 
	C405.373260,1052.511108 405.655640,1053.077759 406.069244,1053.199829 
	C414.732513,1055.756470 423.382446,1058.365601 432.094299,1060.747437 
	C439.539154,1062.782959 446.999207,1064.848267 454.564087,1066.331299 
	C460.278961,1067.451660 466.169800,1067.674194 472.569550,1068.314941 
	C472.958344,1068.360352 473.347137,1068.405884 474.090332,1069.057251 
	C477.718536,1069.485962 481.346741,1069.914795 485.662415,1070.345093 
	C486.346191,1070.407227 487.029968,1070.469360 488.118835,1071.106079 
	C492.735168,1071.534912 497.351532,1071.963745 502.688904,1072.398560 
	C504.131592,1072.498047 505.574249,1072.597656 507.479492,1073.327515 
	C510.228241,1073.831909 512.973633,1074.750366 515.726318,1074.772827 
	C532.672913,1074.911133 549.622314,1074.946289 566.567749,1074.752563 
	C569.377319,1074.720459 572.172119,1073.395874 575.733643,1072.672852 
	C577.500305,1072.567993 579.266907,1072.463135 581.692078,1072.797729 
M571.371155,5.223512 
	C542.740479,5.776277 514.086853,5.793447 485.485046,7.020254 
	C451.361725,8.483894 417.647400,13.362187 384.477844,21.796942 
	C368.460114,25.870119 352.924500,31.099422 338.308838,38.874752 
	C313.754028,51.937595 298.043488,71.737778 291.667206,99.040665 
	C287.768372,115.735283 287.018738,132.624023 286.970154,149.609604 
	C286.885803,179.104996 286.942413,208.600784 286.945038,238.096405 
	C286.945648,245.071136 286.955048,245.080643 293.824280,245.081009 
	C346.983063,245.083740 400.141815,245.082474 453.300598,245.082504 
	C480.963165,245.082504 508.626099,245.154602 536.287842,245.007111 
	C540.565857,244.984299 542.312378,246.178696 542.084656,250.671539 
	C541.764404,256.987671 542.004333,263.332214 542.003784,269.664612 
	C542.003113,277.306824 542.002686,277.309082 534.528259,277.309113 
	C426.377655,277.309601 318.226959,277.247955 210.076538,277.386719 
	C196.450745,277.404205 182.794464,278.074646 169.208878,279.154449 
	C150.089508,280.674103 132.068283,286.544800 115.114685,295.332336 
	C74.139572,316.570953 48.533081,350.667053 35.307388,394.116821 
	C25.758190,425.488373 19.912874,457.800415 16.250914,490.377136 
	C13.347288,516.207703 12.372982,542.205811 15.149118,568.165344 
	C16.757296,583.203369 18.224873,598.287170 20.704317,613.192627 
	C23.265808,628.591431 26.906166,643.814209 30.199617,659.086975 
	C36.014614,686.052979 44.888939,711.852478 59.833889,735.266052 
	C72.588669,755.248352 88.879082,771.509033 110.104370,782.477051 
	C128.862427,792.170166 149.087418,795.565796 169.913147,795.754944 
	C195.740524,795.989441 221.571655,795.813354 247.401154,795.810669 
	C254.909348,795.809875 254.990265,795.734192 254.991211,788.305359 
	C254.995728,752.643982 254.671997,716.978149 255.173798,681.323792 
	C255.343597,669.257507 256.403931,656.944153 259.120789,645.221985 
	C267.181854,610.441895 285.479889,581.622437 312.783691,558.582214 
	C342.779785,533.270142 377.434021,520.311218 416.671082,520.235168 
	C501.991272,520.069702 587.311890,520.161560 672.632385,520.100464 
	C697.529358,520.082581 720.375610,512.548767 740.423096,498.328247 
	C776.676331,472.612274 796.242371,436.966919 796.606445,392.419891 
	C797.277832,310.271057 796.827026,228.112762 796.767517,145.958466 
	C796.755676,129.622330 793.220215,113.946831 786.380615,99.135780 
	C770.128174,63.941502 742.432800,40.982166 707.374573,26.109037 
	C690.402832,18.908918 672.561584,14.909760 654.295166,13.034927 
	C626.995728,10.232957 599.656311,7.820462 571.371155,5.223512 
z"/>
<path fill="#5D44EC" opacity="1.000000" stroke="none" 
	d="
M571.852539,5.232903 
	C599.656311,7.820462 626.995728,10.232957 654.295166,13.034927 
	C672.561584,14.909760 690.402832,18.908918 707.374573,26.109037 
	C742.432800,40.982166 770.128174,63.941502 786.380615,99.135780 
	C793.220215,113.946831 796.755676,129.622330 796.767517,145.958466 
	C796.827026,228.112762 797.277832,310.271057 796.606445,392.419891 
	C796.242371,436.966919 776.676331,472.612274 740.423096,498.328247 
	C720.375610,512.548767 697.529358,520.082581 672.632385,520.100464 
	C587.311890,520.161560 501.991272,520.069702 416.671082,520.235168 
	C377.434021,520.311218 342.779785,533.270142 312.783691,558.582214 
	C285.479889,581.622437 267.181854,610.441895 259.120789,645.221985 
	C256.403931,656.944153 255.343597,669.257507 255.173798,681.323792 
	C254.671997,716.978149 254.995728,752.643982 254.991211,788.305359 
	C254.990265,795.734192 254.909348,795.809875 247.401154,795.810669 
	C221.571655,795.813354 195.740524,795.989441 169.913147,795.754944 
	C149.087418,795.565796 128.862427,792.170166 110.104370,782.477051 
	C88.879082,771.509033 72.588669,755.248352 59.833889,735.266052 
	C44.888939,711.852478 36.014614,686.052979 30.199617,659.086975 
	C26.906166,643.814209 23.265808,628.591431 20.704317,613.192627 
	C18.224873,598.287170 16.757296,583.203369 15.149118,568.165344 
	C12.372982,542.205811 13.347288,516.207703 16.250914,490.377136 
	C19.912874,457.800415 25.758190,425.488373 35.307388,394.116821 
	C48.533081,350.667053 74.139572,316.570953 115.114685,295.332336 
	C132.068283,286.544800 150.089508,280.674103 169.208878,279.154449 
	C182.794464,278.074646 196.450745,277.404205 210.076538,277.386719 
	C318.226959,277.247955 426.377655,277.309601 534.528259,277.309113 
	C542.002686,277.309082 542.003113,277.306824 542.003784,269.664612 
	C542.004333,263.332214 541.764404,256.987671 542.084656,250.671539 
	C542.312378,246.178696 540.565857,244.984299 536.287842,245.007111 
	C508.626099,245.154602 480.963165,245.082504 453.300598,245.082504 
	C400.141815,245.082474 346.983063,245.083740 293.824280,245.081009 
	C286.955048,245.080643 286.945648,245.071136 286.945038,238.096405 
	C286.942413,208.600784 286.885803,179.104996 286.970154,149.609604 
	C287.018738,132.624023 287.768372,115.735283 291.667206,99.040665 
	C298.043488,71.737778 313.754028,51.937595 338.308838,38.874752 
	C352.924500,31.099422 368.460114,25.870119 384.477844,21.796942 
	C417.647400,13.362187 451.361725,8.483894 485.485046,7.020254 
	C514.086853,5.793447 542.740479,5.776277 571.852539,5.232903 
M351.093536,139.146500 
	C351.755463,141.881485 352.307587,144.648590 353.096375,147.346497 
	C360.474762,172.584000 391.079437,187.164871 415.413300,177.067429 
	C442.311005,165.906097 453.736023,136.458755 441.398285,110.092529 
	C428.876434,83.332886 393.655518,74.488876 370.307556,92.250069 
	C355.043152,103.861961 349.210022,119.438438 351.093536,139.146500 
z"/>
<path fill="#5D44EC" opacity="1.000000" stroke="none" 
	d="
M684.308960,551.578125 
	C685.302124,551.509338 686.295227,551.440491 687.975464,551.577881 
	C691.430603,551.083618 694.198730,550.383118 696.966858,549.682617 
	C697.649597,549.631165 698.332397,549.579712 699.769104,549.641846 
	C708.557312,547.617249 716.968506,546.370667 724.551636,543.165222 
	C743.530334,535.142822 761.202332,524.798523 776.258423,510.416565 
	C796.093933,491.469177 811.344238,469.657135 820.399597,443.485779 
	C826.307983,426.409668 829.753540,409.041534 829.846558,391.063782 
	C830.029907,355.580109 829.880371,320.094727 829.967590,284.610321 
	C829.973511,282.206177 830.806519,279.804077 831.254883,277.401031 
	C863.781494,277.393311 896.308105,277.385590 929.483459,277.705505 
	C935.413818,278.448303 940.695496,278.863495 945.977112,279.278687 
	C946.658264,279.325378 947.339355,279.372070 948.540100,279.768860 
	C951.471252,280.570526 953.882751,281.022003 956.294312,281.473511 
	C956.676819,281.538391 957.059265,281.603302 957.884155,282.038147 
	C961.480957,283.690887 964.611145,285.037415 967.793762,286.246063 
	C988.018372,293.926270 1003.739807,307.510864 1016.109863,324.771759 
	C1029.369507,343.273956 1038.372437,364.002136 1044.967896,385.782959 
	C1046.030151,389.291077 1047.792236,392.587250 1049.230835,395.981415 
	C1049.271729,396.370087 1049.312622,396.758759 1049.260132,397.829224 
	C1049.891602,400.328979 1050.616577,402.146881 1051.341431,403.964813 
	C1051.380493,404.349884 1051.419678,404.734955 1051.353149,405.784851 
	C1051.991211,408.401886 1052.735107,410.354126 1053.479004,412.306335 
	C1053.533691,412.688873 1053.588379,413.071381 1053.453247,414.045654 
	C1054.000122,419.147034 1054.567261,423.692535 1055.510010,428.158691 
	C1057.274536,436.517944 1059.604980,444.770813 1061.064819,453.178192 
	C1063.103638,464.920105 1064.510620,476.770752 1066.325562,488.553680 
	C1066.562866,490.093658 1067.616455,491.507965 1068.291870,492.980469 
	C1068.318970,493.670074 1068.346069,494.359711 1068.248047,495.853149 
	C1068.860352,502.095795 1069.597900,507.534668 1070.335327,512.973511 
	C1070.379272,515.270081 1070.423218,517.566650 1070.326904,520.748657 
	C1070.176392,531.082092 1070.113525,540.530273 1070.172852,549.977783 
	C1070.217529,557.081848 1070.419067,564.184875 1070.550903,571.288391 
	C1070.475830,573.250061 1070.400757,575.211792 1070.007080,577.816956 
	C1069.289673,583.399841 1068.890991,588.339172 1068.492188,593.278564 
	C1068.428711,593.962036 1068.365112,594.645447 1067.988403,595.900085 
	C1067.163452,598.212646 1066.525024,599.927856 1066.159668,601.699402 
	C1063.024048,616.909241 1060.514893,632.277405 1056.657837,647.300354 
	C1053.445068,659.814270 1048.896606,672.008362 1044.536011,684.199768 
	C1035.231934,710.212219 1024.554443,735.541870 1007.010742,757.366638 
	C993.245178,774.491211 975.864990,786.278564 954.450134,790.849609 
	C943.032837,793.286743 931.064697,793.999573 919.342529,794.019897 
	C795.695068,794.234863 672.047180,794.152588 548.399353,794.154114 
	C540.815247,794.154236 540.282898,794.700134 540.272827,802.450684 
	C540.265259,808.283142 540.271118,814.115540 540.271423,819.947998 
	C540.271912,828.697388 540.358215,828.786255 549.258484,828.786377 
	C629.579590,828.787537 709.900696,828.823608 790.221558,828.691345 
	C794.777710,828.683838 796.125305,829.853394 796.090088,834.506836 
	C795.874817,863.000916 795.866150,891.497925 796.014587,919.992798 
	C796.165894,949.034546 788.410583,975.043579 768.800415,997.241943 
	C754.820923,1013.066345 737.985413,1024.733398 719.407593,1034.197998 
	C703.218201,1042.445801 686.423157,1049.141479 668.735779,1053.522705 
	C656.143433,1056.641846 643.619629,1060.036865 631.046814,1063.236328 
	C624.059448,1065.014282 617.034241,1066.643555 610.026062,1068.339844 
	C609.635620,1068.357422 609.245178,1068.375122 608.134216,1068.272461 
	C604.170410,1068.902344 600.927185,1069.652588 597.683899,1070.402832 
	C596.692261,1070.474121 595.700684,1070.545410 594.001770,1070.408447 
	C589.207520,1070.919556 585.120544,1071.638916 581.033569,1072.358276 
	C579.266907,1072.463135 577.500305,1072.567993 575.012573,1072.453125 
	C567.172058,1072.296387 560.052795,1072.380249 552.933289,1072.416870 
	C545.362305,1072.455688 537.790955,1072.424438 530.220032,1072.470093 
	C522.485535,1072.516724 514.751282,1072.619263 507.016937,1072.697266 
	C505.574249,1072.597656 504.131592,1072.498047 502.126038,1072.056885 
	C496.946716,1071.320679 492.330231,1070.926025 487.713745,1070.531494 
	C487.029968,1070.469360 486.346191,1070.407227 485.111389,1070.012573 
	C480.952209,1069.270508 477.344055,1068.860840 473.735931,1068.451294 
	C473.347137,1068.405884 472.958344,1068.360352 472.063568,1067.983398 
	C468.358734,1066.969482 465.131226,1066.398560 461.965820,1065.585815 
	C446.190857,1061.535156 430.442902,1057.379028 414.659088,1053.363647 
	C411.396149,1052.533569 408.021057,1052.144287 404.697632,1051.551880 
	C404.317383,1051.482178 403.937103,1051.412476 403.121643,1050.973145 
	C400.346710,1049.476807 398.089935,1048.113403 395.654449,1047.260010 
	C370.583618,1038.475830 347.332184,1026.391602 327.331970,1008.732666 
	C301.957184,986.328247 287.936157,958.498718 287.955566,924.151855 
	C288.001434,842.992493 287.918579,761.833130 288.021515,680.673889 
	C288.044464,662.597473 291.902618,645.080200 299.750244,628.908630 
	C317.207092,592.935242 344.746613,568.380554 383.843140,557.715637 
	C388.570038,556.426208 393.266052,555.023499 397.976349,553.673279 
	C398.369720,553.658875 398.763092,553.644470 399.915894,553.757080 
	C406.999908,553.878845 413.324524,553.870056 419.649109,553.869019 
	C504.389465,553.855225 589.129883,553.869202 673.870056,553.734314 
	C677.350830,553.728760 680.829346,552.328552 684.308960,551.578125 
M715.819885,903.646790 
	C708.872131,900.252197 702.243347,895.073425 694.922729,893.765015 
	C659.001648,887.344788 631.579712,917.302368 638.521118,951.901123 
	C644.018188,979.300964 671.637817,995.682983 698.628357,988.035828 
	C719.192871,982.209351 730.419067,965.442261 732.724976,948.480652 
	C735.097046,931.031738 729.612427,916.025574 715.819885,903.646790 
z"/>
<path fill="#AFA2F6" opacity="1.000000" stroke="none" 
	d="
M610.351929,1068.551758 
	C617.034241,1066.643555 624.059448,1065.014282 631.046814,1063.236328 
	C643.619629,1060.036865 656.143433,1056.641846 668.735779,1053.522705 
	C686.423157,1049.141479 703.218201,1042.445801 719.407593,1034.197998 
	C737.985413,1024.733398 754.820923,1013.066345 768.800415,997.241943 
	C788.410583,975.043579 796.165894,949.034546 796.014587,919.992798 
	C795.866150,891.497925 795.874817,863.000916 796.090088,834.506836 
	C796.125305,829.853394 794.777710,828.683838 790.221558,828.691345 
	C709.900696,828.823608 629.579590,828.787537 549.258484,828.786377 
	C540.358215,828.786255 540.271912,828.697388 540.271423,819.947998 
	C540.271118,814.115540 540.265259,808.283142 540.272827,802.450684 
	C540.282898,794.700134 540.815247,794.154236 548.399353,794.154114 
	C672.047180,794.152588 795.695068,794.234863 919.342529,794.019897 
	C931.064697,793.999573 943.032837,793.286743 954.450134,790.849609 
	C975.864990,786.278564 993.245178,774.491211 1007.010742,757.366638 
	C1024.554443,735.541870 1035.231934,710.212219 1044.536011,684.199768 
	C1048.896606,672.008362 1053.445068,659.814270 1056.657837,647.300354 
	C1060.514893,632.277405 1063.024048,616.909241 1066.159668,601.699402 
	C1066.525024,599.927856 1067.163452,598.212646 1067.987183,596.243652 
	C1068.371948,599.122620 1068.972534,602.327148 1068.417603,605.317139 
	C1066.824219,613.902344 1064.900024,622.433777 1062.849243,630.924377 
	C1060.555298,640.421326 1058.475952,650.014343 1055.414429,659.271545 
	C1050.458618,674.256409 1045.180908,689.163208 1039.307983,703.809753 
	C1030.292847,726.292358 1019.636841,747.980408 1002.507080,765.614258 
	C989.196350,779.316650 973.419739,788.885681 954.465637,793.094604 
	C942.893188,795.664246 931.324402,796.897949 919.488953,796.890076 
	C796.498413,796.807678 673.507751,796.839111 550.517151,796.840027 
	C543.765076,796.840088 543.763184,796.844482 543.760681,803.582764 
	C543.758301,809.915588 543.921753,816.254211 543.696533,822.578979 
	C543.573364,826.036743 544.668884,827.250183 548.216736,827.176636 
	C558.045105,826.972778 567.880493,827.106812 577.713074,827.106812 
	C648.707642,827.106873 719.702271,827.106201 790.696838,827.107849 
	C797.929199,827.108032 797.935059,827.114258 797.935608,834.187439 
	C797.937866,863.185242 797.661865,892.186340 798.014709,921.179810 
	C798.354309,949.083435 790.799744,974.160400 772.932007,995.790771 
	C761.819641,1009.243164 748.714294,1020.581421 733.332031,1028.780762 
	C719.526917,1036.139404 705.407166,1043.083252 690.898254,1048.891235 
	C679.068726,1053.626587 666.543762,1056.738159 654.169312,1059.964844 
	C643.485107,1062.750977 632.588501,1064.732422 621.765015,1066.968994 
	C618.101990,1067.725830 614.375366,1068.174316 610.351929,1068.551758 
z"/>
<path fill="#AFA2F6" opacity="1.000000" stroke="none" 
	d="
M397.656250,553.459595 
	C393.266052,555.023499 388.570038,556.426208 383.843140,557.715637 
	C344.746613,568.380554 317.207092,592.935242 299.750244,628.908630 
	C291.902618,645.080200 288.044464,662.597473 288.021515,680.673889 
	C287.918579,761.833130 288.001434,842.992493 287.955566,924.151855 
	C287.936157,958.498718 301.957184,986.328247 327.331970,1008.732666 
	C347.332184,1026.391602 370.583618,1038.475830 395.654449,1047.260010 
	C398.089935,1048.113403 400.346710,1049.476807 402.832642,1050.947021 
	C397.163635,1049.476929 391.215485,1048.002563 385.557800,1045.786743 
	C367.760529,1038.816284 351.021027,1029.837158 335.754486,1018.268066 
	C323.907379,1009.290405 313.233734,999.050781 304.797241,986.783203 
	C296.372498,974.532654 290.459778,961.014587 287.576569,946.393738 
	C286.234680,939.588806 285.333679,932.572021 285.320770,925.649170 
	C285.168884,844.153259 284.956726,762.655518 285.395172,681.161682 
	C285.517792,658.372864 291.958252,636.802856 303.613678,617.011475 
	C317.811829,592.902344 337.482239,574.661316 362.863831,562.885864 
	C373.757019,557.832092 384.987549,553.380188 397.656250,553.459595 
z"/>
<path fill="#AFA2F6" opacity="1.000000" stroke="none" 
	d="
M830.857666,277.259857 
	C830.806519,279.804077 829.973511,282.206177 829.967590,284.610321 
	C829.880371,320.094727 830.029907,355.580109 829.846558,391.063782 
	C829.753540,409.041534 826.307983,426.409668 820.399597,443.485779 
	C811.344238,469.657135 796.093933,491.469177 776.258423,510.416565 
	C761.202332,524.798523 743.530334,535.142822 724.551636,543.165222 
	C716.968506,546.370667 708.557312,547.617249 700.106567,549.583618 
	C703.942749,547.942444 708.174011,546.407227 712.451660,545.014709 
	C742.101440,535.362488 767.224182,519.052368 787.739075,495.361664 
	C798.591003,482.829834 807.416504,469.117767 814.081665,454.143158 
	C818.103699,445.106964 820.288269,435.245728 823.206360,425.726959 
	C827.650146,411.231293 827.263000,396.295135 827.227661,381.373993 
	C827.149963,348.580719 827.182312,315.787109 827.248840,282.993774 
	C827.253601,280.625641 826.005554,277.209351 830.857666,277.259857 
z"/>
<path fill="#AFA2F6" opacity="1.000000" stroke="none" 
	d="
M683.845581,551.397522 
	C680.829346,552.328552 677.350830,553.728760 673.870056,553.734314 
	C589.129883,553.869202 504.389465,553.855225 419.649109,553.869019 
	C413.324524,553.870056 406.999908,553.878845 400.209045,553.721191 
	C403.186188,552.764771 406.628479,551.284485 410.073303,551.278503 
	C489.519836,551.140808 568.966675,551.160889 648.413452,551.159241 
	C660.069702,551.158997 671.726013,551.196777 683.845581,551.397522 
z"/>
<path fill="#AFA2F6" opacity="1.000000" stroke="none" 
	d="
M1049.453613,395.712006 
	C1047.792236,392.587250 1046.030151,389.291077 1044.967896,385.782959 
	C1038.372437,364.002136 1029.369507,343.273956 1016.109863,324.771759 
	C1003.739807,307.510864 988.018372,293.926270 967.793762,286.246063 
	C964.611145,285.037415 961.480957,283.690887 958.174316,282.062500 
	C962.949402,283.048370 968.204041,283.685303 972.749207,285.827576 
	C996.795166,297.161224 1014.913513,315.086090 1026.961304,338.530640 
	C1034.824585,353.832214 1040.888550,370.066559 1047.546265,385.971985 
	C1048.776489,388.911072 1048.992188,392.274841 1049.453613,395.712006 
z"/>
<path fill="#AFA2F6" opacity="1.000000" stroke="none" 
	d="
M1068.515381,492.650696 
	C1067.616455,491.507965 1066.562866,490.093658 1066.325562,488.553680 
	C1064.510620,476.770752 1063.103638,464.920105 1061.064819,453.178192 
	C1059.604980,444.770813 1057.274536,436.517944 1055.510010,428.158691 
	C1054.567261,423.692535 1054.000122,419.147034 1053.471802,414.335022 
	C1055.095581,418.254089 1056.848389,422.396484 1057.858887,426.712677 
	C1060.260254,436.970581 1062.457764,447.282379 1064.444214,457.628754 
	C1065.559326,463.436218 1066.149170,469.348633 1066.867798,475.226990 
	C1067.563232,480.916199 1068.120728,486.622284 1068.515381,492.650696 
z"/>
<path fill="#AFA2F6" opacity="1.000000" stroke="none" 
	d="
M507.248230,1073.012451 
	C514.751282,1072.619263 522.485535,1072.516724 530.220032,1072.470093 
	C537.790955,1072.424438 545.362305,1072.455688 552.933289,1072.416870 
	C560.052795,1072.380249 567.172058,1072.296387 574.632568,1072.450928 
	C572.172119,1073.395874 569.377319,1074.720459 566.567749,1074.752563 
	C549.622314,1074.946289 532.672913,1074.911133 515.726318,1074.772827 
	C512.973633,1074.750366 510.228241,1073.831909 507.248230,1073.012451 
z"/>
<path fill="#AFA2F6" opacity="1.000000" stroke="none" 
	d="
M404.863708,1051.851685 
	C408.021057,1052.144287 411.396149,1052.533569 414.659088,1053.363647 
	C430.442902,1057.379028 446.190857,1061.535156 461.965820,1065.585815 
	C465.131226,1066.398560 468.358734,1066.969482 471.769958,1067.974121 
	C466.169800,1067.674194 460.278961,1067.451660 454.564087,1066.331299 
	C446.999207,1064.848267 439.539154,1062.782959 432.094299,1060.747437 
	C423.382446,1058.365601 414.732513,1055.756470 406.069244,1053.199829 
	C405.655640,1053.077759 405.373260,1052.511108 404.863708,1051.851685 
z"/>
<path fill="#AFA2F6" opacity="1.000000" stroke="none" 
	d="
M1070.833740,571.071045 
	C1070.419067,564.184875 1070.217529,557.081848 1070.172852,549.977783 
	C1070.113525,540.530273 1070.176392,531.082092 1070.370850,521.171753 
	C1071.275391,523.023315 1072.630371,525.342285 1072.612549,527.650635 
	C1072.504883,541.608521 1072.089111,555.564209 1071.740601,569.519714 
	C1071.729248,569.969238 1071.333130,570.409241 1070.833740,571.071045 
z"/>
<path fill="#AFA2F6" opacity="1.000000" stroke="none" 
	d="
M1070.554932,512.635437 
	C1069.597900,507.534668 1068.860352,502.095795 1068.292236,496.195557 
	C1072.499390,500.799011 1070.368408,506.725342 1070.554932,512.635437 
z"/>
<path fill="#AFA2F6" opacity="1.000000" stroke="none" 
	d="
M945.798950,278.919434 
	C940.695496,278.863495 935.413818,278.448303 929.932739,277.735992 
	C935.029114,277.812683 940.325012,278.186432 945.798950,278.919434 
z"/>
<path fill="#AFA2F6" opacity="1.000000" stroke="none" 
	d="
M1068.794189,593.092896 
	C1068.890991,588.339172 1069.289673,583.399841 1070.010986,578.241211 
	C1069.921143,582.983704 1069.508667,587.945496 1068.794189,593.092896 
z"/>
<path fill="#AFA2F6" opacity="1.000000" stroke="none" 
	d="
M487.916290,1070.818726 
	C492.330231,1070.926025 496.946716,1071.320679 501.765533,1072.053833 
	C497.351532,1071.963745 492.735168,1071.534912 487.916290,1070.818726 
z"/>
<path fill="#AFA2F6" opacity="1.000000" stroke="none" 
	d="
M581.362793,1072.578003 
	C585.120544,1071.638916 589.207520,1070.919556 593.628052,1070.409668 
	C589.871826,1071.345459 585.781921,1072.071533 581.362793,1072.578003 
z"/>
<path fill="#AFA2F6" opacity="1.000000" stroke="none" 
	d="
M473.913147,1068.754272 
	C477.344055,1068.860840 480.952209,1069.270508 484.767639,1070.011719 
	C481.346741,1069.914795 477.718536,1069.485962 473.913147,1068.754272 
z"/>
<path fill="#AFA2F6" opacity="1.000000" stroke="none" 
	d="
M598.111328,1070.581787 
	C600.927185,1069.652588 604.170410,1068.902344 607.843994,1068.314941 
	C605.029114,1069.238770 601.783936,1069.999878 598.111328,1070.581787 
z"/>
<path fill="#AFA2F6" opacity="1.000000" stroke="none" 
	d="
M696.665649,549.464600 
	C694.198730,550.383118 691.430603,551.083618 688.349121,551.575317 
	C690.812012,550.659912 693.588257,549.953308 696.665649,549.464600 
z"/>
<path fill="#AFA2F6" opacity="1.000000" stroke="none" 
	d="
M956.117432,281.166901 
	C953.882751,281.022003 951.471252,280.570526 948.877930,279.817719 
	C951.111023,279.964386 953.525757,280.412323 956.117432,281.166901 
z"/>
<path fill="#AFA2F6" opacity="1.000000" stroke="none" 
	d="
M1053.636963,411.925201 
	C1052.735107,410.354126 1051.991211,408.401886 1051.412109,406.069214 
	C1052.316162,407.640533 1053.055542,409.592285 1053.636963,411.925201 
z"/>
<path fill="#AFA2F6" opacity="1.000000" stroke="none" 
	d="
M1051.540039,403.691925 
	C1050.616577,402.146881 1049.891602,400.328979 1049.315674,398.117065 
	C1050.222656,399.621765 1050.980713,401.520386 1051.540039,403.691925 
z"/>
<path fill="#FCFCFF" opacity="1.000000" stroke="none" 
	d="
M351.062592,138.683136 
	C349.210022,119.438438 355.043152,103.861961 370.307556,92.250069 
	C393.655518,74.488876 428.876434,83.332886 441.398285,110.092529 
	C453.736023,136.458755 442.311005,165.906097 415.413300,177.067429 
	C391.079437,187.164871 360.474762,172.584000 353.096375,147.346497 
	C352.307587,144.648590 351.755463,141.881485 351.062592,138.683136 
z"/>
<path fill="#FCFCFF" opacity="1.000000" stroke="none" 
	d="
M716.093018,903.877014 
	C729.612427,916.025574 735.097046,931.031738 732.724976,948.480652 
	C730.419067,965.442261 719.192871,982.209351 698.628357,988.035828 
	C671.637817,995.682983 644.018188,979.300964 638.521118,951.901123 
	C631.579712,917.302368 659.001648,887.344788 694.922729,893.765015 
	C702.243347,895.073425 708.872131,900.252197 716.093018,903.877014 
z"/>
</svg>