<svg version="1.1" id="Layer_1" xmlns="http://www.w3.org/2000/svg" xmlns:xlink="http://www.w3.org/1999/xlink" x="0px" y="0px"
	 width="100%" viewBox="0 0 1080 1080" enable-background="new 0 0 1080 1080" xml:space="preserve">
<path fill="#FFFFFF" opacity="1.000000" stroke="none" 
	d="
M1.000000,417.000000 
	C1.000000,278.015991 1.000000,139.531967 1.000000,1.023973 
	C360.942474,1.023973 720.884949,1.023973 1080.913696,1.023973 
	C1080.913696,360.900909 1080.913696,720.801819 1080.913696,1080.851318 
	C721.000061,1080.851318 361.000031,1080.851318 1.000000,1080.851318 
	C1.000000,859.781250 1.000000,638.640625 1.000000,417.000000 
M843.130310,728.110413 
	C842.325439,724.207581 841.510437,720.306763 840.719360,716.401123 
	C840.197327,713.823669 841.120422,712.551025 843.834839,711.824219 
	C851.049561,709.892334 858.213989,707.735718 865.306763,705.391174 
	C894.966919,695.586731 924.085632,684.479004 951.756042,669.799866 
	C983.163696,653.138000 1012.031677,633.347534 1033.753174,604.551331 
	C1045.282837,589.266357 1053.185913,572.220825 1055.532715,553.245789 
	C1058.584351,528.573303 1052.410522,505.747040 1038.987671,484.837219 
	C1024.690186,462.564819 1005.303345,445.401489 983.622314,430.853760 
	C941.150208,402.355408 893.817749,384.668945 845.095215,370.418457 
	C839.873962,368.891327 840.420898,366.315765 841.117493,362.770203 
	C845.181885,342.081818 849.773865,321.482269 853.238953,300.694580 
	C858.093872,271.568146 860.283813,242.232025 857.781006,212.657959 
	C855.863953,190.004608 851.879028,167.875320 842.698608,146.930756 
	C833.392883,125.700493 819.742371,108.062637 799.485291,96.199516 
	C772.393066,80.333481 743.454346,80.057083 713.948425,87.032722 
	C688.180786,93.124565 664.442871,104.239861 641.738708,117.673172 
	C606.300842,138.640625 574.871399,164.770737 545.057190,192.951309 
	C542.145996,195.702972 540.222595,195.983658 537.195801,193.085846 
	C516.257568,173.039597 494.327332,154.145966 470.607971,137.431793 
	C433.339142,111.169853 394.207916,89.161102 347.813019,83.583145 
	C330.279114,81.475075 313.197327,83.084862 296.804382,89.406219 
	C270.810638,99.429787 253.074448,118.325714 241.229584,143.132095 
	C228.727112,169.315720 224.666656,197.406738 223.634506,225.945190 
	C223.112793,240.370438 223.782425,254.955399 225.346069,269.312103 
	C227.683716,290.775269 231.022110,312.143219 234.461395,333.466705 
	C236.151062,343.942505 238.951935,354.244507 241.403625,364.588776 
	C242.184280,367.882507 241.316360,369.295746 237.916183,370.238892 
	C228.333832,372.896759 218.684509,375.505127 209.412262,379.050232 
	C188.195465,387.162109 166.863342,395.100281 146.168137,404.419342 
	C112.433701,419.610046 81.601776,439.323639 56.598602,467.140076 
	C40.922600,484.579834 30.103170,504.694885 26.627520,527.921570 
	C23.821066,546.676331 27.131851,565.009033 35.210464,582.308105 
	C46.696716,606.904114 65.030289,625.672974 86.246086,641.931213 
	C116.053375,664.773254 149.606995,680.669189 184.460266,693.905701 
	C201.366257,700.326294 218.767731,705.439148 235.926819,711.197815 
	C242.644104,713.452209 242.310242,713.455383 240.879028,720.420288 
	C236.768387,740.424683 232.434906,760.403442 229.105881,780.543762 
	C223.962479,811.660828 221.631165,842.929321 224.946487,874.531738 
	C227.448608,898.382629 232.180923,921.495483 243.375183,942.850952 
	C262.592468,979.512146 293.124695,998.537964 334.470886,999.515381 
	C351.375458,999.914917 367.892883,996.320923 383.892975,991.074524 
	C408.634186,982.962036 431.507324,970.864563 453.255737,956.670837 
	C483.593750,936.871277 511.262390,913.724243 537.312744,888.618469 
	C540.029968,885.999817 541.674255,885.640442 544.611633,888.454834 
	C569.637695,912.433960 595.896057,934.946289 624.972168,953.948242 
	C657.867004,975.445862 692.196533,993.385986 732.035217,998.475891 
	C747.551208,1000.458252 762.711426,999.661377 777.462769,995.209778 
	C810.752502,985.163635 831.916565,961.965759 844.597656,930.483093 
	C854.537354,905.806091 857.898193,879.758728 858.648499,853.373718 
	C859.341187,829.014771 857.325439,804.786255 853.196350,780.783264 
	C850.213745,763.444946 846.644531,746.207581 843.130310,728.110413 
z"/>
<path fill="#5F46EC" opacity="1.000000" stroke="none" 
	d="
M843.233643,728.517822 
	C846.644531,746.207581 850.213745,763.444946 853.196350,780.783264 
	C857.325439,804.786255 859.341187,829.014771 858.648499,853.373718 
	C857.898193,879.758728 854.537354,905.806091 844.597656,930.483093 
	C831.916565,961.965759 810.752502,985.163635 777.462769,995.209778 
	C762.711426,999.661377 747.551208,1000.458252 732.035217,998.475891 
	C692.196533,993.385986 657.867004,975.445862 624.972168,953.948242 
	C595.896057,934.946289 569.637695,912.433960 544.611633,888.454834 
	C541.674255,885.640442 540.029968,885.999817 537.312744,888.618469 
	C511.262390,913.724243 483.593750,936.871277 453.255737,956.670837 
	C431.507324,970.864563 408.634186,982.962036 383.892975,991.074524 
	C367.892883,996.320923 351.375458,999.914917 334.470886,999.515381 
	C293.124695,998.537964 262.592468,979.512146 243.375183,942.850952 
	C232.180923,921.495483 227.448608,898.382629 224.946487,874.531738 
	C221.631165,842.929321 223.962479,811.660828 229.105881,780.543762 
	C232.434906,760.403442 236.768387,740.424683 240.879028,720.420288 
	C242.310242,713.455383 242.644104,713.452209 235.926819,711.197815 
	C218.767731,705.439148 201.366257,700.326294 184.460266,693.905701 
	C149.606995,680.669189 116.053375,664.773254 86.246086,641.931213 
	C65.030289,625.672974 46.696716,606.904114 35.210464,582.308105 
	C27.131851,565.009033 23.821066,546.676331 26.627520,527.921570 
	C30.103170,504.694885 40.922600,484.579834 56.598602,467.140076 
	C81.601776,439.323639 112.433701,419.610046 146.168137,404.419342 
	C166.863342,395.100281 188.195465,387.162109 209.412262,379.050232 
	C218.684509,375.505127 228.333832,372.896759 237.916183,370.238892 
	C241.316360,369.295746 242.184280,367.882507 241.403625,364.588776 
	C238.951935,354.244507 236.151062,343.942505 234.461395,333.466705 
	C231.022110,312.143219 227.683716,290.775269 225.346069,269.312103 
	C223.782425,254.955399 223.112793,240.370438 223.634506,225.945190 
	C224.666656,197.406738 228.727112,169.315720 241.229584,143.132095 
	C253.074448,118.325714 270.810638,99.429787 296.804382,89.406219 
	C313.197327,83.084862 330.279114,81.475075 347.813019,83.583145 
	C394.207916,89.161102 433.339142,111.169853 470.607971,137.431793 
	C494.327332,154.145966 516.257568,173.039597 537.195801,193.085846 
	C540.222595,195.983658 542.145996,195.702972 545.057190,192.951309 
	C574.871399,164.770737 606.300842,138.640625 641.738708,117.673172 
	C664.442871,104.239861 688.180786,93.124565 713.948425,87.032722 
	C743.454346,80.057083 772.393066,80.333481 799.485291,96.199516 
	C819.742371,108.062637 833.392883,125.700493 842.698608,146.930756 
	C851.879028,167.875320 855.863953,190.004608 857.781006,212.657959 
	C860.283813,242.232025 858.093872,271.568146 853.238953,300.694580 
	C849.773865,321.482269 845.181885,342.081818 841.117493,362.770203 
	C840.420898,366.315765 839.873962,368.891327 845.095215,370.418457 
	C893.817749,384.668945 941.150208,402.355408 983.622314,430.853760 
	C1005.303345,445.401489 1024.690186,462.564819 1038.987671,484.837219 
	C1052.410522,505.747040 1058.584351,528.573303 1055.532715,553.245789 
	C1053.185913,572.220825 1045.282837,589.266357 1033.753174,604.551331 
	C1012.031677,633.347534 983.163696,653.138000 951.756042,669.799866 
	C924.085632,684.479004 894.966919,695.586731 865.306763,705.391174 
	C858.213989,707.735718 851.049561,709.892334 843.834839,711.824219 
	C841.120422,712.551025 840.197327,713.823669 840.719360,716.401123 
	C841.510437,720.306763 842.325439,724.207581 843.233643,728.517822 
M689.630249,617.105591 
	C702.167542,593.324646 714.651306,569.515198 727.300720,545.794006 
	C729.161011,542.305420 729.029419,539.436646 727.233276,535.990234 
	C720.023865,522.156860 713.273315,508.082062 705.949280,494.311279 
	C685.261719,455.413940 662.467957,417.774078 637.569702,381.425385 
	C636.439087,379.774750 633.988342,378.161774 632.065430,378.051636 
	C607.302429,376.633026 582.517639,374.403107 557.750122,374.538239 
	C521.971313,374.733337 486.199524,376.628326 450.435516,378.065948 
	C448.318207,378.151031 445.627441,380.152222 444.327881,382.036926 
	C410.383606,431.266663 380.743103,483.010162 354.702789,536.815125 
	C353.604828,539.083679 353.659790,542.824890 354.766205,545.111328 
	C379.416382,596.051758 407.637634,644.953003 438.793518,692.199219 
	C443.813507,699.811768 448.444458,706.439026 458.871674,704.421936 
	C459.026154,704.392029 459.199493,704.477539 459.365021,704.484009 
	C487.144653,705.580505 514.927307,707.602905 542.703308,707.515442 
	C572.148438,707.422668 601.591309,705.406311 631.021179,703.948547 
	C633.360718,703.832703 636.499878,702.097412 637.735962,700.145142 
	C655.064819,672.776184 672.127197,645.238464 689.630249,617.105591 
M250.982101,411.282776 
	C241.463364,414.270844 231.920242,417.183716 222.430298,420.260620 
	C189.423981,430.962036 157.618591,444.396454 128.207321,462.964600 
	C109.384003,474.848267 92.099556,488.619202 79.843040,507.644043 
	C66.712990,528.024841 65.470467,548.970032 77.529755,570.348389 
	C86.556480,586.350708 99.762383,598.426147 114.272163,609.214417 
	C135.901520,625.296204 159.585449,637.797058 184.658447,647.400757 
	C206.205750,655.653870 228.250427,662.604187 250.027863,670.265076 
	C253.440033,671.465393 254.687408,670.515076 255.688690,667.190918 
	C258.225067,658.770386 260.777496,650.317261 264.016937,642.152344 
	C276.761139,610.030701 289.720978,577.994080 302.758392,545.990112 
	C304.193970,542.466003 304.362305,539.500366 302.788971,535.998962 
	C296.930115,522.959900 290.792603,510.009735 285.720520,496.661133 
	C275.281830,469.188812 265.491333,441.470520 255.290695,413.906525 
	C254.833862,412.672058 252.965378,411.960022 250.982101,411.282776 
M798.193665,589.305603 
	C807.759338,615.648193 817.285034,642.005676 827.029419,668.281921 
	C827.439575,669.387878 830.109680,670.617188 831.342224,670.299011 
	C838.730713,668.391724 846.045105,666.167603 853.313293,663.829102 
	C883.285828,654.185547 912.507629,642.711731 939.984131,627.193909 
	C961.977905,614.772400 982.465576,600.434082 998.262878,580.241272 
	C1016.404602,557.051819 1017.862915,530.730347 1001.503845,506.265808 
	C989.361694,488.107544 972.595459,474.658936 954.332458,463.150452 
	C916.167480,439.100769 874.248596,423.802765 831.230042,411.172943 
	C828.496460,410.370361 827.545654,411.600372 826.677612,414.147003 
	C821.006958,430.783264 815.623962,447.544189 809.188110,463.886749 
	C799.583801,488.275024 789.087402,512.310974 779.275818,536.620117 
	C778.232117,539.205994 778.352295,542.970215 779.418335,545.581177 
	C785.316406,560.027405 791.674988,574.285706 798.193665,589.305603 
M789.016113,939.515930 
	C791.662476,936.109131 794.561340,932.867188 796.912292,929.267456 
	C808.049622,912.213318 812.171753,892.844727 814.063965,873.060669 
	C816.127075,851.489014 815.531860,829.873047 813.303833,808.253357 
	C810.483582,780.887085 805.267151,754.011230 798.780579,727.326660 
	C798.015381,724.178894 796.556641,723.866150 793.817078,724.377808 
	C770.948669,728.649109 748.129944,733.249573 725.160645,736.897034 
	C706.127502,739.919495 686.941528,742.100586 667.756958,743.976685 
	C661.698975,744.569153 657.817749,746.773071 654.188599,751.485168 
	C634.423401,777.148560 614.510376,802.701538 594.345215,828.051575 
	C587.237183,836.987305 579.271790,845.241150 571.587097,853.931580 
	C572.773865,855.277283 573.574280,856.320923 574.509277,857.225281 
	C604.236694,885.974487 635.918396,912.246033 672.148132,932.503113 
	C692.540222,943.904846 713.804749,953.330811 737.453552,955.675903 
	C756.605652,957.575256 774.297058,954.375610 789.016113,939.515930 
M368.370850,130.943298 
	C358.074921,129.202301 347.831238,126.464371 337.472534,125.921501 
	C313.654816,124.673271 295.431732,134.569412 283.391510,155.547638 
	C273.112762,173.456741 269.326599,193.113556 267.730499,213.255096 
	C265.604401,240.085571 266.858826,266.884949 271.418213,293.397156 
	C274.964508,314.018524 279.561493,334.458160 283.564758,355.003235 
	C284.093140,357.714905 285.374756,358.215454 287.725769,357.697723 
	C292.109222,356.732361 296.491577,355.750458 300.901398,354.918671 
	C316.734894,351.931915 332.506836,348.507233 348.437683,346.174530 
	C371.131470,342.851593 393.930939,340.224792 416.719238,337.594818 
	C421.280579,337.068359 424.273926,335.321472 426.861145,331.584167 
	C432.821655,322.974121 438.812134,314.338287 445.441925,306.246704 
	C465.995056,281.161865 486.759644,256.247833 507.698303,231.484085 
	C510.614410,228.035233 509.840576,226.212219 507.097900,223.761917 
	C498.536743,216.113312 490.157288,208.256744 481.479095,200.744522 
	C447.757812,171.553757 411.933014,145.718399 368.370850,130.943298 
M771.798340,352.661957 
	C779.419312,354.341003 787.046875,355.990845 794.657532,357.715393 
	C797.229980,358.298279 798.128418,357.184662 798.712952,354.783386 
	C807.463806,318.833740 814.264404,282.601715 815.137573,245.467407 
	C815.759094,219.037201 814.547363,192.828049 804.737305,167.843033 
	C798.087341,150.906418 788.011230,136.657150 770.334534,129.766113 
	C753.304565,123.127235 736.023865,125.101021 718.887512,129.759552 
	C696.718201,135.786301 676.582031,146.254700 657.220459,158.343613 
	C631.891724,174.158249 608.857361,192.961136 586.771729,212.954086 
	C581.531372,217.697937 576.810181,223.015381 571.724976,228.196579 
	C579.013855,236.393265 586.453186,244.044754 593.080811,252.344467 
	C613.920349,278.441620 634.677429,304.612732 654.915283,331.175110 
	C658.866516,336.361023 663.274780,337.331543 668.828857,337.960114 
	C687.815857,340.108826 706.812866,342.233704 725.733521,344.885284 
	C740.870300,347.006592 755.901489,349.881317 771.798340,352.661957 
M395.870941,939.428162 
	C409.110779,931.836670 422.828583,924.960815 435.490173,916.503601 
	C461.264404,899.287964 484.928864,879.358398 507.237061,857.814331 
	C510.238953,854.915222 510.253937,853.254578 507.478088,850.191528 
	C480.419556,820.333130 454.580017,789.440430 431.513519,756.382690 
	C425.681671,748.024719 419.634460,742.525208 409.004120,743.660645 
	C407.084961,743.865601 405.068146,743.113708 403.092041,742.834473 
	C379.545654,739.507141 355.957153,736.449158 332.466736,732.765320 
	C318.018311,730.499573 303.705017,727.351135 289.363892,724.437439 
	C285.808319,723.715027 284.000244,724.124817 283.200745,728.280884 
	C280.092773,744.436768 276.365967,760.473755 273.272583,776.632202 
	C268.341553,802.390015 266.333160,828.424561 266.969177,854.642639 
	C267.513367,877.074585 270.312805,899.148926 279.913788,919.721436 
	C290.878448,943.216064 308.787323,956.464050 335.575104,956.020386 
	C356.858551,955.667908 376.317596,948.830811 395.870941,939.428162 
M539.057129,260.698975 
	C518.609497,283.581085 498.427490,306.676453 479.774811,332.232574 
	C521.446655,332.232574 561.385193,332.232574 602.711975,332.232574 
	C597.064819,325.010803 592.379944,318.648163 587.310669,312.608215 
	C573.308350,295.924652 559.192322,279.335388 544.961975,262.846344 
	C543.748169,261.439941 541.349487,261.056091 539.057129,260.698975 
M782.252808,411.741760 
	C782.921204,409.687836 783.628357,407.645599 784.250366,405.577728 
	C785.846252,400.272247 785.081299,399.153015 779.670105,398.232361 
	C775.249573,397.480255 770.871948,396.477631 766.453552,395.711456 
	C744.360657,391.880524 722.268005,388.046692 700.153198,384.345795 
	C697.554138,383.910828 694.819336,384.286743 692.198669,384.286743 
	C712.574036,419.507416 732.613770,454.147827 753.044922,489.464813 
	C755.181274,484.343536 757.044495,480.273315 758.597229,476.087921 
	C766.453674,454.910461 774.229553,433.703094 782.252808,411.741760 
M506.645294,783.870483 
	C516.985779,795.827393 527.366333,807.750000 537.637512,819.766113 
	C540.082520,822.626465 541.977356,822.695862 544.423157,819.753723 
	C562.499695,798.008789 580.664246,776.336975 598.759338,754.607422 
	C599.953796,753.173096 600.804138,751.452332 601.959290,749.637451 
	C561.237732,749.637451 521.243530,749.637451 479.367950,749.637451 
	C488.796173,761.472717 497.495880,772.393494 506.645294,783.870483 
M352.461060,692.989258 
	C364.911407,694.769592 377.361755,696.549927 390.478180,698.425476 
	C369.644318,662.412231 349.599457,627.762939 329.520111,593.053955 
	C328.856262,593.564514 328.460022,593.708923 328.364838,593.965210 
	C318.253693,621.181946 308.099915,648.383118 298.125336,675.649841 
	C295.880493,681.786377 296.851105,682.698303 303.626129,683.917114 
	C319.634827,686.797180 335.613068,689.846497 352.461060,692.989258 
M749.977661,596.417297 
	C730.847656,630.156677 711.717651,663.896057 692.104187,698.488159 
	C704.584473,696.691772 716.581665,695.238464 728.475708,693.187134 
	C745.156311,690.310303 761.746765,686.914429 778.403198,683.891907 
	C785.462585,682.610840 786.169922,681.596619 783.753601,674.702637 
	C778.592529,659.977905 773.652039,645.172363 768.256348,630.534424 
	C763.627991,617.978333 758.492065,605.609375 753.158997,592.088562 
	C751.719543,593.892334 750.984009,594.814026 749.977661,596.417297 
M301.873627,417.619080 
	C310.151215,441.492432 318.559967,465.314209 329.231628,489.284729 
	C349.792511,453.717712 369.756287,419.183624 390.170166,383.870941 
	C386.267548,384.183044 382.848267,384.263916 379.490265,384.759827 
	C367.664368,386.506195 355.821808,388.183502 344.056335,390.283691 
	C329.515076,392.879364 315.046417,395.881104 300.541901,398.684174 
	C297.351379,399.300751 296.447235,400.993591 297.536804,404.069122 
	C299.032318,408.290527 300.330872,412.581726 301.873627,417.619080 
z"/>
<path fill="#FDFDFF" opacity="1.000000" stroke="none" 
	d="
M689.442383,617.423706 
	C672.127197,645.238464 655.064819,672.776184 637.735962,700.145142 
	C636.499878,702.097412 633.360718,703.832703 631.021179,703.948547 
	C601.591309,705.406311 572.148438,707.422668 542.703308,707.515442 
	C514.927307,707.602905 487.144653,705.580505 459.365021,704.484009 
	C459.199493,704.477539 459.026154,704.392029 458.871674,704.421936 
	C448.444458,706.439026 443.813507,699.811768 438.793518,692.199219 
	C407.637634,644.953003 379.416382,596.051758 354.766205,545.111328 
	C353.659790,542.824890 353.604828,539.083679 354.702789,536.815125 
	C380.743103,483.010162 410.383606,431.266663 444.327881,382.036926 
	C445.627441,380.152222 448.318207,378.151031 450.435516,378.065948 
	C486.199524,376.628326 521.971313,374.733337 557.750122,374.538239 
	C582.517639,374.403107 607.302429,376.633026 632.065430,378.051636 
	C633.988342,378.161774 636.439087,379.774750 637.569702,381.425385 
	C662.467957,417.774078 685.261719,455.413940 705.949280,494.311279 
	C713.273315,508.082062 720.023865,522.156860 727.233276,535.990234 
	C729.029419,539.436646 729.161011,542.305420 727.300720,545.794006 
	C714.651306,569.515198 702.167542,593.324646 689.442383,617.423706 
M480.613647,472.077972 
	C442.886047,505.481628 439.282410,561.246765 470.119659,599.352417 
	C503.140076,640.155762 565.817444,644.228271 603.778015,607.872192 
	C627.694946,584.966125 636.833313,556.729858 631.185974,524.321289 
	C626.721375,498.700409 612.848755,478.584595 591.105225,464.180389 
	C575.241333,453.671204 557.508606,448.810852 538.638184,449.357147 
	C517.016541,449.983185 497.705475,457.478027 480.613647,472.077972 
z"/>
<path fill="#FEFEFF" opacity="1.000000" stroke="none" 
	d="
M251.368256,411.143738 
	C252.965378,411.960022 254.833862,412.672058 255.290695,413.906525 
	C265.491333,441.470520 275.281830,469.188812 285.720520,496.661133 
	C290.792603,510.009735 296.930115,522.959900 302.788971,535.998962 
	C304.362305,539.500366 304.193970,542.466003 302.758392,545.990112 
	C289.720978,577.994080 276.761139,610.030701 264.016937,642.152344 
	C260.777496,650.317261 258.225067,658.770386 255.688690,667.190918 
	C254.687408,670.515076 253.440033,671.465393 250.027863,670.265076 
	C228.250427,662.604187 206.205750,655.653870 184.658447,647.400757 
	C159.585449,637.797058 135.901520,625.296204 114.272163,609.214417 
	C99.762383,598.426147 86.556480,586.350708 77.529755,570.348389 
	C65.470467,548.970032 66.712990,528.024841 79.843040,507.644043 
	C92.099556,488.619202 109.384003,474.848267 128.207321,462.964600 
	C157.618591,444.396454 189.423981,430.962036 222.430298,420.260620 
	C231.920242,417.183716 241.463364,414.270844 251.368256,411.143738 
z"/>
<path fill="#FEFEFF" opacity="1.000000" stroke="none" 
	d="
M798.034729,588.956970 
	C791.674988,574.285706 785.316406,560.027405 779.418335,545.581177 
	C778.352295,542.970215 778.232117,539.205994 779.275818,536.620117 
	C789.087402,512.310974 799.583801,488.275024 809.188110,463.886749 
	C815.623962,447.544189 821.006958,430.783264 826.677612,414.147003 
	C827.545654,411.600372 828.496460,410.370361 831.230042,411.172943 
	C874.248596,423.802765 916.167480,439.100769 954.332458,463.150452 
	C972.595459,474.658936 989.361694,488.107544 1001.503845,506.265808 
	C1017.862915,530.730347 1016.404602,557.051819 998.262878,580.241272 
	C982.465576,600.434082 961.977905,614.772400 939.984131,627.193909 
	C912.507629,642.711731 883.285828,654.185547 853.313293,663.829102 
	C846.045105,666.167603 838.730713,668.391724 831.342224,670.299011 
	C830.109680,670.617188 827.439575,669.387878 827.029419,668.281921 
	C817.285034,642.005676 807.759338,615.648193 798.034729,588.956970 
z"/>
<path fill="#FEFEFF" opacity="1.000000" stroke="none" 
	d="
M788.765747,939.768311 
	C774.297058,954.375610 756.605652,957.575256 737.453552,955.675903 
	C713.804749,953.330811 692.540222,943.904846 672.148132,932.503113 
	C635.918396,912.246033 604.236694,885.974487 574.509277,857.225281 
	C573.574280,856.320923 572.773865,855.277283 571.587097,853.931580 
	C579.271790,845.241150 587.237183,836.987305 594.345215,828.051575 
	C614.510376,802.701538 634.423401,777.148560 654.188599,751.485168 
	C657.817749,746.773071 661.698975,744.569153 667.756958,743.976685 
	C686.941528,742.100586 706.127502,739.919495 725.160645,736.897034 
	C748.129944,733.249573 770.948669,728.649109 793.817078,724.377808 
	C796.556641,723.866150 798.015381,724.178894 798.780579,727.326660 
	C805.267151,754.011230 810.483582,780.887085 813.303833,808.253357 
	C815.531860,829.873047 816.127075,851.489014 814.063965,873.060669 
	C812.171753,892.844727 808.049622,912.213318 796.912292,929.267456 
	C794.561340,932.867188 791.662476,936.109131 788.765747,939.768311 
z"/>
<path fill="#FEFEFF" opacity="1.000000" stroke="none" 
	d="
M368.761780,131.035248 
	C411.933014,145.718399 447.757812,171.553757 481.479095,200.744522 
	C490.157288,208.256744 498.536743,216.113312 507.097900,223.761917 
	C509.840576,226.212219 510.614410,228.035233 507.698303,231.484085 
	C486.759644,256.247833 465.995056,281.161865 445.441925,306.246704 
	C438.812134,314.338287 432.821655,322.974121 426.861145,331.584167 
	C424.273926,335.321472 421.280579,337.068359 416.719238,337.594818 
	C393.930939,340.224792 371.131470,342.851593 348.437683,346.174530 
	C332.506836,348.507233 316.734894,351.931915 300.901398,354.918671 
	C296.491577,355.750458 292.109222,356.732361 287.725769,357.697723 
	C285.374756,358.215454 284.093140,357.714905 283.564758,355.003235 
	C279.561493,334.458160 274.964508,314.018524 271.418213,293.397156 
	C266.858826,266.884949 265.604401,240.085571 267.730499,213.255096 
	C269.326599,193.113556 273.112762,173.456741 283.391510,155.547638 
	C295.431732,134.569412 313.654816,124.673271 337.472534,125.921501 
	C347.831238,126.464371 358.074921,129.202301 368.761780,131.035248 
z"/>
<path fill="#FEFEFF" opacity="1.000000" stroke="none" 
	d="
M771.388916,352.541809 
	C755.901489,349.881317 740.870300,347.006592 725.733521,344.885284 
	C706.812866,342.233704 687.815857,340.108826 668.828857,337.960114 
	C663.274780,337.331543 658.866516,336.361023 654.915283,331.175110 
	C634.677429,304.612732 613.920349,278.441620 593.080811,252.344467 
	C586.453186,244.044754 579.013855,236.393265 571.724976,228.196579 
	C576.810181,223.015381 581.531372,217.697937 586.771729,212.954086 
	C608.857361,192.961136 631.891724,174.158249 657.220459,158.343613 
	C676.582031,146.254700 696.718201,135.786301 718.887512,129.759552 
	C736.023865,125.101021 753.304565,123.127235 770.334534,129.766113 
	C788.011230,136.657150 798.087341,150.906418 804.737305,167.843033 
	C814.547363,192.828049 815.759094,219.037201 815.137573,245.467407 
	C814.264404,282.601715 807.463806,318.833740 798.712952,354.783386 
	C798.128418,357.184662 797.229980,358.298279 794.657532,357.715393 
	C787.046875,355.990845 779.419312,354.341003 771.388916,352.541809 
z"/>
<path fill="#FEFEFF" opacity="1.000000" stroke="none" 
	d="
M395.526550,939.577515 
	C376.317596,948.830811 356.858551,955.667908 335.575104,956.020386 
	C308.787323,956.464050 290.878448,943.216064 279.913788,919.721436 
	C270.312805,899.148926 267.513367,877.074585 266.969177,854.642639 
	C266.333160,828.424561 268.341553,802.390015 273.272583,776.632202 
	C276.365967,760.473755 280.092773,744.436768 283.200745,728.280884 
	C284.000244,724.124817 285.808319,723.715027 289.363892,724.437439 
	C303.705017,727.351135 318.018311,730.499573 332.466736,732.765320 
	C355.957153,736.449158 379.545654,739.507141 403.092041,742.834473 
	C405.068146,743.113708 407.084961,743.865601 409.004120,743.660645 
	C419.634460,742.525208 425.681671,748.024719 431.513519,756.382690 
	C454.580017,789.440430 480.419556,820.333130 507.478088,850.191528 
	C510.253937,853.254578 510.238953,854.915222 507.237061,857.814331 
	C484.928864,879.358398 461.264404,899.287964 435.490173,916.503601 
	C422.828583,924.960815 409.110779,931.836670 395.526550,939.577515 
z"/>
<path fill="#FAFAFE" opacity="1.000000" stroke="none" 
	d="
M539.279175,260.448090 
	C541.349487,261.056091 543.748169,261.439941 544.961975,262.846344 
	C559.192322,279.335388 573.308350,295.924652 587.310669,312.608215 
	C592.379944,318.648163 597.064819,325.010803 602.711975,332.232574 
	C561.385193,332.232574 521.446655,332.232574 479.774811,332.232574 
	C498.427490,306.676453 518.609497,283.581085 539.279175,260.448090 
z"/>
<path fill="#FBFAFF" opacity="1.000000" stroke="none" 
	d="
M782.143188,412.123962 
	C774.229553,433.703094 766.453674,454.910461 758.597229,476.087921 
	C757.044495,480.273315 755.181274,484.343536 753.044922,489.464813 
	C732.613770,454.147827 712.574036,419.507416 692.198669,384.286743 
	C694.819336,384.286743 697.554138,383.910828 700.153198,384.345795 
	C722.268005,388.046692 744.360657,391.880524 766.453552,395.711456 
	C770.871948,396.477631 775.249573,397.480255 779.670105,398.232361 
	C785.081299,399.153015 785.846252,400.272247 784.250366,405.577728 
	C783.628357,407.645599 782.921204,409.687836 782.143188,412.123962 
z"/>
<path fill="#FBFAFE" opacity="1.000000" stroke="none" 
	d="
M506.420441,783.592346 
	C497.495880,772.393494 488.796173,761.472717 479.367950,749.637451 
	C521.243530,749.637451 561.237732,749.637451 601.959290,749.637451 
	C600.804138,751.452332 599.953796,753.173096 598.759338,754.607422 
	C580.664246,776.336975 562.499695,798.008789 544.423157,819.753723 
	C541.977356,822.695862 540.082520,822.626465 537.637512,819.766113 
	C527.366333,807.750000 516.985779,795.827393 506.420441,783.592346 
z"/>
<path fill="#FBFAFE" opacity="1.000000" stroke="none" 
	d="
M352.032349,692.908325 
	C335.613068,689.846497 319.634827,686.797180 303.626129,683.917114 
	C296.851105,682.698303 295.880493,681.786377 298.125336,675.649841 
	C308.099915,648.383118 318.253693,621.181946 328.364838,593.965210 
	C328.460022,593.708923 328.856262,593.564514 329.520111,593.053955 
	C349.599457,627.762939 369.644318,662.412231 390.478180,698.425476 
	C377.361755,696.549927 364.911407,694.769592 352.032349,692.908325 
z"/>
<path fill="#FBFAFE" opacity="1.000000" stroke="none" 
	d="
M750.113037,596.076538 
	C750.984009,594.814026 751.719543,593.892334 753.158997,592.088562 
	C758.492065,605.609375 763.627991,617.978333 768.256348,630.534424 
	C773.652039,645.172363 778.592529,659.977905 783.753601,674.702637 
	C786.169922,681.596619 785.462585,682.610840 778.403198,683.891907 
	C761.746765,686.914429 745.156311,690.310303 728.475708,693.187134 
	C716.581665,695.238464 704.584473,696.691772 692.104187,698.488159 
	C711.717651,663.896057 730.847656,630.156677 750.113037,596.076538 
z"/>
<path fill="#FBFAFF" opacity="1.000000" stroke="none" 
	d="
M301.793732,417.231049 
	C300.330872,412.581726 299.032318,408.290527 297.536804,404.069122 
	C296.447235,400.993591 297.351379,399.300751 300.541901,398.684174 
	C315.046417,395.881104 329.515076,392.879364 344.056335,390.283691 
	C355.821808,388.183502 367.664368,386.506195 379.490265,384.759827 
	C382.848267,384.263916 386.267548,384.183044 390.170166,383.870941 
	C369.756287,419.183624 349.792511,453.717712 329.231628,489.284729 
	C318.559967,465.314209 310.151215,441.492432 301.793732,417.231049 
z"/>
<path fill="#5D45EC" opacity="1.000000" stroke="none" 
	d="
M480.864014,471.825806 
	C497.705475,457.478027 517.016541,449.983185 538.638184,449.357147 
	C557.508606,448.810852 575.241333,453.671204 591.105225,464.180389 
	C612.848755,478.584595 626.721375,498.700409 631.185974,524.321289 
	C636.833313,556.729858 627.694946,584.966125 603.778015,607.872192 
	C565.817444,644.228271 503.140076,640.155762 470.119659,599.352417 
	C439.282410,561.246765 442.886047,505.481628 480.864014,471.825806 
z"/>
</svg>