<svg version="1.1" id="Layer_1" xmlns="http://www.w3.org/2000/svg" xmlns:xlink="http://www.w3.org/1999/xlink" x="0px" y="0px"
	 width="100%" viewBox="0 0 1080 1080" enable-background="new 0 0 1080 1080" xml:space="preserve">
<path fill="#FFFEFF" opacity="1.000000" stroke="none" 
	d="
M607.000000,1081.000000 
	C404.689972,1081.000000 202.879913,1081.000000 1.034936,1081.000000 
	C1.034936,721.064819 1.034936,361.129669 1.034936,1.097249 
	C360.893616,1.097249 720.787231,1.097249 1080.840454,1.097249 
	C1080.840454,360.999939 1080.840454,720.999939 1080.840454,1081.000000 
	C923.129211,1081.000000 765.314636,1081.000000 607.000000,1081.000000 
M119.117104,662.505310 
	C119.117104,656.750366 119.117104,650.995422 119.117104,644.193848 
	C126.207306,649.767822 132.000717,654.706360 138.177094,659.107483 
	C158.420685,673.532349 180.275970,684.991150 203.760452,693.127380 
	C220.221634,698.830444 236.701950,704.678772 253.545288,709.020996 
	C269.909241,713.239563 286.718536,715.778503 303.382782,718.773926 
	C331.458344,723.820618 359.840485,726.232910 388.312256,726.457581 
	C411.437988,726.640137 434.649109,726.278076 457.687317,724.452820 
	C482.023346,722.524658 506.356964,719.477173 530.401733,715.264038 
	C555.251587,710.909790 579.589600,704.063904 603.336182,695.236511 
	C630.384888,685.181641 656.161621,672.859558 679.119019,655.147827 
	C683.383423,651.857910 687.529846,648.415100 692.420105,644.489380 
	C692.611755,647.466919 692.862366,649.573486 692.865417,651.680420 
	C692.902222,677.177856 692.948975,702.675476 692.880737,728.172729 
	C692.862915,734.843079 695.651001,739.860535 701.429688,742.838806 
	C707.447449,745.940125 713.612183,745.655029 719.472534,741.981995 
	C725.597290,738.143250 726.763550,732.245178 726.760864,725.573853 
	C726.708801,598.919617 726.728271,472.265350 726.720825,345.611115 
	C726.718628,308.281616 726.802063,270.951202 726.531006,233.623505 
	C726.488098,227.719528 725.352905,221.660172 723.717896,215.960876 
	C718.194702,196.707596 706.788269,181.099396 692.313354,167.606369 
	C672.629272,149.257431 649.655823,136.068893 625.179382,125.318527 
	C586.274963,108.231224 545.416870,98.124443 503.515045,92.146843 
	C486.571838,89.729782 469.445709,88.552658 452.384674,87.012505 
	C415.439575,83.677353 378.491699,84.685280 341.647247,88.185905 
	C322.962158,89.961189 304.331451,92.780174 285.851898,96.104355 
	C269.701599,99.009537 253.510971,102.355423 237.858032,107.189835 
	C218.863327,113.056343 200.036087,119.821747 181.817535,127.761208 
	C154.349838,139.731339 129.185593,155.531418 109.283936,178.511429 
	C94.830177,195.200851 85.321487,214.082565 85.315804,236.704391 
	C85.273300,405.854431 85.290703,575.004517 85.296928,744.154541 
	C85.297600,762.481567 91.752472,778.682068 102.288307,793.287292 
	C119.539635,817.201904 143.089584,833.483032 168.863358,846.842285 
	C208.321518,867.294617 250.660507,879.064087 294.180756,886.362366 
	C318.252838,890.399292 342.692047,892.632690 367.057739,894.437195 
	C398.821533,896.789368 430.651093,895.894531 462.404999,893.283081 
	C467.701691,892.847473 473.034088,892.372375 478.232605,891.329956 
	C485.587952,889.854980 490.331238,883.483398 490.484680,875.726868 
	C490.643738,867.686462 486.147614,860.617188 478.895477,859.226379 
	C474.295593,858.344238 469.372314,858.836792 464.618347,859.120117 
	C433.188080,860.993347 401.787354,862.429749 370.269440,860.481506 
	C337.015778,858.425964 304.076141,854.600159 271.536774,847.285156 
	C244.398056,841.184143 217.982086,832.971191 192.771652,821.196777 
	C172.488968,811.723877 153.454819,800.233643 137.953613,783.741821 
	C125.515869,770.509094 118.535423,755.216675 118.976990,736.492859 
	C119.550468,712.175415 119.117180,687.834229 119.117104,662.505310 
M803.652954,994.986145 
	C807.963318,995.213196 812.712646,996.726074 816.503723,995.431946 
	C829.098083,991.133057 832.271118,975.791382 822.214172,966.998352 
	C819.184204,964.349365 819.603088,961.913269 820.870117,958.237854 
	C823.762817,949.846375 827.382935,941.128113 827.559021,932.478455 
	C828.291504,896.500244 828.121338,860.494751 827.634766,824.507935 
	C827.533997,817.053894 825.753784,809.187317 822.892212,802.279480 
	C808.874329,768.440125 771.414673,751.816101 736.649048,764.482300 
	C712.189636,773.393616 693.233521,798.648560 693.025940,824.654663 
	C692.738708,860.645447 692.842773,896.641052 693.080383,932.632629 
	C693.117126,938.202576 694.052124,943.991699 695.773071,949.289185 
	C707.664429,985.892456 747.505615,1006.820129 783.592590,992.023132 
	C791.618225,988.732300 797.231628,988.291687 803.652954,994.986145 
M525.784973,943.917847 
	C526.559326,946.622070 527.192383,949.376404 528.129944,952.022827 
	C537.382874,978.139954 560.076965,993.651062 584.035217,996.415649 
	C602.462280,998.541992 619.140686,993.319336 633.955139,981.858582 
	C656.858521,964.139954 666.057373,928.957214 654.007690,903.011414 
	C641.634277,876.368530 620.709106,862.592773 591.260376,861.271362 
	C585.818420,861.027161 579.994934,859.404236 575.180054,856.849121 
	C558.225159,847.851562 553.106934,826.411133 563.399414,809.888855 
	C573.403198,793.830017 594.981812,789.447876 610.590454,800.402161 
	C620.593384,807.422363 625.090088,817.249939 625.381287,829.373230 
	C625.599426,838.456116 633.148560,844.858704 642.828125,844.729126 
	C651.828552,844.608643 659.147827,838.010376 658.917053,829.202698 
	C658.731262,822.112793 658.351196,814.737427 656.284424,808.035461 
	C644.867676,771.013489 605.299194,751.351135 569.054504,764.218567 
	C535.102661,776.272034 516.418579,812.751465 526.584290,847.139099 
	C534.866089,875.154053 561.129456,895.291870 590.585815,895.416138 
	C606.268005,895.482300 619.948364,906.923584 623.993469,920.353333 
	C629.296814,937.960205 616.589294,960.895813 594.314758,962.494690 
	C574.257507,963.934387 558.654053,949.162415 557.899292,928.593323 
	C557.584351,920.009827 551.936401,913.451538 543.905151,912.343689 
	C535.320007,911.159424 526.578552,915.474548 525.062988,923.403687 
	C523.857056,929.712708 525.278992,936.524170 525.784973,943.917847 
M992.061096,991.548706 
	C997.094543,985.435059 998.196350,978.803589 994.584900,971.615662 
	C991.271057,965.020081 985.646057,962.828064 978.550110,962.857544 
	C952.898010,962.964172 927.244141,962.776794 901.593445,962.996643 
	C896.888184,963.036987 895.406677,961.897156 895.420959,956.989807 
	C895.590454,898.855469 895.530945,840.720520 895.526917,782.585693 
	C895.526794,780.253967 895.628235,777.909912 895.433044,775.592590 
	C894.510803,764.638977 882.971191,757.446960 872.752808,761.396240 
	C864.662598,764.522827 861.485107,769.651184 861.481262,779.885437 
	C861.462219,830.857483 861.469971,881.829590 861.470642,932.801636 
	C861.470825,948.126526 861.381958,963.452332 861.515442,978.776062 
	C861.609680,989.593750 868.701599,996.670349 879.352112,996.686096 
	C912.667114,996.735352 945.983948,996.861694 979.294983,996.496826 
	C983.394958,996.451965 987.464294,993.613586 992.061096,991.548706 
M210.017548,772.566528 
	C210.904892,771.810486 211.844910,771.107605 212.671402,770.290039 
	C220.952164,762.098572 222.942596,749.782227 217.592361,739.992371 
	C212.120941,729.980713 200.171051,724.223511 189.768631,726.950012 
	C179.210724,729.717407 172.140091,736.405884 170.075089,747.249695 
	C168.089935,757.674133 171.775436,766.422852 180.416290,772.546326 
	C189.817551,779.208801 199.650177,779.039246 210.017548,772.566528 
z"/>
<path fill="#6047EC" opacity="1.000000" stroke="none" 
	d="
M119.117172,663.004272 
	C119.117180,687.834229 119.550468,712.175415 118.976990,736.492859 
	C118.535423,755.216675 125.515869,770.509094 137.953613,783.741821 
	C153.454819,800.233643 172.488968,811.723877 192.771652,821.196777 
	C217.982086,832.971191 244.398056,841.184143 271.536774,847.285156 
	C304.076141,854.600159 337.015778,858.425964 370.269440,860.481506 
	C401.787354,862.429749 433.188080,860.993347 464.618347,859.120117 
	C469.372314,858.836792 474.295593,858.344238 478.895477,859.226379 
	C486.147614,860.617188 490.643738,867.686462 490.484680,875.726868 
	C490.331238,883.483398 485.587952,889.854980 478.232605,891.329956 
	C473.034088,892.372375 467.701691,892.847473 462.404999,893.283081 
	C430.651093,895.894531 398.821533,896.789368 367.057739,894.437195 
	C342.692047,892.632690 318.252838,890.399292 294.180756,886.362366 
	C250.660507,879.064087 208.321518,867.294617 168.863358,846.842285 
	C143.089584,833.483032 119.539635,817.201904 102.288307,793.287292 
	C91.752472,778.682068 85.297600,762.481567 85.296928,744.154541 
	C85.290703,575.004517 85.273300,405.854431 85.315804,236.704391 
	C85.321487,214.082565 94.830177,195.200851 109.283936,178.511429 
	C129.185593,155.531418 154.349838,139.731339 181.817535,127.761208 
	C200.036087,119.821747 218.863327,113.056343 237.858032,107.189835 
	C253.510971,102.355423 269.701599,99.009537 285.851898,96.104355 
	C304.331451,92.780174 322.962158,89.961189 341.647247,88.185905 
	C378.491699,84.685280 415.439575,83.677353 452.384674,87.012505 
	C469.445709,88.552658 486.571838,89.729782 503.515045,92.146843 
	C545.416870,98.124443 586.274963,108.231224 625.179382,125.318527 
	C649.655823,136.068893 672.629272,149.257431 692.313354,167.606369 
	C706.788269,181.099396 718.194702,196.707596 723.717896,215.960876 
	C725.352905,221.660172 726.488098,227.719528 726.531006,233.623505 
	C726.802063,270.951202 726.718628,308.281616 726.720825,345.611115 
	C726.728271,472.265350 726.708801,598.919617 726.760864,725.573853 
	C726.763550,732.245178 725.597290,738.143250 719.472534,741.981995 
	C713.612183,745.655029 707.447449,745.940125 701.429688,742.838806 
	C695.651001,739.860535 692.862915,734.843079 692.880737,728.172729 
	C692.948975,702.675476 692.902222,677.177856 692.865417,651.680420 
	C692.862366,649.573486 692.611755,647.466919 692.420105,644.489380 
	C687.529846,648.415100 683.383423,651.857910 679.119019,655.147827 
	C656.161621,672.859558 630.384888,685.181641 603.336182,695.236511 
	C579.589600,704.063904 555.251587,710.909790 530.401733,715.264038 
	C506.356964,719.477173 482.023346,722.524658 457.687317,724.452820 
	C434.649109,726.278076 411.437988,726.640137 388.312256,726.457581 
	C359.840485,726.232910 331.458344,723.820618 303.382782,718.773926 
	C286.718536,715.778503 269.909241,713.239563 253.545288,709.020996 
	C236.701950,704.678772 220.221634,698.830444 203.760452,693.127380 
	C180.275970,684.991150 158.420685,673.532349 138.177094,659.107483 
	C132.000717,654.706360 126.207306,649.767822 119.117104,644.193848 
	C119.117104,650.995422 119.117104,656.750366 119.117172,663.004272 
M128.236557,265.116241 
	C141.421875,285.021515 160.420029,298.011566 180.973434,308.997192 
	C218.310532,328.953552 258.609222,340.102081 300.089478,346.627472 
	C325.997192,350.703064 352.245605,353.170349 378.438171,354.741760 
	C413.894958,356.869049 449.390259,354.961090 484.638885,350.749634 
	C512.190735,347.457764 539.487915,342.457581 566.206116,334.537537 
	C591.116150,327.153534 615.357178,318.300873 637.876526,305.190460 
	C656.586609,294.297760 673.920044,281.764648 685.141296,262.613251 
	C691.352966,252.011932 694.383789,240.768707 691.635254,228.224823 
	C687.811279,210.773163 676.788086,198.267014 663.853943,187.316040 
	C639.888245,167.025024 611.626892,154.586395 582.163696,144.774139 
	C557.865112,136.681839 533.033203,130.408325 507.596741,127.272202 
	C483.014069,124.241341 458.355225,121.455429 433.645477,119.919716 
	C400.858246,117.881989 368.004730,118.993073 335.412354,123.158623 
	C312.373138,126.103226 289.362427,129.777023 266.639435,134.554443 
	C241.271088,139.888031 216.689499,148.187271 193.176895,159.293304 
	C172.148376,169.226013 152.481171,181.166458 136.532303,198.496674 
	C117.147903,219.559937 114.186813,241.743454 128.236557,265.116241 
M338.278046,689.204163 
	C349.880554,690.168457 361.467529,691.424438 373.088470,692.041809 
	C406.735046,693.829346 440.306854,692.712402 473.831116,689.249512 
	C499.325653,686.616150 524.521606,682.577148 549.446655,676.478699 
	C574.857971,670.261230 599.516907,662.104858 623.036194,650.651855 
	C642.878296,640.989624 661.415344,629.447327 676.186890,612.641418 
	C687.387146,599.898621 693.353088,585.490173 693.032837,568.136475 
	C692.501038,539.322205 692.896606,510.490997 692.865784,481.666931 
	C692.863831,479.854340 692.553345,478.042084 692.326965,475.584137 
	C687.536011,479.515930 683.661865,482.892426 679.588013,486.007874 
	C643.121399,513.895691 601.080017,529.571411 557.166138,540.484497 
	C536.580261,545.600281 515.493835,549.095093 494.439880,551.826294 
	C472.035767,554.732483 449.432709,556.648621 426.858948,557.540833 
	C406.759705,558.335144 386.521393,558.002563 366.454224,556.598511 
	C342.424622,554.917053 318.378143,552.427856 294.581940,548.726562 
	C265.188141,544.154480 236.430603,536.583496 208.426987,526.276123 
	C181.169983,516.243591 155.373825,503.570221 132.222595,485.868256 
	C128.110855,482.724304 124.195068,479.324066 119.112228,475.160248 
	C119.112228,478.484741 119.112228,480.424164 119.112221,482.363617 
	C119.112129,510.854462 119.665688,539.359680 118.927765,567.831421 
	C118.387405,588.680664 127.143692,604.838196 141.371002,618.616699 
	C163.284668,639.839172 190.044540,653.256836 218.459534,662.986511 
	C239.128799,670.063904 260.402649,675.668213 281.747101,680.392334 
	C300.036224,684.440247 318.808350,686.306152 338.278046,689.204163 
M560.433960,505.093140 
	C580.236328,497.935028 600.396240,491.617157 619.742126,483.386108 
	C639.691772,474.898102 657.969421,463.185333 673.150330,447.367889 
	C686.195007,433.776276 693.575806,418.048615 693.074036,398.481934 
	C692.347961,370.172455 692.892639,341.830475 692.877014,313.502380 
	C692.875977,311.603241 692.721130,309.704193 692.636353,307.771484 
	C691.600769,307.872681 691.178040,307.783142 690.968811,307.954468 
	C688.653992,309.849518 686.396851,311.815125 684.078003,313.705078 
	C653.002258,339.032623 616.899048,354.337646 578.995056,365.784454 
	C551.755737,374.010559 523.997803,380.210022 495.643890,383.115967 
	C473.477844,385.387726 451.271454,388.082031 429.034668,388.630615 
	C403.935760,389.249817 378.771179,387.973297 353.656525,386.980164 
	C326.342194,385.900024 299.391907,381.476105 272.698608,375.892242 
	C245.034943,370.105347 217.946503,362.150452 191.870255,351.045074 
	C167.131531,340.509369 143.728363,327.772827 123.476471,309.795868 
	C122.472961,308.905090 121.237831,308.275238 119.531860,307.138214 
	C119.333961,309.171112 119.131081,310.285858 119.130638,311.400665 
	C119.118073,343.061462 118.802155,374.728180 119.380104,406.378510 
	C119.508965,413.435303 121.735542,420.941162 124.818344,427.366028 
	C134.397888,447.330780 151.349762,460.305786 169.749207,471.417328 
	C205.942551,493.274750 245.838608,505.014374 286.916473,513.193298 
	C314.202087,518.626038 341.833618,521.504089 369.601929,523.081116 
	C404.587372,525.068054 439.464233,523.959656 474.337067,520.427063 
	C503.182556,517.505127 531.616699,512.664001 560.433960,505.093140 
z"/>
<path fill="#6047EC" opacity="1.000000" stroke="none" 
	d="
M803.306213,994.834839 
	C797.231628,988.291687 791.618225,988.732300 783.592590,992.023132 
	C747.505615,1006.820129 707.664429,985.892456 695.773071,949.289185 
	C694.052124,943.991699 693.117126,938.202576 693.080383,932.632629 
	C692.842773,896.641052 692.738708,860.645447 693.025940,824.654663 
	C693.233521,798.648560 712.189636,773.393616 736.649048,764.482300 
	C771.414673,751.816101 808.874329,768.440125 822.892212,802.279480 
	C825.753784,809.187317 827.533997,817.053894 827.634766,824.507935 
	C828.121338,860.494751 828.291504,896.500244 827.559021,932.478455 
	C827.382935,941.128113 823.762817,949.846375 820.870117,958.237854 
	C819.603088,961.913269 819.184204,964.349365 822.214172,966.998352 
	C832.271118,975.791382 829.098083,991.133057 816.503723,995.431946 
	C812.712646,996.726074 807.963318,995.213196 803.306213,994.834839 
M794.095154,851.500000 
	C794.095154,850.000061 794.171570,848.495605 794.082764,847.000916 
	C793.503845,837.256409 794.138062,827.230286 792.003906,817.835022 
	C788.477905,802.312622 771.569946,792.028809 756.003052,794.283936 
	C739.819458,796.628479 727.039490,810.740784 726.765320,826.711243 
	C726.636658,834.208740 726.713684,841.710022 726.715942,849.209595 
	C726.724182,876.374878 726.568481,903.541626 726.813477,930.704834 
	C726.978882,949.045288 744.747803,964.614624 762.923279,962.763123 
	C764.265259,962.626343 765.527771,961.709290 766.827271,961.154968 
	C766.153259,959.916260 765.711975,958.452209 764.766663,957.476318 
	C759.553894,952.094604 753.906616,947.098450 749.050964,941.420471 
	C746.478210,938.412109 744.211365,934.458801 743.563843,930.634583 
	C742.347290,923.448792 746.523499,917.346924 753.548035,913.853821 
	C759.848999,910.720398 766.345703,911.570007 771.930298,916.784119 
	C777.525208,922.007874 782.780273,927.594421 788.245239,932.959961 
	C789.456360,934.149109 790.922668,935.078430 792.271484,936.127319 
	C792.879395,935.951965 793.487366,935.776550 794.095276,935.601196 
	C794.095276,907.900757 794.095276,880.200378 794.095154,851.500000 
z"/>
<path fill="#6048EC" opacity="1.000000" stroke="none" 
	d="
M525.659668,943.515198 
	C525.278992,936.524170 523.857056,929.712708 525.062988,923.403687 
	C526.578552,915.474548 535.320007,911.159424 543.905151,912.343689 
	C551.936401,913.451538 557.584351,920.009827 557.899292,928.593323 
	C558.654053,949.162415 574.257507,963.934387 594.314758,962.494690 
	C616.589294,960.895813 629.296814,937.960205 623.993469,920.353333 
	C619.948364,906.923584 606.268005,895.482300 590.585815,895.416138 
	C561.129456,895.291870 534.866089,875.154053 526.584290,847.139099 
	C516.418579,812.751465 535.102661,776.272034 569.054504,764.218567 
	C605.299194,751.351135 644.867676,771.013489 656.284424,808.035461 
	C658.351196,814.737427 658.731262,822.112793 658.917053,829.202698 
	C659.147827,838.010376 651.828552,844.608643 642.828125,844.729126 
	C633.148560,844.858704 625.599426,838.456116 625.381287,829.373230 
	C625.090088,817.249939 620.593384,807.422363 610.590454,800.402161 
	C594.981812,789.447876 573.403198,793.830017 563.399414,809.888855 
	C553.106934,826.411133 558.225159,847.851562 575.180054,856.849121 
	C579.994934,859.404236 585.818420,861.027161 591.260376,861.271362 
	C620.709106,862.592773 641.634277,876.368530 654.007690,903.011414 
	C666.057373,928.957214 656.858521,964.139954 633.955139,981.858582 
	C619.140686,993.319336 602.462280,998.541992 584.035217,996.415649 
	C560.076965,993.651062 537.382874,978.139954 528.129944,952.022827 
	C527.192383,949.376404 526.559326,946.622070 525.659668,943.515198 
z"/>
<path fill="#5E46EC" opacity="1.000000" stroke="none" 
	d="
M991.804443,991.809204 
	C987.464294,993.613586 983.394958,996.451965 979.294983,996.496826 
	C945.983948,996.861694 912.667114,996.735352 879.352112,996.686096 
	C868.701599,996.670349 861.609680,989.593750 861.515442,978.776062 
	C861.381958,963.452332 861.470825,948.126526 861.470642,932.801636 
	C861.469971,881.829590 861.462219,830.857483 861.481262,779.885437 
	C861.485107,769.651184 864.662598,764.522827 872.752808,761.396240 
	C882.971191,757.446960 894.510803,764.638977 895.433044,775.592590 
	C895.628235,777.909912 895.526794,780.253967 895.526917,782.585693 
	C895.530945,840.720520 895.590454,898.855469 895.420959,956.989807 
	C895.406677,961.897156 896.888184,963.036987 901.593445,962.996643 
	C927.244141,962.776794 952.898010,962.964172 978.550110,962.857544 
	C985.646057,962.828064 991.271057,965.020081 994.584900,971.615662 
	C998.196350,978.803589 997.094543,985.435059 991.804443,991.809204 
z"/>
<path fill="#6149ED" opacity="1.000000" stroke="none" 
	d="
M209.706863,772.754150 
	C199.650177,779.039246 189.817551,779.208801 180.416290,772.546326 
	C171.775436,766.422852 168.089935,757.674133 170.075089,747.249695 
	C172.140091,736.405884 179.210724,729.717407 189.768631,726.950012 
	C200.171051,724.223511 212.120941,729.980713 217.592361,739.992371 
	C222.942596,749.782227 220.952164,762.098572 212.671402,770.290039 
	C211.844910,771.107605 210.904892,771.810486 209.706863,772.754150 
z"/>
<path fill="#FEFEFF" opacity="1.000000" stroke="none" 
	d="
M128.049561,264.801147 
	C114.186813,241.743454 117.147903,219.559937 136.532303,198.496674 
	C152.481171,181.166458 172.148376,169.226013 193.176895,159.293304 
	C216.689499,148.187271 241.271088,139.888031 266.639435,134.554443 
	C289.362427,129.777023 312.373138,126.103226 335.412354,123.158623 
	C368.004730,118.993073 400.858246,117.881989 433.645477,119.919716 
	C458.355225,121.455429 483.014069,124.241341 507.596741,127.272202 
	C533.033203,130.408325 557.865112,136.681839 582.163696,144.774139 
	C611.626892,154.586395 639.888245,167.025024 663.853943,187.316040 
	C676.788086,198.267014 687.811279,210.773163 691.635254,228.224823 
	C694.383789,240.768707 691.352966,252.011932 685.141296,262.613251 
	C673.920044,281.764648 656.586609,294.297760 637.876526,305.190460 
	C615.357178,318.300873 591.116150,327.153534 566.206116,334.537537 
	C539.487915,342.457581 512.190735,347.457764 484.638885,350.749634 
	C449.390259,354.961090 413.894958,356.869049 378.438171,354.741760 
	C352.245605,353.170349 325.997192,350.703064 300.089478,346.627472 
	C258.609222,340.102081 218.310532,328.953552 180.973434,308.997192 
	C160.420029,298.011566 141.421875,285.021515 128.049561,264.801147 
z"/>
<path fill="#FEFDFF" opacity="1.000000" stroke="none" 
	d="
M337.822449,689.170654 
	C318.808350,686.306152 300.036224,684.440247 281.747101,680.392334 
	C260.402649,675.668213 239.128799,670.063904 218.459534,662.986511 
	C190.044540,653.256836 163.284668,639.839172 141.371002,618.616699 
	C127.143692,604.838196 118.387405,588.680664 118.927765,567.831421 
	C119.665688,539.359680 119.112129,510.854462 119.112221,482.363617 
	C119.112228,480.424164 119.112228,478.484741 119.112228,475.160248 
	C124.195068,479.324066 128.110855,482.724304 132.222595,485.868256 
	C155.373825,503.570221 181.169983,516.243591 208.426987,526.276123 
	C236.430603,536.583496 265.188141,544.154480 294.581940,548.726562 
	C318.378143,552.427856 342.424622,554.917053 366.454224,556.598511 
	C386.521393,558.002563 406.759705,558.335144 426.858948,557.540833 
	C449.432709,556.648621 472.035767,554.732483 494.439880,551.826294 
	C515.493835,549.095093 536.580261,545.600281 557.166138,540.484497 
	C601.080017,529.571411 643.121399,513.895691 679.588013,486.007874 
	C683.661865,482.892426 687.536011,479.515930 692.326965,475.584137 
	C692.553345,478.042084 692.863831,479.854340 692.865784,481.666931 
	C692.896606,510.490997 692.501038,539.322205 693.032837,568.136475 
	C693.353088,585.490173 687.387146,599.898621 676.186890,612.641418 
	C661.415344,629.447327 642.878296,640.989624 623.036194,650.651855 
	C599.516907,662.104858 574.857971,670.261230 549.446655,676.478699 
	C524.521606,682.577148 499.325653,686.616150 473.831116,689.249512 
	C440.306854,692.712402 406.735046,693.829346 373.088470,692.041809 
	C361.467529,691.424438 349.880554,690.168457 337.822449,689.170654 
M217.868195,594.209900 
	C220.977951,587.366028 221.333740,580.521667 218.470963,573.424622 
	C213.782822,561.802307 198.964020,554.755371 187.597748,558.968689 
	C173.582336,564.164062 166.517593,577.736816 170.916245,590.721252 
	C174.358887,600.883667 181.610107,606.928040 191.859070,608.333740 
	C203.159134,609.883423 211.844910,604.868347 217.868195,594.209900 
z"/>
<path fill="#FEFDFF" opacity="1.000000" stroke="none" 
	d="
M560.024963,505.143463 
	C531.616699,512.664001 503.182556,517.505127 474.337067,520.427063 
	C439.464233,523.959656 404.587372,525.068054 369.601929,523.081116 
	C341.833618,521.504089 314.202087,518.626038 286.916473,513.193298 
	C245.838608,505.014374 205.942551,493.274750 169.749207,471.417328 
	C151.349762,460.305786 134.397888,447.330780 124.818344,427.366028 
	C121.735542,420.941162 119.508965,413.435303 119.380104,406.378510 
	C118.802155,374.728180 119.118073,343.061462 119.130638,311.400665 
	C119.131081,310.285858 119.333961,309.171112 119.531860,307.138214 
	C121.237831,308.275238 122.472961,308.905090 123.476471,309.795868 
	C143.728363,327.772827 167.131531,340.509369 191.870255,351.045074 
	C217.946503,362.150452 245.034943,370.105347 272.698608,375.892242 
	C299.391907,381.476105 326.342194,385.900024 353.656525,386.980164 
	C378.771179,387.973297 403.935760,389.249817 429.034668,388.630615 
	C451.271454,388.082031 473.477844,385.387726 495.643890,383.115967 
	C523.997803,380.210022 551.755737,374.010559 578.995056,365.784454 
	C616.899048,354.337646 653.002258,339.032623 684.078003,313.705078 
	C686.396851,311.815125 688.653992,309.849518 690.968811,307.954468 
	C691.178040,307.783142 691.600769,307.872681 692.636353,307.771484 
	C692.721130,309.704193 692.875977,311.603241 692.877014,313.502380 
	C692.892639,341.830475 692.347961,370.172455 693.074036,398.481934 
	C693.575806,418.048615 686.195007,433.776276 673.150330,447.367889 
	C657.969421,463.185333 639.691772,474.898102 619.742126,483.386108 
	C600.396240,491.617157 580.236328,497.935028 560.024963,505.143463 
M177.158463,432.359039 
	C185.457474,439.629028 194.614273,442.015717 205.194748,437.700104 
	C215.015854,433.694214 221.833374,421.862122 220.272156,411.014709 
	C218.628632,399.595428 208.568954,389.895966 197.678452,389.174408 
	C186.434464,388.429504 177.940521,393.061035 172.544296,402.765076 
	C167.333344,412.135956 169.101578,422.870850 177.158463,432.359039 
z"/>
<path fill="#FCFCFF" opacity="1.000000" stroke="none" 
	d="
M794.095215,852.000000 
	C794.095276,880.200378 794.095276,907.900757 794.095276,935.601196 
	C793.487366,935.776550 792.879395,935.951965 792.271484,936.127319 
	C790.922668,935.078430 789.456360,934.149109 788.245239,932.959961 
	C782.780273,927.594421 777.525208,922.007874 771.930298,916.784119 
	C766.345703,911.570007 759.848999,910.720398 753.548035,913.853821 
	C746.523499,917.346924 742.347290,923.448792 743.563843,930.634583 
	C744.211365,934.458801 746.478210,938.412109 749.050964,941.420471 
	C753.906616,947.098450 759.553894,952.094604 764.766663,957.476318 
	C765.711975,958.452209 766.153259,959.916260 766.827271,961.154968 
	C765.527771,961.709290 764.265259,962.626343 762.923279,962.763123 
	C744.747803,964.614624 726.978882,949.045288 726.813477,930.704834 
	C726.568481,903.541626 726.724182,876.374878 726.715942,849.209595 
	C726.713684,841.710022 726.636658,834.208740 726.765320,826.711243 
	C727.039490,810.740784 739.819458,796.628479 756.003052,794.283936 
	C771.569946,792.028809 788.477905,802.312622 792.003906,817.835022 
	C794.138062,827.230286 793.503845,837.256409 794.082764,847.000916 
	C794.171570,848.495605 794.095154,850.000061 794.095215,852.000000 
z"/>
<path fill="#6149ED" opacity="1.000000" stroke="none" 
	d="
M217.686798,594.540527 
	C211.844910,604.868347 203.159134,609.883423 191.859070,608.333740 
	C181.610107,606.928040 174.358887,600.883667 170.916245,590.721252 
	C166.517593,577.736816 173.582336,564.164062 187.597748,558.968689 
	C198.964020,554.755371 213.782822,561.802307 218.470963,573.424622 
	C221.333740,580.521667 220.977951,587.366028 217.686798,594.540527 
z"/>
<path fill="#6149ED" opacity="1.000000" stroke="none" 
	d="
M176.906372,432.102631 
	C169.101578,422.870850 167.333344,412.135956 172.544296,402.765076 
	C177.940521,393.061035 186.434464,388.429504 197.678452,389.174408 
	C208.568954,389.895966 218.628632,399.595428 220.272156,411.014709 
	C221.833374,421.862122 215.015854,433.694214 205.194748,437.700104 
	C194.614273,442.015717 185.457474,439.629028 176.906372,432.102631 
z"/>
</svg>