<svg version="1.1" id="Layer_1" xmlns="http://www.w3.org/2000/svg" xmlns:xlink="http://www.w3.org/1999/xlink" x="0px" y="0px"
	 width="100%" viewBox="0 0 1080 1080" enable-background="new 0 0 1080 1080" xml:space="preserve">
<path fill="#FFFFFF" opacity="1.000000" stroke="none" 
	d="
M526.000000,1081.000000 
	C350.686829,1081.000000 175.873688,1081.000000 1.030262,1081.000000 
	C1.030262,721.061707 1.030262,361.123444 1.030262,1.092575 
	C360.896698,1.092575 720.793457,1.092575 1080.845093,1.092575 
	C1080.845093,360.999939 1080.845093,720.999939 1080.845093,1081.000000 
	C896.122986,1081.000000 711.311462,1081.000000 526.000000,1081.000000 
M414.749969,613.912720 
	C416.031525,614.520813 417.555267,614.862427 418.559723,615.775452 
	C458.988708,652.522461 499.378265,689.312866 539.756653,726.115540 
	C578.289246,761.235779 616.757019,796.427307 655.403992,831.421082 
	C658.985840,834.664307 663.655945,836.705566 668.323730,839.842651 
	C679.436951,843.933655 690.076782,842.693359 700.644226,837.581116 
	C739.846497,818.615723 779.001343,799.543823 818.435303,781.069946 
	C836.302185,772.699768 844.581238,759.789612 844.536255,739.874146 
	C844.237000,607.086426 844.382385,474.297699 844.371643,341.509308 
	C844.371399,338.679077 844.379761,335.835754 844.130432,333.020996 
	C843.233276,322.894104 839.001160,314.231689 830.798767,308.329498 
	C824.793091,304.007965 817.974121,300.720032 811.272522,297.478149 
	C773.861267,279.380585 736.392395,261.401794 698.903931,243.464630 
	C688.542786,238.507141 677.954529,237.476074 666.610107,242.557037 
	C663.406006,244.608719 659.831543,246.252350 657.053650,248.773621 
	C618.589111,283.684601 580.240601,318.723541 541.849670,353.715668 
	C512.564392,380.408264 483.231598,407.048645 453.975800,433.773407 
	C441.576385,445.100067 429.320099,456.583344 416.266296,468.028809 
	C414.840759,467.260681 413.284637,466.665009 412.008728,465.699219 
	C378.833374,440.589539 345.691010,415.436279 312.533783,390.302673 
	C301.385498,381.852142 288.779602,382.426178 278.454315,391.809235 
	C268.227631,401.102692 257.960754,410.352386 247.780273,419.696167 
	C234.451294,431.929657 234.308533,447.740265 247.662079,459.964935 
	C275.902832,485.818298 304.293793,511.507507 332.567566,537.324951 
	C333.930664,538.569641 334.760925,540.398010 335.215790,542.169128 
	C306.031311,568.704956 276.785553,595.173950 247.689606,621.806458 
	C234.298325,634.064026 234.407745,649.809387 247.723709,662.073486 
	C257.394867,670.980713 267.185516,679.758423 276.940430,688.574524 
	C289.534943,699.956909 300.826447,700.320251 314.468475,689.963318 
	C338.322235,671.853760 362.249329,653.840698 386.086884,635.709839 
	C395.470825,628.572449 404.697021,621.227722 414.749969,613.912720 
z"/>
<path fill="#543AEE" opacity="1.000000" stroke="none" 
	d="
M667.267456,242.637680 
	C677.954529,237.476074 688.542786,238.507141 698.903931,243.464630 
	C736.392395,261.401794 773.861267,279.380585 811.272522,297.478149 
	C817.974121,300.720032 824.793091,304.007965 830.798767,308.329498 
	C839.001160,314.231689 843.233276,322.894104 844.130432,333.020996 
	C844.379761,335.835754 844.371399,338.679077 844.371643,341.509308 
	C844.382385,474.297699 844.237000,607.086426 844.536255,739.874146 
	C844.581238,759.789612 836.302185,772.699768 818.435303,781.069946 
	C779.001343,799.543823 739.846497,818.615723 700.644226,837.581116 
	C690.076782,842.693359 679.436951,843.933655 668.322388,839.243530 
	C669.438599,838.423645 670.547913,838.139648 671.675049,837.991699 
	C685.185059,836.218201 693.000671,827.387634 692.998840,813.853455 
	C692.992615,768.548645 692.982239,723.243896 692.978271,677.474670 
	C692.990234,586.001587 692.997314,494.992950 693.015198,403.516693 
	C693.016479,357.422852 693.015564,311.796570 692.991638,266.170319 
	C692.985474,254.496185 684.044800,244.904236 672.502686,243.951950 
	C670.733521,243.805969 669.011353,243.090027 667.267456,242.637680 
z"/>
<path fill="#614BE9" opacity="1.000000" stroke="none" 
	d="
M692.973450,677.939087 
	C692.982239,723.243896 692.992615,768.548645 692.998840,813.853455 
	C693.000671,827.387634 685.185059,836.218201 671.675049,837.991699 
	C670.547913,838.139648 669.438599,838.423645 668.070923,838.974731 
	C663.655945,836.705566 658.985840,834.664307 655.403992,831.421082 
	C616.757019,796.427307 578.289246,761.235779 539.756653,726.115540 
	C499.378265,689.312866 458.988708,652.522461 418.559723,615.775452 
	C417.555267,614.862427 416.031525,614.520813 414.342834,613.601562 
	C410.815918,609.895081 407.922516,606.253235 404.538574,603.145630 
	C386.277222,586.375366 367.936584,569.690674 349.522217,553.088562 
	C345.160522,549.156128 340.410614,545.654419 335.839294,541.954529 
	C334.760925,540.398010 333.930664,538.569641 332.567566,537.324951 
	C304.293793,511.507507 275.902832,485.818298 247.662079,459.964935 
	C234.308533,447.740265 234.451294,431.929657 247.780273,419.696167 
	C257.960754,410.352386 268.227631,401.102692 278.454315,391.809235 
	C288.779602,382.426178 301.385498,381.852142 312.533783,390.302673 
	C345.691010,415.436279 378.833374,440.589539 412.008728,465.699219 
	C413.284637,466.665009 414.840759,467.260681 416.665833,468.361481 
	C417.391998,469.256927 417.586731,469.992493 418.064575,470.357147 
	C429.109283,478.785553 440.172272,487.190063 451.257324,495.565430 
	C468.675964,508.726135 486.088287,521.895630 503.570068,534.972046 
	C506.132294,536.888611 509.062408,538.313293 511.856995,540.324402 
	C512.647156,541.505676 513.299744,542.462769 514.173584,543.130249 
	C526.996155,552.925232 539.839783,562.692566 552.694763,572.445007 
	C591.792664,602.106750 630.875244,631.788757 670.019409,661.389343 
	C677.541199,667.077271 685.315552,672.431152 692.973450,677.939087 
z"/>
<path fill="#6853E7" opacity="1.000000" stroke="none" 
	d="
M511.822327,539.965515 
	C509.062408,538.313293 506.132294,536.888611 503.570068,534.972046 
	C486.088287,521.895630 468.675964,508.726135 451.257324,495.565430 
	C440.172272,487.190063 429.109283,478.785553 418.064575,470.357147 
	C417.586731,469.992493 417.391998,469.256927 417.032104,468.344788 
	C429.320099,456.583344 441.576385,445.100067 453.975800,433.773407 
	C483.231598,407.048645 512.564392,380.408264 541.849670,353.715668 
	C580.240601,318.723541 618.589111,283.684601 657.053650,248.773621 
	C659.831543,246.252350 663.406006,244.608719 666.938782,242.597351 
	C669.011353,243.090027 670.733521,243.805969 672.502686,243.951950 
	C684.044800,244.904236 692.985474,254.496185 692.991638,266.170319 
	C693.015564,311.796570 693.016479,357.422852 692.660278,403.497986 
	C691.304932,404.547852 690.252625,405.066284 689.334290,405.761658 
	C647.694397,437.293945 606.079712,468.859650 564.430298,500.379333 
	C546.930664,513.622803 529.360474,526.772949 511.822327,539.965515 
z"/>
<path fill="#6953E7" opacity="1.000000" stroke="none" 
	d="
M335.527527,542.061829 
	C340.410614,545.654419 345.160522,549.156128 349.522217,553.088562 
	C367.936584,569.690674 386.277222,586.375366 404.538574,603.145630 
	C407.922516,606.253235 410.815918,609.895081 413.965363,613.633911 
	C404.697021,621.227722 395.470825,628.572449 386.086884,635.709839 
	C362.249329,653.840698 338.322235,671.853760 314.468475,689.963318 
	C300.826447,700.320251 289.534943,699.956909 276.940430,688.574524 
	C267.185516,679.758423 257.394867,670.980713 247.723709,662.073486 
	C234.407745,649.809387 234.298325,634.064026 247.689606,621.806458 
	C276.785553,595.173950 306.031311,568.704956 335.527527,542.061829 
z"/>
<path fill="#FEFEFF" opacity="1.000000" stroke="none" 
	d="
M511.856995,540.324402 
	C529.360474,526.772949 546.930664,513.622803 564.430298,500.379333 
	C606.079712,468.859650 647.694397,437.293945 689.334290,405.761658 
	C690.252625,405.066284 691.304932,404.547852 692.649536,403.965576 
	C692.997314,494.992950 692.990234,586.001587 692.978271,677.474670 
	C685.315552,672.431152 677.541199,667.077271 670.019409,661.389343 
	C630.875244,631.788757 591.792664,602.106750 552.694763,572.445007 
	C539.839783,562.692566 526.996155,552.925232 514.173584,543.130249 
	C513.299744,542.462769 512.647156,541.505676 511.856995,540.324402 
z"/>
</svg>